SplineFontDB: 3.0
FontName: Latte-Bold
FullName: Latte Bold
FamilyName: Latte
Weight: Bold
Copyright: Copyright (c) 2016 by Guillaume Litaudon (www.guillaumelitaudon.fr) with Reserved Font Name "Latte".\nThis Font Software is licensed under the SIL Open Font License, Version 1.1.\n\nLatte is a variation of Carlito.\nCarlito is Copyright (c) 2010-2013 by tyPoland Lukasz Dziedzic with Reserved Font Name "Carlito". Licensed under the SIL Open Font License, Version 1.1.

StartChar: .notdef
Encoding: 1114112 -1 0
Width: 1038
GlyphClass: 2
Flags: MW
LayerCount: 2
Fore
SplineSet
241 1101 m 1,0,1
 359 1204 359 1204 507 1204 c 0,2,3
 629 1204 629 1204 704 1139 c 128,-1,4
 779 1074 779 1074 779 965 c 0,5,6
 779 837 779 837 681 758 c 0,7,8
 656 736 656 736 632 718 c 0,9,10
 578 675 578 675 571 642 c 2,11,-1
 554 542 l 1,12,-1
 435 542 l 1,13,-1
 422 655 l 2,14,15
 421 661 421 661 421 666 c 0,16,17
 422 731 422 731 514 797 c 0,18,19
 616 870 616 870 616 955 c 0,20,21
 616 1003 616 1003 581.5 1031.5 c 128,-1,22
 547 1060 547 1060 500.5 1060 c 128,-1,23
 454 1060 454 1060 427 1051.5 c 128,-1,24
 400 1043 400 1043 380.5 1032.5 c 128,-1,25
 361 1022 361 1022 348 1013.5 c 128,-1,26
 335 1005 335 1005 317 1005 c 128,-1,27
 299 1005 299 1005 287 1026 c 2,28,-1
 241 1101 l 1,0,1
390 240.5 m 128,-1,30
 382 260 382 260 382 282.5 c 128,-1,31
 382 305 382 305 390 325 c 0,32,33
 398 346 398 346 412 360 c 0,34,35
 444 392 444 392 476 392 c 0,36,37
 478 392 l 0,38,39
 512 392 512 392 531 383 c 128,-1,40
 550 374 550 374 564 360 c 0,41,42
 595 328 595 328 595 294 c 128,-1,43
 595 260 595 260 586.5 240.5 c 128,-1,44
 578 221 578 221 564 207 c 0,45,46
 533 176 533 176 499.5 176 c 128,-1,47
 466 176 466 176 446.5 184.5 c 128,-1,48
 427 193 427 193 412.5 207 c 128,-1,29
 398 221 398 221 390 240.5 c 128,-1,30
43 1383 m 1,49,-1
 985 1383 l 1,50,-1
 985 0 l 1,51,-1
 43 0 l 1,52,-1
 43 1383 l 1,49,-1
93 53 m 1,53,-1
 930 53 l 1,54,-1
 930 1330 l 1,55,-1
 93 1330 l 1,56,-1
 93 53 l 1,53,-1
EndSplineSet
Validated: 1
EndChar

StartChar: glyph1
Encoding: 0 -1 1
AltUni2: 000000.ffffffff.0
Width: 0
Flags: MW
LayerCount: 2
Fore
SplineSet
0.5 -348 m 128,-1,1
 -17 -348 -17 -348 -17 -330.5 c 128,-1,2
 -17 -313 -17 -313 0.5 -313 c 128,-1,3
 18 -313 18 -313 18 -330.5 c 128,-1,0
 18 -348 18 -348 0.5 -348 c 128,-1,1
EndSplineSet
Validated: 1
EndChar

StartChar: A
Encoding: 65 65 3
Width: 1285
GlyphClass: 2
Flags: W
AnchorPoint: "Ancre-5" 1185 1414 basechar 0
AnchorPoint: "Ancre-3" 1185 -510 basechar 0
AnchorPoint: "Ancre-2" 1185 1515 basechar 0
AnchorPoint: "Ancre-1" 593 -3 basechar 0
AnchorPoint: "Ancre-0" 593 1414 basechar 0
LayerCount: 2
Fore
SplineSet
1123 0 m 2,0,1
 1068 0 1068 0 1038 57 c 1,2,-1
 1038 58 l 1,3,-1
 1037 59 l 1,4,-1
 924 358 l 1,5,-1
 384 358 l 1,6,-1
 272 60 l 2,7,8
 263 36 263 36 240 18 c 128,-1,9
 217 0 217 0 185 0 c 2,10,-1
 8 0 l 1,11,-1
 531 1298 l 1,12,-1
 537 1314 l 1,13,-1
 772 1314 l 1,14,-1
 1300 -0 l 1,15,-1
 1123 0 l 2,0,1
638 1007 m 2,16,-1
 452 513 l 1,17,-1
 856 513 l 1,18,-1
 671 1008 l 2,19,20
 663 1027 663 1027 654 1051 c 1,21,22
 646 1027 646 1027 638 1007 c 2,16,-1
EndSplineSet
Validated: 1
Position2: "sous-table 'cpsp' Chasses pour composition en capitales lookups0" dx=40 dy=0 dh=80 dv=0
Substitution2: "sous-table 'sups' Exposant lookups25" A.superior
Substitution2: "sous-table 'c2sc' Capitales vers petites capitales lookups24" a.smcp
EndChar

StartChar: Aogonek
Encoding: 260 260 4
Width: 1285
GlyphClass: 2
Flags: W
AnchorPoint: "Ancre-5" 1185 1414 basechar 0
AnchorPoint: "Ancre-2" 1185 1515 basechar 0
AnchorPoint: "Ancre-1" 593 -3 basechar 0
AnchorPoint: "Ancre-0" 593 1810 basechar 0
AnchorPoint: "Ancre-3" 1185 -510 basechar 0
LayerCount: 2
Fore
SplineSet
1440 -260 m 1,0,1
 1351 -327 1351 -327 1248 -327 c 128,-1,2
 1145 -327 1145 -327 1085 -282.5 c 128,-1,3
 1025 -238 1025 -238 1025 -155 c 128,-1,4
 1025 -72 1025 -72 1111 0 c 1,5,6
 1056 4 1056 4 1031 57 c 1,7,-1
 1030 58 l 1,8,-1
 1030 59 l 1,9,-1
 918 358 l 1,10,-1
 383 358 l 1,11,-1
 272 60 l 2,12,13
 263 36 263 36 240 18 c 128,-1,14
 217 0 217 0 185 0 c 2,15,-1
 8 0 l 1,16,-1
 528 1298 l 1,17,-1
 535 1314 l 1,18,-1
 767 1314 l 1,19,-1
 1279 54 l 1,20,-1
 1280 6 l 1,21,22
 1216 -26 1216 -26 1216 -119 c 0,23,24
 1216 -172 1216 -172 1277 -172 c 0,25,26
 1320 -172 1320 -172 1336 -161 c 128,-1,27
 1352 -150 1352 -150 1364 -150 c 0,28,29
 1394 -150 1394 -150 1405 -177 c 2,30,-1
 1432 -242 l 1,31,-1
 1440 -260 l 1,0,1
634 1007 m 2,32,-1
 450 513 l 1,33,-1
 851 513 l 1,34,-1
 667 1008 l 2,35,36
 659 1027 659 1027 650 1051 c 1,37,38
 642 1027 642 1027 634 1007 c 2,32,-1
EndSplineSet
Validated: 1
LCarets2: 1 0
Substitution2: "sous-table 'c2sc' Capitales vers petites capitales lookups24" aogonek.smcp
Position2: "sous-table 'cpsp' Chasses pour composition en capitales lookups0" dx=40 dy=0 dh=80 dv=0
Ligature2: "sous-table 'ccmp' Composition et d+AOkA-composition de glyphe (CJK) lookups10" A uni0328
EndChar

StartChar: AE
Encoding: 198 198 5
Width: 1663
GlyphClass: 2
Flags: W
AnchorPoint: "Ancre-0" 892 1414 basechar 0
AnchorPoint: "Ancre-1" 892 89 basechar 0
AnchorPoint: "Ancre-2" 1563 1515 basechar 0
AnchorPoint: "Ancre-3" 1563 -510 basechar 0
AnchorPoint: "Ancre-5" 1563 1414 basechar 0
LayerCount: 2
Fore
SplineSet
652 1314 m 1,0,-1
 1595 1314 l 1,1,-1
 1595 1116 l 1,2,-1
 966 1116 l 1,3,-1
 1011 760 l 1,4,-1
 1484 760 l 1,5,-1
 1484 567 l 1,6,-1
 1034 567 l 1,7,-1
 1080 198 l 1,8,-1
 1595 198 l 1,9,-1
 1595 0 l 1,10,-1
 872 0 l 1,11,-1
 829 333 l 1,12,-1
 393 333 l 1,13,-1
 251 53 l 1,14,15
 222 0 222 0 157 0 c 2,16,-1
 -21 0 l 1,17,-1
 652 1314 l 1,0,-1
726 1034 m 2,18,-1
 479 513 l 1,19,-1
 808 513 l 1,20,-1
 742 1067 l 1,21,22
 734 1050 734 1050 726 1034 c 2,18,-1
EndSplineSet
Validated: 1
Substitution2: "sous-table 'c2sc' Capitales vers petites capitales lookups24" ae.smcp
Position2: "sous-table 'cpsp' Chasses pour composition en capitales lookups0" dx=40 dy=0 dh=80 dv=0
EndChar

StartChar: B
Encoding: 66 66 6
Width: 1214
GlyphClass: 2
Flags: W
AnchorPoint: "Ancre-5" 1114 1414 basechar 0
AnchorPoint: "Ancre-3" 1114 -510 basechar 0
AnchorPoint: "Ancre-2" 1114 1515 basechar 0
AnchorPoint: "Ancre-1" 513 10 basechar 0
AnchorPoint: "Ancre-0" 513 1414 basechar 0
LayerCount: 2
Fore
SplineSet
903 680 m 1,0,1
 1126 607 1126 607 1126 385 c 0,2,3
 1126 210 1126 210 1004 106 c 0,4,5
 882 0 882 0 638 0 c 2,6,-1
 144 0 l 1,7,-1
 144 1314 l 1,8,-1
 590 1314 l 2,9,10
 857 1314 857 1314 972 1219 c 0,11,12
 1085 1127 1085 1127 1085 959 c 0,13,14
 1085 771 1085 771 903 680 c 1,0,1
895 391 m 0,15,16
 895 573 895 573 635 573 c 2,17,-1
 376 573 l 1,18,-1
 376 194 l 1,19,-1
 635 194 l 2,20,21
 837 194 837 194 882 310 c 0,22,23
 895 347 895 347 895 391 c 0,15,16
376 1121 m 1,24,-1
 376 751 l 1,25,-1
 583 751 l 2,26,27
 784 751 784 751 835 860 c 0,28,29
 851 894 851 894 851 936 c 0,30,31
 851 1033 851 1033 791 1077 c 0,32,33
 729 1121 729 1121 590 1121 c 2,34,-1
 376 1121 l 1,24,-1
EndSplineSet
Validated: 1
Position2: "sous-table 'cpsp' Chasses pour composition en capitales lookups0" dx=40 dy=0 dh=80 dv=0
Substitution2: "sous-table 'sups' Exposant lookups25" B.superior
Substitution2: "sous-table 'c2sc' Capitales vers petites capitales lookups24" b.smcp
EndChar

StartChar: C
Encoding: 67 67 7
Width: 1192
GlyphClass: 2
Flags: W
AnchorPoint: "Ancre-5" 1092 1414 basechar 0
AnchorPoint: "Ancre-3" 1092 -510 basechar 0
AnchorPoint: "Ancre-2" 1092 1515 basechar 0
AnchorPoint: "Ancre-1" 648 -3 basechar 0
AnchorPoint: "Ancre-0" 648 1414 basechar 0
LayerCount: 2
Fore
SplineSet
334 457 m 0,0,1
 394 286 394 286 542 222 c 0,2,3
 614 191 614 191 681 191 c 128,-1,4
 748 191 748 191 807.5 200.5 c 128,-1,5
 867 210 867 210 909.5 241 c 128,-1,6
 952 272 952 272 977 298 c 128,-1,7
 1002 324 1002 324 1027.5 324 c 128,-1,8
 1053 324 1053 324 1073 304 c 1,9,-1
 1145 226 l 1,10,-1
 1160 211 l 1,11,-1
 1147 194 l 1,12,13
 989 -14 989 -14 684 -14 c 1,14,15
 391 -14 391 -14 225 175 c 0,16,17
 67 358 67 358 67 657 c 0,18,19
 67 951 67 951 233 1140 c 0,20,21
 313 1230 313 1230 434 1279.5 c 128,-1,22
 555 1329 555 1329 700 1329 c 0,23,24
 966 1329 966 1329 1128 1154 c 2,25,-1
 1142 1139 l 1,26,-1
 1071 1039 l 1,27,28
 1050 1007 1050 1007 1018 1007 c 1,29,30
 986 1008 986 1008 962 1028 c 0,31,32
 854 1122 854 1122 699 1122 c 0,33,34
 523 1122 523 1122 415 1002 c 0,35,36
 303 875 303 875 303 657 c 0,37,38
 303 545 303 545 334 457 c 0,0,1
EndSplineSet
Validated: 1
Position2: "sous-table 'cpsp' Chasses pour composition en capitales lookups0" dx=40 dy=0 dh=80 dv=0
Substitution2: "sous-table 'sups' Exposant lookups25" C.superior
Substitution2: "sous-table 'c2sc' Capitales vers petites capitales lookups24" c.smcp
EndChar

StartChar: Ccedilla
Encoding: 199 199 8
Width: 1192
GlyphClass: 2
Flags: W
AnchorPoint: "Ancre-0" 648 1414 basechar 0
AnchorPoint: "Ancre-1" 648 -300 basechar 0
AnchorPoint: "Ancre-2" 1092 1515 basechar 0
AnchorPoint: "Ancre-3" 1092 -510 basechar 0
AnchorPoint: "Ancre-5" 1092 1414 basechar 0
LayerCount: 2
Fore
SplineSet
741 -28 m 1,0,1
 918 -69 918 -69 918 -185 c 0,2,3
 918 -297 918 -297 761 -334 c 0,4,5
 716 -344 716 -344 666 -344 c 0,6,7
 572 -344 572 -344 497 -312 c 1,8,-1
 475 -302 l 1,9,-1
 501 -227 l 1,10,11
 515 -193 515 -193 551 -193 c 1,12,13
 564 -194 564 -194 574 -198 c 0,14,15
 613 -215 613 -215 663 -215 c 128,-1,16
 713 -215 713 -215 713 -183 c 0,17,18
 713 -163 713 -163 679.5 -152 c 128,-1,19
 646 -141 646 -141 568 -132 c 2,20,-1
 535 -128 l 1,21,-1
 579 -6 l 1,22,23
 214 43 214 43 103 403 c 0,24,25
 67 519 67 519 67 662 c 0,26,27
 67 953 67 953 233 1140 c 0,28,29
 313 1230 313 1230 434 1279.5 c 128,-1,30
 555 1329 555 1329 700 1329 c 0,31,32
 966 1329 966 1329 1128 1154 c 2,33,-1
 1142 1139 l 1,34,-1
 1071 1039 l 1,35,36
 1050 1007 1050 1007 1018 1007 c 1,37,38
 986 1008 986 1008 962 1028 c 0,39,40
 854 1122 854 1122 699 1122 c 0,41,42
 522 1122 522 1122 415 1001 c 0,43,44
 303 874 303 874 303 653 c 0,45,46
 303 432 303 432 418 304 c 0,47,48
 528 182 528 182 696 182 c 1,49,50
 843 182 843 182 924 240 c 0,51,52
 948 258 948 258 981 290 c 1,53,-1
 982 290 l 1,54,55
 1007 311 1007 311 1030 311 c 0,56,57
 1052 311 1052 311 1073 291 c 1,58,-1
 1160 201 l 1,59,-1
 1147 185 l 1,60,61
 1004 5 1004 5 746 -12 c 1,62,-1
 741 -28 l 1,0,1
EndSplineSet
Validated: 1
Substitution2: "sous-table 'c2sc' Capitales vers petites capitales lookups24" ccedilla.smcp
LCarets2: 1 0
Position2: "sous-table 'cpsp' Chasses pour composition en capitales lookups0" dx=40 dy=0 dh=80 dv=0
Ligature2: "sous-table 'ccmp' Composition et d+AOkA-composition de glyphe (CJK) lookups10" C uni0327
EndChar

StartChar: D
Encoding: 68 68 9
Width: 1360
GlyphClass: 2
Flags: W
AnchorPoint: "Ancre-5" 1260 1414 basechar 0
AnchorPoint: "Ancre-3" 1260 -510 basechar 0
AnchorPoint: "Ancre-2" 1260 1515 basechar 0
AnchorPoint: "Ancre-1" 578 10 basechar 0
AnchorPoint: "Ancre-0" 578 1414 basechar 0
LayerCount: 2
Fore
SplineSet
1120 1132 m 0,0,1
 1292 952 1292 952 1292 657 c 0,2,3
 1292 364 1292 364 1120 182 c 0,4,5
 946 0 946 0 637 0 c 2,6,-1
 139 0 l 1,7,-1
 139 1314 l 1,8,-1
 637 1314 l 2,9,10
 788 1314 788 1314 912.5 1266 c 128,-1,11
 1037 1218 1037 1218 1120 1132 c 0,0,1
637 1117 m 2,12,-1
 372 1117 l 1,13,-1
 372 197 l 1,14,-1
 637 197 l 2,15,16
 830 197 830 197 942.5 316.5 c 128,-1,17
 1055 436 1055 436 1055 655 c 128,-1,18
 1055 874 1055 874 942.5 995.5 c 128,-1,19
 830 1117 830 1117 637 1117 c 2,12,-1
EndSplineSet
Validated: 1
Position2: "sous-table 'cpsp' Chasses pour composition en capitales lookups0" dx=40 dy=0 dh=80 dv=0
Substitution2: "sous-table 'c2sc' Capitales vers petites capitales lookups24" d.smcp
Substitution2: "sous-table 'sups' Exposant lookups25" D.superior
EndChar

StartChar: E
Encoding: 69 69 11
Width: 1100
GlyphClass: 2
Flags: W
AnchorPoint: "Ancre-5" 1000 1414 basechar 0
AnchorPoint: "Ancre-3" 1000 -510 basechar 0
AnchorPoint: "Ancre-2" 1000 1515 basechar 0
AnchorPoint: "Ancre-1" 546 10 basechar 0
AnchorPoint: "Ancre-0" 546 1414 basechar 0
LayerCount: 2
Fore
SplineSet
1013 1314 m 1,0,-1
 1013 1116 l 1,1,-1
 378 1116 l 1,2,-1
 378 760 l 1,3,-1
 899 760 l 1,4,-1
 899 567 l 1,5,-1
 378 567 l 1,6,-1
 378 198 l 1,7,-1
 1014 198 l 1,8,-1
 1014 173 l 1,9,-1
 1013 25 l 1,10,-1
 1013 -0 l 1,11,-1
 145 0 l 1,12,-1
 145 1314 l 1,13,-1
 1013 1314 l 1,0,-1
EndSplineSet
Validated: 1
Position2: "sous-table 'cpsp' Chasses pour composition en capitales lookups0" dx=40 dy=0 dh=80 dv=0
Substitution2: "sous-table 'sups' Exposant lookups25" E.superior
Substitution2: "sous-table 'c2sc' Capitales vers petites capitales lookups24" e.smcp
EndChar

StartChar: Eogonek
Encoding: 280 280 12
Width: 1100
GlyphClass: 2
Flags: W
AnchorPoint: "Ancre-5" 1000 1414 basechar 0
AnchorPoint: "Ancre-3" 1000 -510 basechar 0
AnchorPoint: "Ancre-2" 1000 1515 basechar 0
AnchorPoint: "Ancre-1" 546 10 basechar 0
AnchorPoint: "Ancre-0" 546 1810 basechar 0
LayerCount: 2
Fore
SplineSet
813 -119 m 0,0,1
 813 -172 813 -172 874 -172 c 0,2,3
 917 -172 917 -172 933 -161 c 0,4,5
 950 -150 950 -150 962 -150 c 0,6,7
 991 -150 991 -150 1002 -177 c 2,8,-1
 1029 -242 l 1,9,-1
 1036 -260 l 1,10,11
 952 -327 952 -327 845 -327 c 0,12,13
 738 -326 738 -326 674 -282 c 0,14,15
 609 -237 609 -237 608 -157 c 0,16,17
 608 -77 608 -77 700 0 c 1,18,-1
 145 0 l 1,19,-1
 145 1314 l 1,20,-1
 1013 1314 l 1,21,-1
 1013 1116 l 1,22,-1
 378 1116 l 1,23,-1
 378 760 l 1,24,-1
 899 760 l 1,25,-1
 899 567 l 1,26,-1
 378 567 l 1,27,-1
 378 198 l 1,28,-1
 1014 198 l 1,29,-1
 1014 173 l 1,30,-1
 1013 25 l 1,31,-1
 1013 -0 l 1,32,-1
 901 0 l 1,33,34
 813 -57 813 -57 813 -119 c 0,0,1
EndSplineSet
Validated: 1
Substitution2: "sous-table 'c2sc' Capitales vers petites capitales lookups24" eogonek.smcp
Position2: "sous-table 'cpsp' Chasses pour composition en capitales lookups0" dx=40 dy=0 dh=80 dv=0
Ligature2: "sous-table 'ccmp' Composition et d+AOkA-composition de glyphe (CJK) lookups10" E uni0328
EndChar

StartChar: F
Encoding: 70 70 13
Width: 1041
GlyphClass: 2
Flags: W
AnchorPoint: "Ancre-5" 941 1414 basechar 0
AnchorPoint: "Ancre-3" 941 -510 basechar 0
AnchorPoint: "Ancre-2" 941 1515 basechar 0
AnchorPoint: "Ancre-1" 548 10 basechar 0
AnchorPoint: "Ancre-0" 548 1414 basechar 0
LayerCount: 2
Fore
SplineSet
982 1314 m 1,0,-1
 982 1116 l 1,1,-1
 371 1116 l 1,2,-1
 371 736 l 1,3,-1
 898 736 l 1,4,-1
 898 538 l 1,5,-1
 371 538 l 1,6,-1
 371 0 l 1,7,-1
 138 0 l 1,8,-1
 138 1314 l 1,9,-1
 982 1314 l 1,0,-1
EndSplineSet
Validated: 1
Position2: "sous-table 'cpsp' Chasses pour composition en capitales lookups0" dx=40 dy=0 dh=80 dv=0
Substitution2: "sous-table 'c2sc' Capitales vers petites capitales lookups24" f.smcp
Substitution2: "sous-table 'sups' Exposant lookups25" F.superior
EndChar

StartChar: G
Encoding: 71 71 14
Width: 1392
GlyphClass: 2
Flags: W
AnchorPoint: "Ancre-5" 1292 1414 basechar 0
AnchorPoint: "Ancre-3" 1292 -510 basechar 0
AnchorPoint: "Ancre-2" 1292 1515 basechar 0
AnchorPoint: "Ancre-1" 736 -3 basechar 0
AnchorPoint: "Ancre-0" 736 1414 basechar 0
LayerCount: 2
Fore
SplineSet
347 455 m 0,0,1
 452 183 452 183 816 183 c 0,2,3
 946 183 946 183 1070 242 c 1,4,-1
 1070 470 l 1,5,-1
 896 470 l 2,6,7
 866 470 866 470 846 487 c 128,-1,8
 826 504 826 504 826 530 c 2,9,-1
 826 658 l 1,10,-1
 1285 658 l 1,11,-1
 1285 135 l 1,12,13
 1072 -14 1072 -14 804 -14 c 1,14,15
 460 -14 460 -14 265 173 c 0,16,17
 77 357 77 357 77 657 c 0,18,19
 77 958 77 958 259 1142 c 0,20,21
 448 1329 448 1329 783 1329 c 0,22,23
 1029 1329 1029 1329 1176 1228 c 0,24,25
 1224 1196 1224 1196 1266 1156 c 2,26,-1
 1281 1142 l 1,27,-1
 1219 1043 l 2,28,29
 1201 1015 1201 1015 1171.5 1007.5 c 128,-1,30
 1142 1000 1142 1000 1114 1016 c 0,31,32
 1086 1032 1086 1032 1060 1050 c 0,33,34
 952 1122 952 1122 776 1122 c 0,35,36
 562 1122 562 1122 438 998 c 0,37,38
 313 873 313 873 313 657 c 0,39,40
 313 544 313 544 347 455 c 0,0,1
EndSplineSet
Validated: 1
Position2: "sous-table 'cpsp' Chasses pour composition en capitales lookups0" dx=40 dy=0 dh=80 dv=0
Substitution2: "sous-table 'sups' Exposant lookups25" G.superior
Substitution2: "sous-table 'c2sc' Capitales vers petites capitales lookups24" g.smcp
EndChar

StartChar: H
Encoding: 72 72 15
Width: 1376
GlyphClass: 2
Flags: W
AnchorPoint: "Ancre-5" 1276 1414 basechar 0
AnchorPoint: "Ancre-3" 1276 -510 basechar 0
AnchorPoint: "Ancre-2" 1276 1515 basechar 0
AnchorPoint: "Ancre-1" 638 10 basechar 0
AnchorPoint: "Ancre-0" 638 1414 basechar 0
LayerCount: 2
Fore
SplineSet
1236 0 m 1,0,-1
 1003 0 l 1,1,-1
 1003 571 l 1,2,-1
 373 571 l 1,3,-1
 373 0 l 1,4,-1
 140 0 l 1,5,-1
 140 1314 l 1,6,-1
 373 1314 l 1,7,-1
 373 754 l 1,8,-1
 1003 754 l 1,9,-1
 1003 1314 l 1,10,-1
 1236 1314 l 1,11,-1
 1236 0 l 1,0,-1
EndSplineSet
Validated: 1
Position2: "sous-table 'cpsp' Chasses pour composition en capitales lookups0" dx=40 dy=0 dh=80 dv=0
Substitution2: "sous-table 'sups' Exposant lookups25" H.superior
Substitution2: "sous-table 'c2sc' Capitales vers petites capitales lookups24" h.smcp
EndChar

StartChar: Hbar
Encoding: 294 294 16
Width: 1444
GlyphClass: 2
Flags: W
AnchorPoint: "Ancre-0" 672 1414 basechar 0
AnchorPoint: "Ancre-1" 672 10 basechar 0
AnchorPoint: "Ancre-2" 1345 1515 basechar 0
AnchorPoint: "Ancre-3" 1345 -510 basechar 0
AnchorPoint: "Ancre-5" 1345 1414 basechar 0
LayerCount: 2
Fore
SplineSet
1270 1314 m 1,0,-1
 1270 1069 l 1,1,-1
 1410 1069 l 1,2,-1
 1410 916 l 1,3,-1
 1270 916 l 1,4,-1
 1270 0 l 1,5,-1
 1029 0 l 1,6,-1
 1029 571 l 1,7,-1
 415 571 l 1,8,-1
 415 0 l 1,9,-1
 174 0 l 1,10,-1
 174 916 l 1,11,-1
 34 916 l 1,12,-1
 34 1069 l 1,13,-1
 174 1069 l 1,14,-1
 174 1314 l 1,15,-1
 415 1314 l 1,16,-1
 415 1060 l 1,17,-1
 1029 1060 l 1,18,-1
 1029 1314 l 1,19,-1
 1270 1314 l 1,0,-1
415 926 m 1,20,-1
 415 754 l 1,21,-1
 1029 754 l 1,22,-1
 1029 926 l 1,23,-1
 415 926 l 1,20,-1
EndSplineSet
Validated: 1
Substitution2: "sous-table 'c2sc' Capitales vers petites capitales lookups24" hbar.smcp
Position2: "sous-table 'cpsp' Chasses pour composition en capitales lookups0" dx=40 dy=0 dh=80 dv=0
EndChar

StartChar: I
Encoding: 73 73 17
Width: 566
GlyphClass: 2
Flags: W
AnchorPoint: "Ancre-5" 516 1414 basechar 0
AnchorPoint: "Ancre-3" 516 -510 basechar 0
AnchorPoint: "Ancre-2" 516 1515 basechar 0
AnchorPoint: "Ancre-1" 258 10 basechar 0
AnchorPoint: "Ancre-0" 258 1414 basechar 0
LayerCount: 2
Fore
SplineSet
399 0 m 1,0,-1
 167 0 l 1,1,-1
 167 1314 l 1,2,-1
 399 1314 l 1,3,-1
 399 0 l 1,0,-1
EndSplineSet
Validated: 1
Position2: "sous-table 'cpsp' Chasses pour composition en capitales lookups0" dx=40 dy=0 dh=80 dv=0
Substitution2: "sous-table 'sups' Exposant lookups25" I.superior
Substitution2: "sous-table 'c2sc' Capitales vers petites capitales lookups24" i.smcp
EndChar

StartChar: Iogonek
Encoding: 302 302 18
Width: 566
GlyphClass: 2
Flags: MW
AnchorPoint: "Ancre-5" 516 1414 basechar 0
AnchorPoint: "Ancre-3" 516 -510 basechar 0
AnchorPoint: "Ancre-2" 516 1515 basechar 0
AnchorPoint: "Ancre-1" 258 -300 basechar 0
AnchorPoint: "Ancre-0" 258 1810 basechar 0
LayerCount: 2
Fore
SplineSet
266 -135 m 0,0,1
 266 -176 266 -176 327 -176 c 0,2,3
 370 -176 370 -176 386 -165 c 128,-1,4
 402 -154 402 -154 414 -154 c 0,5,6
 443 -154 443 -154 455 -181 c 2,7,-1
 482 -246 l 1,8,-1
 489 -264 l 1,9,10
 405 -331 405 -331 301 -331 c 128,-1,11
 197 -331 197 -331 140.5 -292 c 128,-1,12
 84 -253 84 -253 84 -187 c 0,13,14
 84 -81 84 -81 235 -0 c 1,15,-1
 167 0 l 1,16,-1
 167 1314 l 1,17,-1
 399 1314 l 1,18,-1
 399 0 l 1,19,-1
 348 0 l 1,20,-1
 429 -11 l 1,21,-1
 366 -39 l 2,22,23
 266 -83 266 -83 266 -135 c 0,0,1
EndSplineSet
Validated: 1
Substitution2: "sous-table 'c2sc' Capitales vers petites capitales lookups24" iogonek.smcp
LCarets2: 1 0
Position2: "sous-table 'cpsp' Chasses pour composition en capitales lookups0" dx=40 dy=0 dh=80 dv=0
Ligature2: "sous-table 'ccmp' Composition et d+AOkA-composition de glyphe (CJK) lookups10" I uni0328
EndChar

StartChar: J
Encoding: 74 74 19
Width: 703
GlyphClass: 2
Flags: W
AnchorPoint: "Ancre-5" 653 1414 basechar 0
AnchorPoint: "Ancre-3" 653 -510 basechar 0
AnchorPoint: "Ancre-2" 653 1515 basechar 0
AnchorPoint: "Ancre-1" 191 -3 basechar 0
AnchorPoint: "Ancre-0" 444 1414 basechar 0
LayerCount: 2
Fore
SplineSet
220 -14 m 0,0,1
 132 -14 132 -14 34 17 c 1,2,3
 41 161 41 161 61 182 c 128,-1,4
 81 203 81 203 104 203 c 128,-1,5
 127 203 127 203 147.5 195.5 c 128,-1,6
 168 188 168 188 198 188 c 0,7,8
 274 188 274 188 315.5 250.5 c 128,-1,9
 357 313 357 313 357 463 c 2,10,-1
 357 1314 l 1,11,-1
 589 1314 l 1,12,-1
 589 463 l 2,13,14
 589 238 589 238 493 112 c 128,-1,15
 397 -14 397 -14 220 -14 c 0,0,1
EndSplineSet
Validated: 1
Position2: "sous-table 'cpsp' Chasses pour composition en capitales lookups0" dx=40 dy=0 dh=80 dv=0
Substitution2: "sous-table 'sups' Exposant lookups25" J.superior
Substitution2: "sous-table 'c2sc' Capitales vers petites capitales lookups24" j.smcp
EndChar

StartChar: K
Encoding: 75 75 20
Width: 1164
GlyphClass: 2
Flags: W
AnchorPoint: "Ancre-5" 1064 1414 basechar 0
AnchorPoint: "Ancre-3" 1064 -510 basechar 0
AnchorPoint: "Ancre-2" 1064 1515 basechar 0
AnchorPoint: "Ancre-1" 530 89 basechar 0
AnchorPoint: "Ancre-0" 530 1414 basechar 0
LayerCount: 2
Fore
SplineSet
356 1314 m 1,0,-1
 356 765 l 1,1,-1
 384 765 l 2,2,3
 429 765 429 765 451 791 c 1,4,-1
 823 1263 l 1,5,6
 853 1293 853 1293 877.5 1303.5 c 128,-1,7
 902 1314 902 1314 939 1314 c 2,8,-1
 1143 1314 l 1,9,-1
 694 732 l 1,10,11
 673 708 673 708 652 691 c 1,12,13
 685 671 685 671 712 640 c 1,14,-1
 712 639 l 1,15,-1
 713 639 l 1,16,-1
 1171 -0 l 1,17,-1
 964 0 l 2,18,19
 907 0 907 0 859 48 c 1,20,-1
 477 545 l 2,21,22
 463 562 463 562 449 568.5 c 128,-1,23
 435 575 435 575 401 575 c 2,24,-1
 356 575 l 1,25,-1
 356 0 l 1,26,-1
 124 0 l 1,27,-1
 124 1314 l 1,28,-1
 356 1314 l 1,0,-1
EndSplineSet
Validated: 1
Position2: "sous-table 'cpsp' Chasses pour composition en capitales lookups0" dx=40 dy=0 dh=80 dv=0
Substitution2: "sous-table 'sups' Exposant lookups25" K.superior
Substitution2: "sous-table 'c2sc' Capitales vers petites capitales lookups24" k.smcp
EndChar

StartChar: L
Encoding: 76 76 21
Width: 961
GlyphClass: 2
Flags: W
AnchorPoint: "Ancre-5" 861 1414 basechar 0
AnchorPoint: "Ancre-3" 861 -510 basechar 0
AnchorPoint: "Ancre-2" 861 1515 basechar 0
AnchorPoint: "Ancre-1" 470 10 basechar 0
AnchorPoint: "Ancre-0" 230 1414 basechar 0
LayerCount: 2
Fore
SplineSet
370 1314 m 1,0,-1
 370 203 l 1,1,-1
 927 203 l 1,2,-1
 927 0 l 1,3,-1
 138 0 l 1,4,-1
 138 1314 l 1,5,-1
 370 1314 l 1,0,-1
EndSplineSet
Validated: 1
Position2: "sous-table 'cpsp' Chasses pour composition en capitales lookups0" dx=40 dy=0 dh=80 dv=0
Substitution2: "sous-table 'sups' Exposant lookups25" L.superior
Substitution2: "sous-table 'c2sc' Capitales vers petites capitales lookups24" l.smcp
EndChar

StartChar: Lslash
Encoding: 321 321 22
Width: 980
GlyphClass: 2
Flags: W
AnchorPoint: "Ancre-0" 248 1414 basechar 0
AnchorPoint: "Ancre-1" 488 10 basechar 0
AnchorPoint: "Ancre-2" 879 1515 basechar 0
AnchorPoint: "Ancre-3" 879 -510 basechar 0
AnchorPoint: "Ancre-5" 879 1414 basechar 0
LayerCount: 2
Fore
SplineSet
443 1314 m 1,0,-1
 443 794 l 1,1,-1
 724 933 l 1,2,-1
 763 954 l 1,3,-1
 763 796 l 2,4,5
 763 755 763 755 725 735 c 2,6,-1
 443 593 l 1,7,-1
 443 203 l 1,8,-1
 982 203 l 1,9,-1
 982 0 l 1,10,-1
 193 0 l 1,11,-1
 193 472 l 1,12,-1
 33 387 l 1,13,-1
 33 549 l 2,14,15
 33 586 33 586 68 605 c 2,16,-1
 193 674 l 1,17,-1
 193 1314 l 1,18,-1
 443 1314 l 1,0,-1
EndSplineSet
Validated: 1
Substitution2: "sous-table 'c2sc' Capitales vers petites capitales lookups24" lslash.smcp
Position2: "sous-table 'cpsp' Chasses pour composition en capitales lookups0" dx=40 dy=0 dh=80 dv=0
EndChar

StartChar: M
Encoding: 77 77 24
Width: 1851
GlyphClass: 2
Flags: W
AnchorPoint: "Ancre-5" 1751 1414 basechar 0
AnchorPoint: "Ancre-3" 1751 -510 basechar 0
AnchorPoint: "Ancre-2" 1751 1515 basechar 0
AnchorPoint: "Ancre-1" 875 10 basechar 0
AnchorPoint: "Ancre-0" 875 1414 basechar 0
LayerCount: 2
Fore
SplineSet
412 1271 m 2,0,-1
 906 467 l 2,1,2
 919 446 919 446 929 422 c 1,3,4
 939 446 939 446 952 466 c 2,5,-1
 1439 1271 l 2,6,7
 1456 1300 1456 1300 1476.5 1307 c 128,-1,8
 1497 1314 1497 1314 1525 1314 c 2,9,-1
 1684 1314 l 1,10,-1
 1684 0 l 1,11,-1
 1473 0 l 1,12,-1
 1473 975 l 1,13,-1
 1036 242 l 2,14,15
 1004 188 1004 188 944 188 c 2,16,-1
 917 188 l 2,17,18
 858 188 858 188 824 241 c 1,19,-1
 377 974 l 1,20,-1
 377 0 l 1,21,-1
 167 0 l 1,22,-1
 167 1314 l 1,23,-1
 326 1314 l 2,24,25
 354 1314 354 1314 374 1307.5 c 128,-1,26
 394 1301 394 1301 412 1271 c 2,0,-1
EndSplineSet
Validated: 1
Position2: "sous-table 'cpsp' Chasses pour composition en capitales lookups0" dx=40 dy=0 dh=80 dv=0
Substitution2: "sous-table 'sups' Exposant lookups25" M.superior
Substitution2: "sous-table 'c2sc' Capitales vers petites capitales lookups24" m.smcp
EndChar

StartChar: N
Encoding: 78 78 25
Width: 1422
GlyphClass: 2
Flags: W
AnchorPoint: "Ancre-5" 1322 1414 basechar 0
AnchorPoint: "Ancre-3" 1322 -510 basechar 0
AnchorPoint: "Ancre-2" 1322 1515 basechar 0
AnchorPoint: "Ancre-1" 661 10 basechar 0
AnchorPoint: "Ancre-0" 661 1414 basechar 0
LayerCount: 2
Fore
SplineSet
148 1314 m 1,0,-1
 268 1314 l 2,1,2
 298 1314 298 1314 315.5 1306 c 128,-1,3
 333 1298 333 1298 350 1273 c 1,4,-1
 1064 359 l 1,5,-1
 1064 1314 l 1,6,-1
 1274 1314 l 1,7,-1
 1274 0 l 1,8,-1
 1157 0 l 2,9,10
 1130 0 1130 0 1110 9 c 1,11,-1
 1110 10 l 1,12,-1
 1109 10 l 1,13,14
 1087 22 1087 22 1072 43 c 1,15,-1
 358 955 l 1,16,-1
 358 0 l 1,17,-1
 148 0 l 1,18,-1
 148 1314 l 1,0,-1
EndSplineSet
Validated: 1
Position2: "sous-table 'cpsp' Chasses pour composition en capitales lookups0" dx=40 dy=0 dh=80 dv=0
Substitution2: "sous-table 'sups' Exposant lookups25" N.superior
Substitution2: "sous-table 'c2sc' Capitales vers petites capitales lookups24" n.smcp
EndChar

StartChar: Eng
Encoding: 330 330 26
Width: 1387
GlyphClass: 2
Flags: W
AnchorPoint: "Ancre-0" 626 1414 basechar 0
AnchorPoint: "Ancre-1" 626 10 basechar 0
AnchorPoint: "Ancre-2" 1287 1515 basechar 0
AnchorPoint: "Ancre-3" 1287 -510 basechar 0
AnchorPoint: "Ancre-5" 1287 1414 basechar 0
LayerCount: 2
Fore
SplineSet
1245 1314 m 1,0,-1
 1245 28 l 2,1,2
 1245 -225 1245 -225 1074 -302 c 0,3,4
 1014 -328 1014 -328 946 -328 c 0,5,6
 843 -328 843 -328 755 -293 c 1,7,-1
 734 -284 l 1,8,-1
 759 -191 l 2,9,10
 773 -138 773 -138 827 -138 c 0,11,12
 844 -138 844 -138 863 -145 c 128,-1,13
 882 -152 882 -152 928 -152 c 128,-1,14
 974 -152 974 -152 1004.5 -112.5 c 128,-1,15
 1035 -73 1035 -73 1035 15 c 2,16,-1
 1035 54 l 1,17,-1
 352 952 l 1,18,-1
 352 0 l 1,19,-1
 142 0 l 1,20,-1
 142 1314 l 1,21,-1
 262 1314 l 2,22,23
 290 1314 290 1314 307.5 1306 c 128,-1,24
 325 1298 325 1298 344 1273 c 2,25,-1
 1035 363 l 1,26,-1
 1035 1314 l 1,27,-1
 1245 1314 l 1,0,-1
EndSplineSet
Validated: 1
Substitution2: "sous-table 'c2sc' Capitales vers petites capitales lookups24" eng.smcp
Substitution2: "sous-table 'ss03' Style 3 lookups33" Eng.ss03
Substitution2: "sous-table 'ss02' Style 2 lookups31" Eng.ss02
Substitution2: "sous-table 'ss01' Style 1 lookups29" Eng.ss01
Position2: "sous-table 'cpsp' Chasses pour composition en capitales lookups0" dx=40 dy=0 dh=80 dv=0
EndChar

StartChar: O
Encoding: 79 79 27
Width: 1456
GlyphClass: 2
Flags: W
AnchorPoint: "Ancre-5" 1356 1414 basechar 0
AnchorPoint: "Ancre-3" 1356 -510 basechar 0
AnchorPoint: "Ancre-2" 1356 1515 basechar 0
AnchorPoint: "Ancre-1" 678 0 basechar 0
AnchorPoint: "Ancre-0" 678 1414 basechar 0
LayerCount: 2
Fore
SplineSet
1211 1139 m 0,0,1
 1384 953 1384 953 1384 657 c 0,2,3
 1384 360 1384 360 1211 175 c 0,4,5
 1035 -14 1035 -14 729 -14 c 1,6,7
 580 -14 580 -14 456 36 c 0,8,9
 212 134 212 134 117 388 c 0,10,11
 72 511 72 511 72 657 c 0,12,13
 72 952 72 952 246 1139 c 0,14,15
 330 1229 330 1229 455 1279 c 128,-1,16
 580 1329 580 1329 729.5 1329 c 128,-1,17
 879 1329 879 1329 1003 1279 c 128,-1,18
 1127 1229 1127 1229 1211 1139 c 0,0,1
1035.5 317 m 128,-1,20
 1148 441 1148 441 1148 658 c 128,-1,21
 1148 875 1148 875 1035 998.5 c 128,-1,22
 922 1122 922 1122 729 1122 c 128,-1,23
 536 1122 536 1122 422.5 999.5 c 128,-1,24
 309 877 309 877 309 658 c 128,-1,25
 309 439 309 439 423 316 c 128,-1,26
 537 193 537 193 730 193 c 128,-1,19
 923 193 923 193 1035.5 317 c 128,-1,20
EndSplineSet
Validated: 1
Position2: "sous-table 'cpsp' Chasses pour composition en capitales lookups0" dx=40 dy=0 dh=80 dv=0
Substitution2: "sous-table 'sups' Exposant lookups25" O.superior
Substitution2: "sous-table 'c2sc' Capitales vers petites capitales lookups24" o.smcp
EndChar

StartChar: Oslash
Encoding: 216 216 28
Width: 1459
GlyphClass: 2
Flags: W
AnchorPoint: "Ancre-5" 1359 1414 basechar 0
AnchorPoint: "Ancre-3" 1359 -510 basechar 0
AnchorPoint: "Ancre-2" 1359 1515 basechar 0
AnchorPoint: "Ancre-1" 681 0 basechar 0
AnchorPoint: "Ancre-0" 681 1414 basechar 0
LayerCount: 2
Fore
SplineSet
1212 1141 m 1,0,1
 1387 951 1387 951 1387 657 c 0,2,3
 1387 364 1387 364 1213 175 c 0,4,5
 1129 85 1129 85 1004.5 35.5 c 128,-1,6
 880 -14 880 -14 713 -14 c 128,-1,7
 546 -14 546 -14 405 62 c 1,8,-1
 332 -38 l 2,9,10
 286 -100 286 -100 208 -100 c 2,11,-1
 89 -100 l 1,12,-1
 267 154 l 1,13,14
 73 344 73 344 73 656 c 0,15,16
 73 950 73 950 247 1139 c 0,17,18
 331 1229 331 1229 456 1279 c 128,-1,19
 581 1329 581 1329 709 1329 c 128,-1,20
 837 1329 837 1329 931 1302 c 1,21,22
 1011 1297 1011 1297 1080 1289 c 1,23,-1
 1136 1316 l 1,24,25
 1169 1362 1169 1362 1192.5 1368 c 128,-1,26
 1216 1374 1216 1374 1234 1374 c 2,27,-1
 1375 1374 l 1,28,-1
 1212 1141 l 1,0,1
953 1064 m 1,29,30
 858 1122 858 1122 746 1122 c 0,31,32
 432 1122 432 1122 339 840 c 0,33,34
 309 748 309 748 309 632 c 0,35,36
 309 428 309 428 400 300 c 1,37,-1
 953 1064 l 1,29,30
1036 320 m 1,38,39
 1150 453 1150 453 1150 682 c 0,40,41
 1150 865 1150 865 1075 988 c 1,42,-1
 532 237 l 1,43,44
 619 193 619 193 723 193 c 0,45,46
 921 193 921 193 1036 320 c 1,38,39
EndSplineSet
Validated: 1
Substitution2: "sous-table 'c2sc' Capitales vers petites capitales lookups24" oslash.smcp
Position2: "sous-table 'cpsp' Chasses pour composition en capitales lookups0" dx=40 dy=0 dh=80 dv=0
EndChar

StartChar: OE
Encoding: 338 338 29
Width: 1875
GlyphClass: 2
Flags: W
AnchorPoint: "Ancre-0" 1069 1414 basechar 0
AnchorPoint: "Ancre-1" 1069 89 basechar 0
AnchorPoint: "Ancre-2" 1775 1515 basechar 0
AnchorPoint: "Ancre-3" 1775 -510 basechar 0
AnchorPoint: "Ancre-5" 1775 1414 basechar 0
LayerCount: 2
Fore
SplineSet
631 1329 m 0,0,1
 865 1329 865 1329 1017 1164 c 1,2,-1
 1017 1314 l 1,3,-1
 1795 1314 l 1,4,-1
 1795 1116 l 1,5,-1
 1237 1116 l 1,6,-1
 1237 760 l 1,7,-1
 1688 760 l 1,8,-1
 1688 567 l 1,9,-1
 1237 567 l 1,10,-1
 1237 190 l 1,11,-1
 1796 190 l 1,12,-1
 1796 166 l 1,13,-1
 1795 25 l 1,14,-1
 1795 -0 l 1,15,-1
 1017 0 l 1,16,-1
 1017 150 l 1,17,18
 864 -13 864 -13 631 -13 c 0,19,20
 371 -13 371 -13 217 177 c 0,21,22
 67 362 67 362 67 657 c 0,23,24
 67 951 67 951 217 1138 c 0,25,26
 289 1229 289 1229 395.5 1279 c 128,-1,27
 502 1329 502 1329 631 1329 c 0,0,1
994 657 m 0,28,29
 994 659 994 659 995 661 c 0,30,31
 995 874 995 874 899 1004 c 0,32,33
 808 1126 808 1126 650 1126 c 0,34,35
 489 1126 489 1126 399 1004 c 0,36,37
 303 877 303 877 303 657 c 0,38,39
 303 436 303 436 399 311 c 0,40,41
 492 189 492 189 649 189 c 0,42,43
 807 189 807 189 900.5 313.5 c 128,-1,44
 994 438 994 438 994 657 c 0,28,29
EndSplineSet
Validated: 1
Substitution2: "sous-table 'c2sc' Capitales vers petites capitales lookups24" oe.smcp
Position2: "sous-table 'cpsp' Chasses pour composition en capitales lookups0" dx=40 dy=0 dh=80 dv=0
EndChar

StartChar: P
Encoding: 80 80 30
Width: 1158
GlyphClass: 2
Flags: W
AnchorPoint: "Ancre-5" 1058 1414 basechar 0
AnchorPoint: "Ancre-3" 1058 -510 basechar 0
AnchorPoint: "Ancre-2" 1058 1515 basechar 0
AnchorPoint: "Ancre-1" 516 10 basechar 0
AnchorPoint: "Ancre-0" 516 1414 basechar 0
LayerCount: 2
Fore
SplineSet
568 465 m 2,0,-1
 379 465 l 1,1,-1
 379 0 l 1,2,-1
 147 0 l 1,3,-1
 147 1314 l 1,4,-1
 568 1314 l 2,5,6
 967 1314 967 1314 1064 1066 c 0,7,8
 1094 989 1094 989 1094 894 c 0,9,10
 1094 798 1094 798 1062 720 c 0,11,12
 956 465 956 465 571 465 c 0,13,14
 570 465 570 465 568 465 c 2,0,-1
862 893 m 0,15,16
 862 1121 862 1121 568 1121 c 2,17,-1
 379 1121 l 1,18,-1
 379 659 l 1,19,-1
 568 659 l 2,20,21
 783 659 783 659 845 797 c 0,22,23
 862 840 862 840 862 893 c 0,15,16
EndSplineSet
Validated: 1
Position2: "sous-table 'cpsp' Chasses pour composition en capitales lookups0" dx=40 dy=0 dh=80 dv=0
Substitution2: "sous-table 'sups' Exposant lookups25" P.superior
Substitution2: "sous-table 'c2sc' Capitales vers petites capitales lookups24" p.smcp
EndChar

StartChar: Thorn
Encoding: 222 222 31
Width: 1158
GlyphClass: 2
Flags: W
LayerCount: 2
Fore
SplineSet
570 240 m 2,0,-1
 380 240 l 1,1,-1
 380 0 l 1,2,-1
 148 0 l 1,3,-1
 148 1314 l 1,4,-1
 380 1314 l 1,5,-1
 380 1081 l 1,6,-1
 570 1081 l 2,7,8
 969 1081 969 1081 1067 835 c 0,9,10
 1097 758 1097 758 1097 665 c 0,11,12
 1096 572 1096 572 1064 494 c 0,13,14
 958 240 958 240 570 240 c 2,0,-1
865 665 m 0,15,16
 865 905 865 905 570 905 c 2,17,-1
 380 905 l 1,18,-1
 380 418 l 1,19,-1
 570 418 l 2,20,21
 786 418 786 418 848 564 c 0,22,23
 865 610 865 610 865 665 c 0,15,16
EndSplineSet
Validated: 1
Substitution2: "sous-table 'c2sc' Capitales vers petites capitales lookups24" thorn.smcp
Position2: "sous-table 'cpsp' Chasses pour composition en capitales lookups0" dx=40 dy=0 dh=80 dv=0
EndChar

StartChar: Q
Encoding: 81 81 32
Width: 1478
GlyphClass: 2
Flags: W
AnchorPoint: "Ancre-5" 1378 1414 basechar 0
AnchorPoint: "Ancre-3" 1378 -510 basechar 0
AnchorPoint: "Ancre-2" 1378 1515 basechar 0
AnchorPoint: "Ancre-1" 690 -3 basechar 0
AnchorPoint: "Ancre-0" 690 1414 basechar 0
LayerCount: 2
Fore
SplineSet
1039.5 317 m 128,-1,1
 1152 441 1152 441 1152 658 c 128,-1,2
 1152 875 1152 875 1039 998.5 c 128,-1,3
 926 1122 926 1122 736 1122 c 128,-1,4
 546 1122 546 1122 433 1000 c 128,-1,5
 320 878 320 878 320 658 c 128,-1,6
 320 438 320 438 432.5 315.5 c 128,-1,7
 545 193 545 193 736 193 c 128,-1,0
 927 193 927 193 1039.5 317 c 128,-1,1
1395 654 m 0,8,9
 1395 317 1395 317 1175 129 c 1,10,-1
 1541 -271 l 1,11,-1
 1335 -271 l 2,12,13
 1256 -271 1256 -271 1204 -219 c 1,14,-1
 980 27 l 1,15,16
 867 -14 867 -14 727.5 -14 c 128,-1,17
 588 -14 588 -14 465 36 c 0,18,19
 222 135 222 135 128 388 c 0,20,21
 83 511 83 511 83 657 c 0,22,23
 83 952 83 952 257 1139 c 0,24,25
 341 1229 341 1229 464.5 1279 c 128,-1,26
 588 1329 588 1329 736 1329 c 0,27,28
 1035 1329 1035 1329 1218 1138 c 0,29,30
 1395 955 1395 955 1395 654 c 0,8,9
EndSplineSet
Validated: 1
Position2: "sous-table 'cpsp' Chasses pour composition en capitales lookups0" dx=40 dy=0 dh=80 dv=0
Substitution2: "sous-table 'sups' Exposant lookups25" Q.superior
Substitution2: "sous-table 'c2sc' Capitales vers petites capitales lookups24" q.smcp
EndChar

StartChar: R
Encoding: 82 82 33
Width: 1212
GlyphClass: 2
Flags: W
AnchorPoint: "Ancre-5" 1112 1414 basechar 0
AnchorPoint: "Ancre-3" 1112 -510 basechar 0
AnchorPoint: "Ancre-2" 1112 1515 basechar 0
AnchorPoint: "Ancre-1" 516 10 basechar 0
AnchorPoint: "Ancre-0" 516 1414 basechar 0
LayerCount: 2
Fore
SplineSet
546 1314 m 2,0,1
 1069 1314 1069 1314 1069 938 c 0,2,3
 1069 663 1069 663 780 570 c 1,4,5
 796 556 796 556 811 539 c 1,6,-1
 1178 38 l 1,7,-1
 1204 -0 l 1,8,-1
 995 0 l 2,9,10
 933 0 933 0 896 46 c 1,11,-1
 555 492 l 2,12,13
 542 508 542 508 528.5 514.5 c 128,-1,14
 515 521 515 521 484 521 c 2,15,-1
 379 521 l 1,16,-1
 379 0 l 1,17,-1
 147 0 l 1,18,-1
 147 1314 l 1,19,-1
 546 1314 l 2,0,1
379 1121 m 1,20,-1
 379 704 l 1,21,-1
 538 704 l 2,22,23
 754 704 754 704 812 833 c 0,24,25
 830 874 830 874 831 923 c 0,26,27
 831 1024 831 1024 762.5 1072.5 c 128,-1,28
 694 1121 694 1121 546 1121 c 2,29,-1
 379 1121 l 1,20,-1
EndSplineSet
Validated: 1
Position2: "sous-table 'cpsp' Chasses pour composition en capitales lookups0" dx=40 dy=0 dh=80 dv=0
Substitution2: "sous-table 'sups' Exposant lookups25" R.superior
Substitution2: "sous-table 'c2sc' Capitales vers petites capitales lookups24" r.smcp
EndChar

StartChar: S
Encoding: 83 83 34
Width: 1041
GlyphClass: 2
Flags: W
AnchorPoint: "Ancre-5" 941 1414 basechar 0
AnchorPoint: "Ancre-3" 941 -510 basechar 0
AnchorPoint: "Ancre-2" 941 1515 basechar 0
AnchorPoint: "Ancre-1" 450 0 basechar 0
AnchorPoint: "Ancre-0" 498 1414 basechar 0
LayerCount: 2
Fore
SplineSet
954 1171 m 1,0,-1
 900 1070 l 2,1,2
 878 1029 878 1029 846 1029 c 128,-1,3
 814 1029 814 1029 790 1047 c 0,4,5
 684 1128 684 1128 562 1128 c 0,6,7
 398 1128 398 1128 354 1026 c 0,8,9
 340 995 340 995 340 955 c 0,10,11
 340 851 340 851 533 794 c 0,12,13
 703 743 703 743 766 715 c 0,14,15
 975 621 975 621 975 408 c 0,16,17
 974 226 974 226 858 110 c 0,18,19
 734 -14 734 -14 505 -14 c 0,20,21
 230 -14 230 -14 68 166 c 1,22,-1
 55 180 l 1,23,-1
 118 282 l 2,24,25
 140 318 140 318 174 318 c 0,26,27
 210 318 210 318 236 294 c 0,28,29
 356 187 356 187 506 187 c 0,30,31
 507 187 507 187 509 187 c 0,32,33
 626 187 626 187 692 242 c 0,34,35
 754 293 754 293 754 389 c 0,36,37
 754 476 754 476 666 522 c 0,38,39
 622 546 622 546 564 562 c 0,40,41
 390 611 390 611 324.5 637 c 128,-1,42
 259 663 259 663 214 705 c 0,43,44
 114 798 114 798 114 957 c 0,45,46
 114 1108 114 1108 223 1214 c 0,47,48
 341 1329 341 1329 555 1329 c 0,49,50
 557 1329 557 1329 559 1329 c 0,51,52
 804 1329 804 1329 941 1184 c 1,53,-1
 954 1171 l 1,0,-1
EndSplineSet
Validated: 1
Position2: "sous-table 'cpsp' Chasses pour composition en capitales lookups0" dx=40 dy=0 dh=80 dv=0
Substitution2: "sous-table 'sups' Exposant lookups25" S.superior
Substitution2: "sous-table 'c2sc' Capitales vers petites capitales lookups24" s.smcp
EndChar

StartChar: Scedilla
Encoding: 350 350 35
Width: 1041
GlyphClass: 2
Flags: W
AnchorPoint: "Ancre-5" 941 1414 basechar 0
AnchorPoint: "Ancre-3" 941 -510 basechar 0
AnchorPoint: "Ancre-2" 941 1515 basechar 0
AnchorPoint: "Ancre-1" 450 -300 basechar 0
AnchorPoint: "Ancre-0" 498 1414 basechar 0
LayerCount: 2
Fore
SplineSet
583 -183 m 0,0,1
 583 -163 583 -163 548 -152 c 128,-1,2
 513 -141 513 -141 432 -132 c 2,3,-1
 398 -128 l 1,4,-1
 442 -11 l 1,5,6
 201 10 201 10 55 180 c 1,7,-1
 118 282 l 2,8,9
 140 318 140 318 174 318 c 0,10,11
 210 318 210 318 236 294 c 0,12,13
 356 187 356 187 506 187 c 0,14,15
 507 187 507 187 509 187 c 0,16,17
 626 187 626 187 692 242 c 0,18,19
 754 293 754 293 754 389 c 0,20,21
 754 476 754 476 666 522 c 0,22,23
 622 546 622 546 564 562 c 0,24,25
 390 611 390 611 324.5 637 c 128,-1,26
 259 663 259 663 214 705 c 0,27,28
 114 798 114 798 114 957 c 0,29,30
 114 1108 114 1108 223 1214 c 0,31,32
 341 1329 341 1329 555 1329 c 0,33,34
 557 1329 557 1329 559 1329 c 0,35,36
 804 1329 804 1329 941 1184 c 1,37,-1
 954 1171 l 1,38,-1
 900 1070 l 2,39,40
 878 1029 878 1029 846 1029 c 128,-1,41
 814 1029 814 1029 790 1047 c 0,42,43
 682 1128 682 1128 561 1128 c 0,44,45
 398 1128 398 1128 354 1026 c 0,46,47
 340 994 340 994 340 954 c 0,48,49
 340 852 340 852 533 793 c 0,50,51
 711 740 711 740 771 712 c 0,52,53
 975 618 975 618 975 404 c 0,54,55
 975 247 975 247 882 135 c 0,56,57
 788 21 788 21 620 -4 c 1,58,-1
 612 -28 l 1,59,60
 698 -47 698 -47 743 -84 c 128,-1,61
 788 -121 788 -121 788 -172 c 0,62,63
 788 -262 788 -262 716 -304 c 0,64,65
 642 -344 642 -344 530 -344 c 0,66,67
 437 -344 437 -344 358 -312 c 1,68,-1
 336 -302 l 1,69,-1
 363 -227 l 1,70,71
 377 -193 377 -193 414 -193 c 1,72,73
 427 -194 427 -194 438 -198 c 0,74,75
 480 -216 480 -216 529 -216 c 0,76,77
 530 -216 530 -216 532 -216 c 0,78,79
 583 -216 583 -216 583 -183 c 0,0,1
EndSplineSet
Validated: 1
Substitution2: "sous-table 'c2sc' Capitales vers petites capitales lookups24" scedilla.smcp
LCarets2: 1 0
Position2: "sous-table 'cpsp' Chasses pour composition en capitales lookups0" dx=40 dy=0 dh=80 dv=0
Ligature2: "sous-table 'ccmp' Composition et d+AOkA-composition de glyphe (CJK) lookups10" S uni0327
Substitution2: "sous-table 'salt' Alternatives stylistiques dans Latin lookup 8" uni0218
EndChar

StartChar: T
Encoding: 84 84 36
Width: 1098
GlyphClass: 2
Flags: W
AnchorPoint: "Ancre-5" 998 1414 basechar 0
AnchorPoint: "Ancre-3" 998 -510 basechar 0
AnchorPoint: "Ancre-2" 998 1515 basechar 0
AnchorPoint: "Ancre-1" 499 0 basechar 0
AnchorPoint: "Ancre-0" 499 1414 basechar 0
LayerCount: 2
Fore
SplineSet
1074 1314 m 1,0,-1
 1074 1112 l 1,1,-1
 678 1112 l 1,2,-1
 678 0 l 1,3,-1
 422 0 l 1,4,-1
 422 1112 l 1,5,-1
 24 1112 l 1,6,-1
 24 1314 l 1,7,-1
 1074 1314 l 1,0,-1
EndSplineSet
Validated: 1
Position2: "sous-table 'cpsp' Chasses pour composition en capitales lookups0" dx=40 dy=0 dh=80 dv=0
Substitution2: "sous-table 'sups' Exposant lookups25" T.superior
Substitution2: "sous-table 'c2sc' Capitales vers petites capitales lookups24" t.smcp
EndChar

StartChar: Tbar
Encoding: 358 358 37
Width: 1098
GlyphClass: 2
Flags: W
AnchorPoint: "Ancre-0" 499 1414 basechar 0
AnchorPoint: "Ancre-1" 499 0 basechar 0
AnchorPoint: "Ancre-2" 998 1515 basechar 0
AnchorPoint: "Ancre-3" 998 -510 basechar 0
AnchorPoint: "Ancre-5" 998 1414 basechar 0
LayerCount: 2
Fore
SplineSet
1074 1314 m 1,0,-1
 1074 1112 l 1,1,-1
 678 1112 l 1,2,-1
 678 806 l 1,3,-1
 1001 806 l 1,4,-1
 1001 649 l 1,5,-1
 678 649 l 1,6,-1
 678 0 l 1,7,-1
 422 0 l 1,8,-1
 422 649 l 1,9,-1
 175 649 l 1,10,-1
 175 806 l 1,11,-1
 422 806 l 1,12,-1
 422 1112 l 1,13,-1
 24 1112 l 1,14,-1
 24 1314 l 1,15,-1
 1074 1314 l 1,0,-1
EndSplineSet
Validated: 1
Substitution2: "sous-table 'c2sc' Capitales vers petites capitales lookups24" tbar.smcp
Position2: "sous-table 'cpsp' Chasses pour composition en capitales lookups0" dx=40 dy=0 dh=80 dv=0
EndChar

StartChar: U
Encoding: 85 85 38
Width: 1414
GlyphClass: 2
Flags: W
AnchorPoint: "Ancre-5" 1314 1414 basechar 0
AnchorPoint: "Ancre-3" 1314 -510 basechar 0
AnchorPoint: "Ancre-2" 1314 1515 basechar 0
AnchorPoint: "Ancre-1" 657 0 basechar 0
AnchorPoint: "Ancre-0" 657 1414 basechar 0
LayerCount: 2
Fore
SplineSet
707 194 m 129,-1,1
 866 194 866 194 954 286 c 0,2,3
 1042 376 1042 376 1042 526 c 2,4,-1
 1042 1314 l 1,5,-1
 1274 1314 l 1,6,-1
 1274 520 l 2,7,8
 1274 290 1274 290 1128 139 c 0,9,10
 980 -15 980 -15 707 -15 c 1,11,12
 438 -15 438 -15 286 139 c 0,13,14
 140 287 140 287 140 520 c 2,15,-1
 140 1314 l 1,16,-1
 372 1314 l 1,17,-1
 372 527 l 2,18,19
 372 374 372 374 460 284 c 128,-1,0
 548 194 548 194 707 194 c 129,-1,1
EndSplineSet
Validated: 1
Position2: "sous-table 'cpsp' Chasses pour composition en capitales lookups0" dx=40 dy=0 dh=80 dv=0
Substitution2: "sous-table 'sups' Exposant lookups25" U.superior
Substitution2: "sous-table 'c2sc' Capitales vers petites capitales lookups24" u.smcp
EndChar

StartChar: Uogonek
Encoding: 370 370 39
Width: 1414
GlyphClass: 2
Flags: W
AnchorPoint: "Ancre-5" 1314 1414 basechar 0
AnchorPoint: "Ancre-3" 1314 -510 basechar 0
AnchorPoint: "Ancre-2" 1314 1515 basechar 0
AnchorPoint: "Ancre-1" 657 -300 basechar 0
AnchorPoint: "Ancre-0" 657 1810 basechar 0
LayerCount: 2
Fore
SplineSet
948 -272 m 2,0,1
 872 -327 872 -327 728 -327 c 0,2,3
 648 -327 648 -327 586.5 -282.5 c 128,-1,4
 525 -238 525 -238 525 -160.5 c 128,-1,5
 525 -83 525 -83 603 -8 c 1,6,7
 278 36 278 36 175 316 c 0,8,9
 140 410 140 410 140 521 c 2,10,-1
 140 1314 l 1,11,-1
 372 1314 l 1,12,-1
 372 492 l 2,13,14
 372 251 372 251 564 169 c 0,15,16
 627 144 627 144 707 144 c 0,17,18
 866 144 866 144 954 240 c 0,19,20
 1042 334 1042 334 1042 491 c 2,21,-1
 1042 1314 l 1,22,-1
 1274 1314 l 1,23,-1
 1274 521 l 2,24,25
 1274 308 1274 308 1152 164 c 0,26,27
 1028 17 1028 17 802 -9 c 1,28,29
 749 -41 749 -41 729 -87 c 0,30,31
 722 -102 722 -102 722 -123 c 128,-1,32
 722 -144 722 -144 739.5 -158 c 128,-1,33
 757 -172 757 -172 783 -172 c 0,34,35
 810 -172 810 -172 822 -169 c 0,36,37
 848 -163 848 -163 859 -156.5 c 128,-1,38
 870 -150 870 -150 884 -150 c 0,39,40
 916 -150 916 -150 927 -177 c 1,41,-1
 965 -260 l 1,42,-1
 948 -272 l 2,0,1
EndSplineSet
Validated: 1
Substitution2: "sous-table 'c2sc' Capitales vers petites capitales lookups24" uogonek.smcp
LCarets2: 1 0
Position2: "sous-table 'cpsp' Chasses pour composition en capitales lookups0" dx=40 dy=0 dh=80 dv=0
Ligature2: "sous-table 'ccmp' Composition et d+AOkA-composition de glyphe (CJK) lookups10" U uni0328
EndChar

StartChar: V
Encoding: 86 86 40
Width: 1262
GlyphClass: 2
Flags: W
AnchorPoint: "Ancre-5" 1162 1414 basechar 0
AnchorPoint: "Ancre-3" 1162 -510 basechar 0
AnchorPoint: "Ancre-2" 1162 1515 basechar 0
AnchorPoint: "Ancre-1" 581 10 basechar 0
AnchorPoint: "Ancre-0" 581 1414 basechar 0
LayerCount: 2
Fore
SplineSet
6 1314 m 1,0,-1
 189 1314 l 2,1,2
 252 1314 252 1314 275 1256 c 1,3,-1
 622 335 l 1,4,5
 633 309 633 309 643 280 c 1,6,7
 653 309 653 309 663 335 c 2,8,-1
 1009 1254 l 2,9,10
 1018 1278 1018 1278 1040.5 1296 c 128,-1,11
 1063 1314 1063 1314 1095 1314 c 2,12,-1
 1278 1314 l 1,13,-1
 755 16 l 1,14,-1
 748 0 l 1,15,-1
 536 0 l 1,16,-1
 6 1314 l 1,0,-1
EndSplineSet
Validated: 1
Position2: "sous-table 'cpsp' Chasses pour composition en capitales lookups0" dx=40 dy=0 dh=80 dv=0
Substitution2: "sous-table 'sups' Exposant lookups25" V.superior
Substitution2: "sous-table 'c2sc' Capitales vers petites capitales lookups24" v.smcp
EndChar

StartChar: W
Encoding: 87 87 41
Width: 1972
GlyphClass: 2
Flags: W
AnchorPoint: "Ancre-5" 1822 1414 basechar 0
AnchorPoint: "Ancre-3" 1822 -510 basechar 0
AnchorPoint: "Ancre-2" 1822 1515 basechar 0
AnchorPoint: "Ancre-1" 911 10 basechar 0
AnchorPoint: "Ancre-0" 911 1414 basechar 0
LayerCount: 2
Fore
SplineSet
12 1314 m 1,0,-1
 199 1314 l 2,1,2
 230 1314 230 1314 254 1297.5 c 128,-1,3
 278 1281 278 1281 286 1254 c 2,4,-1
 559 347 l 2,5,6
 560 343 560 343 562 337 c 1,7,8
 566 349 566 349 881 1253 c 0,9,10
 889 1278 889 1278 914 1296 c 0,11,12
 940 1314 940 1314 974 1314 c 2,13,-1
 1027 1314 l 2,14,15
 1098 1314 1098 1314 1118 1255 c 2,16,-1
 1434 348 l 2,17,18
 1435 344 1435 344 1437 339 c 1,19,20
 1438 343 1438 343 1440 347 c 2,21,-1
 1712 1253 l 2,22,23
 1720 1278 1720 1278 1744.5 1296 c 128,-1,24
 1769 1314 1769 1314 1801 1314 c 2,25,-1
 1977 1314 l 1,26,-1
 1551 0 l 1,27,-1
 1334 0 l 1,28,-1
 995 997 l 1,29,-1
 654 0 l 1,30,-1
 438 0 l 1,31,-1
 12 1314 l 1,0,-1
EndSplineSet
Validated: 1
Position2: "sous-table 'cpsp' Chasses pour composition en capitales lookups0" dx=40 dy=0 dh=80 dv=0
Substitution2: "sous-table 'sups' Exposant lookups25" W.superior
Substitution2: "sous-table 'c2sc' Capitales vers petites capitales lookups24" w.smcp
EndChar

StartChar: X
Encoding: 88 88 42
Width: 1163
GlyphClass: 2
Flags: W
AnchorPoint: "Ancre-5" 1063 1414 basechar 0
AnchorPoint: "Ancre-3" 1063 -510 basechar 0
AnchorPoint: "Ancre-2" 1063 1515 basechar 0
AnchorPoint: "Ancre-1" 532 10 basechar 0
AnchorPoint: "Ancre-0" 532 1414 basechar 0
LayerCount: 2
Fore
SplineSet
894 1274 m 1,0,1
 920 1314 920 1314 960 1314 c 2,2,-1
 1178 1314 l 1,3,-1
 768 683 l 1,4,-1
 1189 -0 l 1,5,-1
 965 0 l 2,6,7
 922 0 922 0 890 45 c 1,8,-1
 889 46 l 1,9,-1
 889 47 l 1,10,-1
 593 542 l 1,11,-1
 296 46 l 1,12,13
 264 0 264 0 225 0 c 2,14,-1
 11 0 l 1,15,-1
 435 673 l 1,16,-1
 27 1314 l 1,17,-1
 252 1314 l 2,18,19
 296 1314 296 1314 323 1279 c 1,20,-1
 324 1278 l 1,21,-1
 324 1276 l 1,22,-1
 612 804 l 1,23,-1
 893 1273 l 1,24,-1
 893 1274 l 1,25,-1
 894 1274 l 1,0,1
EndSplineSet
Validated: 1
Position2: "sous-table 'cpsp' Chasses pour composition en capitales lookups0" dx=40 dy=0 dh=80 dv=0
Substitution2: "sous-table 'sups' Exposant lookups25" X.superior
Substitution2: "sous-table 'c2sc' Capitales vers petites capitales lookups24" x.smcp
EndChar

StartChar: Y
Encoding: 89 89 43
Width: 1098
GlyphClass: 2
Flags: W
AnchorPoint: "Ancre-5" 998 1414 basechar 0
AnchorPoint: "Ancre-3" 998 -510 basechar 0
AnchorPoint: "Ancre-2" 998 1515 basechar 0
AnchorPoint: "Ancre-1" 499 0 basechar 0
AnchorPoint: "Ancre-0" 499 1414 basechar 0
LayerCount: 2
Fore
SplineSet
1130 1314 m 1,0,-1
 691 525 l 1,1,-1
 691 0 l 1,2,-1
 439 0 l 1,3,-1
 439 523 l 1,4,-1
 0 1314 l 1,5,-1
 201 1314 l 2,6,7
 257 1314 257 1314 288 1259 c 1,8,-1
 289 1258 l 1,9,-1
 289 1257 l 1,10,-1
 533 751 l 1,11,12
 552 720 552 720 566 692 c 1,13,14
 594 743 594 743 598 750 c 2,15,-1
 840 1257 l 1,16,-1
 840 1258 l 1,17,-1
 841 1259 l 1,18,19
 873 1314 873 1314 927 1314 c 2,20,-1
 1130 1314 l 1,0,-1
EndSplineSet
Validated: 1
Position2: "sous-table 'cpsp' Chasses pour composition en capitales lookups0" dx=40 dy=0 dh=80 dv=0
Substitution2: "sous-table 'sups' Exposant lookups25" Y.superior
Substitution2: "sous-table 'c2sc' Capitales vers petites capitales lookups24" y.smcp
EndChar

StartChar: Z
Encoding: 90 90 44
Width: 1059
GlyphClass: 2
Flags: W
AnchorPoint: "Ancre-5" 959 1414 basechar 0
AnchorPoint: "Ancre-3" 959 -510 basechar 0
AnchorPoint: "Ancre-2" 959 1515 basechar 0
AnchorPoint: "Ancre-1" 495 10 basechar 0
AnchorPoint: "Ancre-0" 495 1414 basechar 0
LayerCount: 2
Fore
SplineSet
1010 1314 m 1,0,-1
 1010 1225 l 2,1,2
 1010 1188 1010 1188 987 1155 c 2,3,-1
 350 198 l 1,4,-1
 997 198 l 1,5,-1
 997 0 l 1,6,-1
 56 0 l 1,7,-1
 56 93 l 2,8,9
 56 122 56 122 78 156 c 2,10,-1
 714 1116 l 1,11,-1
 90 1116 l 1,12,-1
 90 1314 l 1,13,-1
 1010 1314 l 1,0,-1
EndSplineSet
Validated: 1
Position2: "sous-table 'cpsp' Chasses pour composition en capitales lookups0" dx=40 dy=0 dh=80 dv=0
Substitution2: "sous-table 'sups' Exposant lookups25" Z.superior
Substitution2: "sous-table 'c2sc' Capitales vers petites capitales lookups24" z.smcp
EndChar

StartChar: a
Encoding: 97 97 45
Width: 1081
GlyphClass: 2
Flags: W
AnchorPoint: "Ancre-5" 981 1122 basechar 0
AnchorPoint: "Ancre-4" 766 550 basechar 0
AnchorPoint: "Ancre-3" 981 -510 basechar 0
AnchorPoint: "Ancre-2" 981 1515 basechar 0
AnchorPoint: "Ancre-1" 378 0 basechar 0
AnchorPoint: "Ancre-0" 489 1122 basechar 0
LayerCount: 2
Fore
SplineSet
756 111 m 1,0,1
 611 -15 611 -15 391 -15 c 0,2,3
 256 -15 256 -15 173 52 c 0,4,5
 84 124 84 124 84 253 c 0,6,7
 84 464 84 464 436 536 c 0,8,9
 560 560 560 560 733 564 c 1,10,-1
 733 612 l 2,11,12
 733 711 733 711 688 758 c 0,13,14
 641 804 641 804 561 804 c 0,15,16
 420 804 420 804 301 723 c 0,17,18
 272 702 272 702 244 702 c 0,19,20
 192 702 192 702 167 747 c 2,21,-1
 135 803 l 1,22,-1
 126 820 l 1,23,24
 230 916 230 916 322 955 c 1,25,26
 434 995 434 995 552 995 c 0,27,28
 853 995 853 995 931 769 c 0,29,30
 955 701 955 701 955 618 c 2,31,-1
 955 0 l 1,32,-1
 852 0 l 2,33,34
 819 0 819 0 798 12 c 128,-1,35
 777 24 777 24 769 61 c 1,36,-1
 756 111 l 1,0,1
303 278 m 0,37,38
 303 158 303 158 460.5 158 c 128,-1,39
 618 158 618 158 733 273 c 1,40,-1
 733 439 l 1,41,42
 392 424 392 424 321 336 c 0,43,44
 303 310 303 310 303 278 c 0,37,38
EndSplineSet
Validated: 1
Substitution2: "sous-table 'sups' Exposant lookups25" a.superior
Substitution2: "sous-table 'ordn' Ordinaux dans Latin lookup 39" a.superior
Substitution2: "sous-table 'smcp' Bas-de-casse vers petites capitales dans Latin lookup 0" a.smcp
EndChar

StartChar: aogonek
Encoding: 261 261 46
Width: 1081
GlyphClass: 2
Flags: W
AnchorPoint: "Ancre-5" 981 1122 basechar 0
AnchorPoint: "Ancre-4" 766 550 basechar 0
AnchorPoint: "Ancre-3" 981 -510 basechar 0
AnchorPoint: "Ancre-2" 981 1515 basechar 0
AnchorPoint: "Ancre-1" 378 0 basechar 0
AnchorPoint: "Ancre-0" 489 1122 basechar 0
LayerCount: 2
Fore
SplineSet
844 -122 m 0,0,1
 844 -175 844 -175 905 -175 c 0,2,3
 948 -175 948 -175 964 -164 c 128,-1,4
 980 -153 980 -153 992 -153 c 0,5,6
 1021 -153 1021 -153 1033 -180 c 2,7,-1
 1060 -245 l 1,8,-1
 1067 -263 l 1,9,10
 983 -330 983 -330 876.5 -330 c 128,-1,11
 770 -330 770 -330 707 -285.5 c 128,-1,12
 644 -241 644 -241 644 -170 c 128,-1,13
 644 -99 644 -99 693 -43 c 1,14,15
 728 -20 728 -20 777 -2 c 1,16,17
 767 6 767 6 763 17 c 2,18,-1
 749 61 l 1,19,20
 724 41 724 41 699 25 c 1,21,22
 602 0 602 0 507 -5 c 1,23,24
 454 -15 454 -15 388 -15 c 0,25,26
 322 -14 322 -14 268 2 c 0,27,28
 153 37 153 37 108 136 c 0,29,30
 84 186 84 186 84 250 c 0,31,32
 84 463 84 463 433 536 c 0,33,34
 553 560 553 560 723 564 c 1,35,-1
 723 612 l 2,36,37
 723 804 723 804 539 804 c 0,38,39
 420 804 420 804 301 723 c 0,40,41
 272 702 272 702 244 702 c 0,42,43
 192 702 192 702 167 747 c 2,44,-1
 135 803 l 1,45,-1
 126 820 l 1,46,47
 230 916 230 916 322 955 c 1,48,49
 430 995 430 995 545 995 c 0,50,51
 854 995 854 995 931 769 c 0,52,53
 955 701 955 701 955 618 c 2,54,-1
 955 48 l 1,55,-1
 1024 48 l 1,56,-1
 944 3 l 2,57,58
 844 -53 844 -53 844 -122 c 0,0,1
303 278 m 0,59,60
 303 158 303 158 448 158 c 0,61,62
 577 158 577 158 668 228 c 0,63,64
 696 249 696 249 723 273 c 1,65,-1
 723 439 l 1,66,67
 386 424 386 424 321 336 c 0,68,69
 303 310 303 310 303 278 c 0,59,60
EndSplineSet
Validated: 1
Substitution2: "sous-table 'smcp' Bas-de-casse vers petites capitales dans Latin lookup 0" aogonek.smcp
LCarets2: 1 0
Ligature2: "sous-table 'ccmp' Composition et d+AOkA-composition de glyphe (CJK) lookups10" a uni0328
EndChar

StartChar: ae
Encoding: 230 230 47
Width: 1683
GlyphClass: 2
Flags: W
AnchorPoint: "Ancre-5" 1583 1122 basechar 0
AnchorPoint: "Ancre-3" 1583 -510 basechar 0
AnchorPoint: "Ancre-2" 1583 1515 basechar 0
AnchorPoint: "Ancre-0" 792 1122 basechar 0
LayerCount: 2
Fore
SplineSet
846 837 m 1,0,1
 975 993 975 993 1198 993 c 0,2,3
 1378 993 1378 993 1493 868 c 0,4,5
 1608 742 1608 742 1608 533 c 0,6,7
 1608 488 1608 488 1595 465.5 c 128,-1,8
 1582 443 1582 443 1542 443 c 2,9,-1
 938 443 l 1,10,11
 950 310 950 310 1021 242 c 128,-1,12
 1092 174 1092 174 1212 174 c 0,13,14
 1345 174 1345 174 1438 245 c 0,15,16
 1463 264 1463 264 1485 264 c 0,17,18
 1523 264 1523 264 1544 237 c 2,19,-1
 1602 161 l 1,20,21
 1549 100 1549 100 1507 72 c 0,22,23
 1376 -14 1376 -14 1195 -14 c 1,24,25
 1069 -14 1069 -14 974.5 38.5 c 128,-1,26
 880 91 880 91 825 178 c 1,27,28
 735 33 735 33 544 -2 c 0,29,30
 480 -15 480 -15 412 -15 c 0,31,32
 269 -15 269 -15 179 56 c 0,33,34
 86 128 86 128 86 269 c 0,35,36
 86 487 86 487 431 565 c 0,37,38
 546 591 546 591 709 596 c 1,39,-1
 709 618 l 2,40,41
 709 817 709 817 537 817 c 0,42,43
 536 817 536 817 504 817 c 0,44,45
 416 817 416 817 303 735 c 0,46,47
 274 715 274 715 259 715 c 2,48,-1
 242 715 l 2,49,50
 194 715 194 715 168 757 c 2,51,-1
 136 810 l 1,52,-1
 127 826 l 1,53,54
 222 914 222 914 318.5 954.5 c 128,-1,55
 415 995 415 995 536 995 c 0,56,57
 757 995 757 995 846 837 c 1,0,1
305 292 m 0,58,59
 305 158 305 158 460 158 c 0,60,61
 631 158 631 158 690 300 c 0,62,63
 709 348 709 348 709 414 c 2,64,-1
 709 467 l 1,65,66
 305 444 305 444 305 292 c 0,58,59
1401 577 m 1,67,68
 1390 743 1390 743 1280 796 c 0,69,70
 1242 815 1242 815 1188 815 c 0,71,72
 1023 815 1023 815 964 663 c 0,73,74
 949 624 949 624 942 577 c 1,75,-1
 1401 577 l 1,67,68
EndSplineSet
Validated: 1
Substitution2: "sous-table 'smcp' Bas-de-casse vers petites capitales dans Latin lookup 0" ae.smcp
EndChar

StartChar: b
Encoding: 98 98 48
Width: 1176
GlyphClass: 2
Flags: W
AnchorPoint: "Ancre-5" 1076 1492 basechar 0
AnchorPoint: "Ancre-3" 1076 -510 basechar 0
AnchorPoint: "Ancre-2" 1076 1515 basechar 0
AnchorPoint: "Ancre-1" 549 0 basechar 0
AnchorPoint: "Ancre-0" 540 1492 basechar 0
LayerCount: 2
Fore
SplineSet
638 -14 m 0,0,1
 461 -14 461 -14 354 90 c 1,2,-1
 351 59 l 2,3,4
 348 32 348 32 329.5 16 c 128,-1,5
 311 0 311 0 283 0 c 2,6,-1
 144 0 l 1,7,-1
 144 1422 l 1,8,-1
 370 1422 l 1,9,-1
 370 876 l 1,10,11
 503 993 503 993 691 993 c 0,12,13
 888 993 888 993 998 860 c 0,14,15
 1102 732 1102 732 1102 512 c 0,16,17
 1102 276 1102 276 985 134 c 0,18,19
 862 -14 862 -14 638 -14 c 0,0,1
871 507 m 0,20,21
 871 804 871 804 625 804 c 0,22,23
 473 804 473 804 370 684 c 1,24,-1
 370 262 l 1,25,26
 449 172 449 172 588 172 c 0,27,28
 871 172 871 172 871 507 c 0,20,21
EndSplineSet
Validated: 1
Substitution2: "sous-table 'sups' Exposant lookups25" b.superior
Substitution2: "sous-table 'ordn' Ordinaux dans Latin lookup 39" b.superior
Substitution2: "sous-table 'smcp' Bas-de-casse vers petites capitales dans Latin lookup 0" b.smcp
EndChar

StartChar: c
Encoding: 99 99 49
Width: 966
GlyphClass: 2
Flags: W
AnchorPoint: "Ancre-5" 866 1122 basechar 0
AnchorPoint: "Ancre-3" 866 -510 basechar 0
AnchorPoint: "Ancre-2" 866 1515 basechar 0
AnchorPoint: "Ancre-1" 500 -3 basechar 0
AnchorPoint: "Ancre-0" 500 1122 basechar 0
LayerCount: 2
Fore
SplineSet
922 843 m 1,0,-1
 864 762 l 2,1,2
 841 730 841 730 812.5 730 c 128,-1,3
 784 730 784 730 765 744 c 128,-1,4
 746 758 746 758 724 772 c 0,5,6
 667 807 667 807 591 807 c 0,7,8
 589 807 589 807 587 807 c 0,9,10
 299 807 299 807 299 490 c 0,11,12
 300 256 300 256 458 192 c 0,13,14
 508 172 508 172 568 172 c 0,15,16
 667 172 667 172 727 215 c 0,17,18
 751 232 751 232 771 250 c 128,-1,19
 791 268 791 268 820.5 268 c 128,-1,20
 850 268 850 268 870 241 c 2,21,-1
 921 178 l 1,22,-1
 933 162 l 1,23,-1
 920 146 l 2,24,25
 787 -14 787 -14 533 -14 c 0,26,27
 314 -14 314 -14 194 122 c 0,28,29
 69 260 69 260 69 490 c 0,30,31
 69 711 69 711 188 848 c 0,32,33
 314 993 314 993 566 993 c 0,34,35
 688 993 688 993 767 957.5 c 128,-1,36
 846 922 846 922 908 858 c 2,37,-1
 922 843 l 1,0,-1
EndSplineSet
Validated: 1
Substitution2: "sous-table 'smcp' Bas-de-casse vers petites capitales dans Latin lookup 0" c.smcp
Substitution2: "sous-table 'ordn' Ordinaux dans Latin lookup 39" c.superior
Substitution2: "sous-table 'sups' Exposant lookups25" c.superior
EndChar

StartChar: ccedilla
Encoding: 231 231 50
Width: 966
GlyphClass: 2
Flags: W
AnchorPoint: "Ancre-0" 500 1122 basechar 0
AnchorPoint: "Ancre-1" 500 -300 basechar 0
AnchorPoint: "Ancre-2" 866 1515 basechar 0
AnchorPoint: "Ancre-3" 866 -510 basechar 0
AnchorPoint: "Ancre-5" 866 1122 basechar 0
LayerCount: 2
Fore
SplineSet
574 -183 m 0,0,1
 574 -163 574 -163 541.5 -152.5 c 128,-1,2
 509 -142 509 -142 432 -132 c 2,3,-1
 399 -128 l 1,4,-1
 442 -7 l 1,5,6
 277 17 277 17 178 138 c 0,7,8
 69 272 69 272 69 489 c 0,9,10
 69 712 69 712 188 847 c 0,11,12
 315 993 315 993 566 993 c 0,13,14
 688 993 688 993 767 957.5 c 128,-1,15
 846 922 846 922 908 858 c 1,16,-1
 922 843 l 1,17,-1
 864 762 l 2,18,19
 841 730 841 730 812.5 730 c 128,-1,20
 784 730 784 730 765 744 c 0,21,22
 679 807 679 807 594 807 c 0,23,24
 299 807 299 807 299 485 c 0,25,26
 300 246 300 246 458 182 c 0,27,28
 508 162 508 162 568 162 c 0,29,30
 686 162 686 162 767 232 c 0,31,32
 791 252 791 252 820.5 252 c 128,-1,33
 850 252 850 252 870 227 c 2,34,-1
 933 152 l 1,35,36
 822 14 822 14 621 -9 c 1,37,-1
 614 -29 l 1,38,39
 696 -48 696 -48 736.5 -85 c 128,-1,40
 777 -122 777 -122 777 -172 c 0,41,42
 777 -261 777 -261 709 -304 c 0,43,44
 642 -344 642 -344 529 -344 c 0,45,46
 440 -344 440 -344 361 -312 c 1,47,-1
 339 -302 l 1,48,-1
 366 -227 l 1,49,50
 380 -193 380 -193 420 -193 c 1,51,52
 434 -194 434 -194 444 -198 c 0,53,54
 482 -216 482 -216 526 -216 c 0,55,56
 526 -216 526 -216 528 -216 c 0,57,58
 574 -216 574 -216 574 -183 c 0,0,1
EndSplineSet
Validated: 1
Substitution2: "sous-table 'smcp' Bas-de-casse vers petites capitales dans Latin lookup 0" ccedilla.smcp
LCarets2: 1 0
Ligature2: "sous-table 'ccmp' Composition et d+AOkA-composition de glyphe (CJK) lookups10" c uni0327
EndChar

StartChar: c_h.dlig
Encoding: 1114114 -1 51
Width: 2003
GlyphClass: 3
Flags: W
LayerCount: 2
Fore
SplineSet
1473 854 m 0,0,1
 1344 854 1344 854 1232 735 c 1,2,-1
 1232 0 l 1,3,-1
 997 0 l 1,4,-1
 997 1305 l 1,5,6
 980 1332 980 1332 938 1349.5 c 128,-1,7
 896 1367 896 1367 843 1367 c 128,-1,8
 790 1367 790 1367 755 1352 c 0,9,10
 654 1309 654 1309 654 1197 c 0,11,12
 654 1097 654 1097 783 971 c 0,13,14
 821 934 821 934 860 898 c 1,15,-1
 895 868 l 1,16,-1
 834 787 l 2,17,18
 809 755 809 755 779.5 755 c 128,-1,19
 750 755 750 755 730 769 c 0,20,21
 642 832 642 832 566 832 c 0,22,23
 368 832 368 832 316 644 c 0,24,25
 299 581 299 581 299 500.5 c 128,-1,26
 299 420 299 420 317 358 c 128,-1,27
 335 296 335 296 367 255 c 0,28,29
 432 172 432 172 544 172 c 0,30,31
 648 172 648 172 733 246 c 0,32,33
 758 268 758 268 788.5 268 c 128,-1,34
 819 268 819 268 840 241 c 1,35,-1
 906 162 l 1,36,-1
 892 146 l 1,37,38
 755 -14 755 -14 511 -14 c 1,39,40
 312 -14 312 -14 194 124 c 0,41,42
 69 266 69 266 69 502 c 0,43,44
 69 732 69 732 188 871 c 0,45,46
 312 1018 312 1018 541 1018 c 0,47,48
 559 1018 559 1018 578 1017 c 1,49,50
 514 1115 514 1115 514 1189 c 0,51,52
 514 1406 514 1406 723 1483 c 0,53,54
 791 1508 791 1508 870 1508 c 128,-1,55
 949 1508 949 1508 1003 1494 c 1,56,57
 1055 1492 1055 1492 1094 1488.5 c 128,-1,58
 1133 1485 1133 1485 1163 1483 c 1,59,60
 1187 1471 1187 1471 1206 1471 c 2,61,-1
 1232 1471 l 1,62,-1
 1232 908 l 1,63,64
 1364 1018 1364 1018 1526 1018 c 0,65,66
 1700 1018 1700 1018 1791 910 c 0,67,68
 1879 808 1879 808 1879 632 c 2,69,-1
 1879 0 l 1,70,-1
 1653 0 l 1,71,-1
 1653 648 l 2,72,73
 1653 854 1653 854 1473 854 c 0,0,1
EndSplineSet
Validated: 1
LCarets2: 1 0
Ligature2: "sous-table 'dlig' Ligatures facultatives  dans Latin lookup 36" c h
EndChar

StartChar: c_k.dlig
Encoding: 1114115 -1 52
Width: 1857
GlyphClass: 3
Flags: W
LayerCount: 2
Fore
SplineSet
1495 587 m 1,0,-1
 1457 553 l 1,1,-1
 1496 511 l 1,2,-1
 1496 510 l 1,3,-1
 1854 -0 l 1,4,-1
 1649 0 l 2,5,6
 1593 0 1593 0 1561 42 c 1,7,-1
 1283 421 l 2,8,9
 1272 435 1272 435 1265 438.5 c 128,-1,10
 1258 442 1258 442 1236 442 c 2,11,-1
 1215 442 l 1,12,-1
 1215 0 l 1,13,-1
 980 0 l 1,14,-1
 980 1305 l 1,15,16
 963 1332 963 1332 921 1349.5 c 128,-1,17
 879 1367 879 1367 826 1367 c 128,-1,18
 773 1367 773 1367 738 1352 c 0,19,20
 640 1310 640 1310 636 1197 c 0,21,22
 636 1100 636 1100 779 971 c 0,23,24
 820 934 820 934 860 898 c 1,25,-1
 896 868 l 1,26,-1
 834 787 l 2,27,28
 809 755 809 755 780 755 c 128,-1,29
 751 755 751 755 731 769 c 0,30,31
 712 782 712 782 688 796 c 0,32,33
 626 832 626 832 558 832 c 0,34,35
 369 832 369 832 316 644 c 0,36,37
 299 581 299 581 299 500.5 c 128,-1,38
 299 420 299 420 317 358 c 128,-1,39
 335 296 335 296 367 255 c 0,40,41
 432 172 432 172 544 172 c 0,42,43
 648 172 648 172 733 246 c 0,44,45
 758 268 758 268 788.5 268 c 128,-1,46
 819 268 819 268 840 241 c 1,47,-1
 906 162 l 1,48,-1
 893 146 l 1,49,50
 756 -14 756 -14 512 -14 c 1,51,52
 312 -14 312 -14 194 124 c 0,53,54
 69 266 69 266 69 502 c 0,55,56
 69 732 69 732 188 871 c 0,57,58
 312 1018 312 1018 541 1018 c 0,59,60
 554 1018 554 1018 567 1017 c 1,61,62
 496 1116 496 1116 496 1190.5 c 128,-1,63
 496 1265 496 1265 520 1319.5 c 128,-1,64
 544 1374 544 1374 591 1416 c 0,65,66
 694 1508 694 1508 862 1508 c 0,67,68
 932 1508 932 1508 986 1494 c 1,69,70
 1038 1492 1038 1492 1077 1488.5 c 128,-1,71
 1116 1485 1116 1485 1146 1483 c 1,72,73
 1170 1472 1170 1472 1189 1472 c 2,74,-1
 1215 1472 l 1,75,-1
 1215 611 l 1,76,-1
 1230 611 l 2,77,78
 1254 611 1254 611 1267 628 c 2,79,-1
 1538 959 l 1,80,-1
 1538 960 l 1,81,82
 1579 1003 1579 1003 1627 1003 c 2,83,-1
 1839 1003 l 1,84,-1
 1495 588 l 1,85,-1
 1495 587 l 1,0,-1
EndSplineSet
Validated: 1
Ligature2: "sous-table 'dlig' Ligatures facultatives  dans Latin lookup 36" c k
EndChar

StartChar: c_t.dlig
Encoding: 1114116 -1 53
Width: 1637
GlyphClass: 3
Flags: W
LayerCount: 2
Fore
SplineSet
581 1017 m 1,0,1
 547 1093 547 1093 547 1167 c 0,2,3
 547 1231 547 1231 573 1294 c 0,4,5
 625 1424 625 1424 773 1480 c 0,6,7
 848 1508 848 1508 944 1508 c 0,8,9
 1126 1508 1126 1508 1225 1408 c 0,10,11
 1313 1318 1313 1318 1313 1185 c 2,12,-1
 1313 985 l 1,13,-1
 1579 985 l 1,14,-1
 1579 807 l 1,15,-1
 1313 807 l 1,16,-1
 1313 269 l 2,17,18
 1313 221 1313 221 1334 199.5 c 128,-1,19
 1355 178 1355 178 1381 178 c 0,20,21
 1420 178 1420 178 1439 191.5 c 128,-1,22
 1458 205 1458 205 1470.5 214.5 c 128,-1,23
 1483 224 1483 224 1505.5 224 c 128,-1,24
 1528 224 1528 224 1545 195 c 2,25,-1
 1608 94 l 1,26,-1
 1593 80 l 2,27,28
 1492 -15 1492 -15 1354.5 -15 c 128,-1,29
 1217 -15 1217 -15 1146 55.5 c 128,-1,30
 1075 126 1075 126 1075 253 c 2,31,-1
 1075 807 l 1,32,-1
 988 807 l 2,33,34
 962 807 962 807 943 823.5 c 128,-1,35
 924 840 924 840 924 868 c 2,36,-1
 924 956 l 1,37,-1
 1094 977 l 1,38,39
 1134 1117 1134 1117 1134 1201 c 0,40,41
 1134 1383 1134 1383 945 1383 c 0,42,43
 943 1383 943 1383 942 1383 c 0,44,45
 823 1383 823 1383 754 1316 c 0,46,47
 691 1256 691 1256 691 1164 c 0,48,49
 691 1052 691 1052 786 953 c 1,50,51
 843 922 843 922 885 881 c 1,52,-1
 901 867 l 1,53,-1
 839 787 l 2,54,55
 814 755 814 755 784.5 755 c 128,-1,56
 755 755 755 755 735 769 c 0,57,58
 645 832 645 832 568 832 c 0,59,60
 299 832 299 832 299 497 c 0,61,62
 299 257 299 257 444 188 c 0,63,64
 488 167 488 167 546 167 c 0,65,66
 649 167 649 167 737 239 c 0,67,68
 762 260 762 260 793.5 260 c 128,-1,69
 825 260 825 260 845 234 c 1,70,-1
 898 172 l 1,71,-1
 912 157 l 1,72,-1
 898 142 l 1,73,74
 758 -14 758 -14 513 -14 c 0,75,76
 314 -14 314 -14 194 124 c 0,77,78
 69 266 69 266 69 502 c 0,79,80
 69 732 69 732 188 871 c 0,81,82
 312 1018 312 1018 543 1018 c 0,83,84
 562 1018 562 1018 581 1017 c 1,0,1
EndSplineSet
Validated: 1
Ligature2: "sous-table 'dlig' Ligatures facultatives  dans Latin lookup 36" c t
EndChar

StartChar: ccedilla_t.dlig
Encoding: 1114117 -1 54
Width: 1637
GlyphClass: 3
Flags: W
LayerCount: 2
Fore
SplineSet
581 1017 m 1,0,1
 547 1093 547 1093 547 1167 c 0,2,3
 547 1231 547 1231 573 1294 c 0,4,5
 625 1424 625 1424 773 1480 c 0,6,7
 848 1508 848 1508 944 1508 c 0,8,9
 1126 1508 1126 1508 1225 1408 c 0,10,11
 1313 1318 1313 1318 1313 1185 c 2,12,-1
 1313 985 l 1,13,-1
 1579 985 l 1,14,-1
 1579 807 l 1,15,-1
 1313 807 l 1,16,-1
 1313 248 l 2,17,18
 1313 198 1313 198 1334 175.5 c 128,-1,19
 1355 153 1355 153 1381 153 c 0,20,21
 1420 153 1420 153 1439 166.5 c 128,-1,22
 1458 180 1458 180 1470.5 189.5 c 128,-1,23
 1483 199 1483 199 1505.5 199 c 128,-1,24
 1528 199 1528 199 1545 170 c 2,25,-1
 1608 69 l 1,26,-1
 1593 55 l 2,27,28
 1492 -40 1492 -40 1354.5 -40 c 128,-1,29
 1217 -40 1217 -40 1146 32.5 c 128,-1,30
 1075 105 1075 105 1075 236 c 2,31,-1
 1075 807 l 1,32,-1
 988 807 l 2,33,34
 962 807 962 807 943 823.5 c 128,-1,35
 924 840 924 840 924 868 c 2,36,-1
 924 956 l 1,37,-1
 1094 977 l 1,38,39
 1134 1117 1134 1117 1134 1201 c 0,40,41
 1134 1383 1134 1383 945 1383 c 0,42,43
 943 1383 943 1383 942 1383 c 0,44,45
 823 1383 823 1383 754 1316 c 0,46,47
 691 1256 691 1256 691 1164 c 0,48,49
 691 1052 691 1052 786 953 c 1,50,51
 843 922 843 922 885 881 c 1,52,-1
 901 867 l 1,53,-1
 839 787 l 2,54,55
 814 755 814 755 784.5 755 c 128,-1,56
 755 755 755 755 735 769 c 0,57,58
 645 832 645 832 568 832 c 0,59,60
 299 832 299 832 299 494 c 0,61,62
 299 252 299 252 444 182 c 0,63,64
 486 161 486 161 541 161 c 0,65,66
 543 161 543 161 546 161 c 0,67,68
 648 161 648 161 737 234 c 0,69,70
 762 255 762 255 793.5 255 c 128,-1,71
 825 255 825 255 845 229 c 1,72,-1
 911 152 l 1,73,-1
 898 136 l 1,74,75
 799 19 799 19 622 -11 c 1,76,-1
 615 -35 l 1,77,78
 787 -74 787 -74 787 -188 c 0,79,80
 787 -260 787 -260 713 -305 c 0,81,82
 647 -344 647 -344 540 -344 c 0,83,84
 454 -344 454 -344 381 -312 c 1,85,-1
 360 -302 l 1,86,-1
 385 -227 l 1,87,88
 399 -193 399 -193 433 -193 c 0,89,90
 445 -194 445 -194 455 -198 c 0,91,92
 493 -216 493 -216 539 -216 c 0,93,94
 540 -216 540 -216 542 -216 c 0,95,96
 590 -216 590 -216 589 -184 c 0,97,98
 589 -164 589 -164 556.5 -153.5 c 128,-1,99
 524 -143 524 -143 449 -133 c 2,100,-1
 418 -129 l 1,101,-1
 458 -14 l 1,102,103
 291 4 291 4 187 128 c 0,104,105
 69 272 69 272 69 500 c 0,106,107
 69 729 69 729 188 870 c 0,108,109
 313 1018 313 1018 543 1018 c 0,110,111
 562 1018 562 1018 581 1017 c 1,0,1
EndSplineSet
Validated: 1
Ligature2: "sous-table 'dlig' Ligatures facultatives  dans Latin lookup 36" ccedilla t
EndChar

StartChar: d
Encoding: 100 100 55
Width: 1176
GlyphClass: 2
Flags: W
AnchorPoint: "Ancre-5" 1076 1492 basechar 0
AnchorPoint: "Ancre-3" 1076 -510 basechar 0
AnchorPoint: "Ancre-2" 1076 1515 basechar 0
AnchorPoint: "Ancre-1" 461 0 basechar 0
AnchorPoint: "Ancre-0" 527 1492 basechar 0
LayerCount: 2
Fore
SplineSet
104 684 m 0,0,1
 204 995 204 995 563 995 c 0,2,3
 701 995 701 995 806 915 c 1,4,-1
 806 1422 l 1,5,-1
 1032 1422 l 1,6,-1
 1032 0 l 1,7,-1
 902 0 l 2,8,9
 840 0 840 0 832 58 c 1,10,-1
 822 122 l 1,11,12
 683 -14 683 -14 482 -14 c 1,13,14
 285 -14 285 -14 179 119 c 0,15,16
 74 249 74 249 74 486 c 0,17,18
 74 592 74 592 104 684 c 0,0,1
806 720 m 1,19,20
 725 810 725 810 587.5 810 c 128,-1,21
 450 810 450 810 377.5 727.5 c 128,-1,22
 305 645 305 645 305 487 c 0,23,24
 305 245 305 245 444 194 c 0,25,26
 489 177 489 177 546 177 c 0,27,28
 695 177 695 177 806 297 c 1,29,-1
 806 720 l 1,19,20
EndSplineSet
Validated: 1
Substitution2: "sous-table 'smcp' Bas-de-casse vers petites capitales dans Latin lookup 0" d.smcp
Substitution2: "sous-table 'ordn' Ordinaux dans Latin lookup 39" d.superior
Substitution2: "sous-table 'sups' Exposant lookups25" d.superior
EndChar

StartChar: dcroat
Encoding: 273 273 57
Width: 1230
GlyphClass: 2
Flags: W
AnchorPoint: "Ancre-0" 527 1492 basechar 0
AnchorPoint: "Ancre-1" 461 0 basechar 0
AnchorPoint: "Ancre-2" 1076 1515 basechar 0
AnchorPoint: "Ancre-3" 1076 -510 basechar 0
AnchorPoint: "Ancre-5" 1076 1492 basechar 0
LayerCount: 2
Fore
SplineSet
562 974 m 0,0,1
 727 974 727 974 839 889 c 1,2,-1
 839 1052 l 1,3,-1
 581 1052 l 1,4,-1
 581 1214 l 1,5,-1
 839 1214 l 1,6,-1
 839 1422 l 1,7,-1
 1076 1422 l 1,8,-1
 1076 1214 l 1,9,-1
 1226 1214 l 1,10,-1
 1226 1052 l 1,11,-1
 1076 1052 l 1,12,-1
 1076 0 l 1,13,-1
 943 0 l 2,14,15
 876 0 876 0 868 58 c 1,16,-1
 857 125 l 1,17,18
 593 -15 593 -15 517 -15 c 0,19,20
 510 -15 510 -15 505 -14 c 1,21,22
 197 -14 197 -14 108 266 c 0,23,24
 79 356 79 356 79 469 c 0,25,26
 79 694 79 694 202 831 c 0,27,28
 332 974 332 974 562 974 c 0,0,1
605 788 m 0,29,30
 310 788 310 788 310 476 c 0,31,32
 310 240 310 240 455 193 c 0,33,34
 503 177 503 177 565 177 c 0,35,36
 721 177 721 177 839 299 c 1,37,-1
 839 697 l 1,38,39
 750 788 750 788 605 788 c 0,29,30
EndSplineSet
Validated: 1
Substitution2: "sous-table 'smcp' Bas-de-casse vers petites capitales dans Latin lookup 0" dcroat.smcp
EndChar

StartChar: eth
Encoding: 240 240 58
Width: 1176
GlyphClass: 2
Flags: W
LayerCount: 2
Fore
SplineSet
855 1157 m 1,0,1
 1097 937 1097 937 1097 581 c 0,2,3
 1097 152 1097 152 811 29 c 0,4,5
 708 -13 708 -13 586 -13 c 0,6,7
 464 -12 464 -12 371 20 c 0,8,9
 186 85 186 85 111 260 c 0,10,11
 75 346 75 346 75 445 c 0,12,13
 75 641 75 641 198 768 c 0,14,15
 328 902 328 902 554 902 c 0,16,17
 741 902 741 902 866 802 c 1,18,19
 819 955 819 955 671 1047 c 1,20,-1
 468 912 l 1,21,-1
 415 990 l 2,22,23
 401 1011 401 1011 401 1030 c 0,24,25
 401 1061 401 1061 438 1086 c 1,26,-1
 505 1127 l 1,27,28
 443 1149 443 1149 343 1173 c 0,29,30
 308 1181 308 1181 293 1204.5 c 128,-1,31
 278 1228 278 1228 278 1248 c 128,-1,32
 278 1268 278 1268 285 1288 c 2,33,-1
 313 1369 l 1,34,-1
 335 1366 l 1,35,36
 549 1335 549 1335 710 1251 c 1,37,-1
 871 1358 l 1,38,-1
 893 1374 l 1,39,-1
 942 1295 l 2,40,41
 959 1269 959 1269 952 1243 c 128,-1,42
 945 1217 945 1217 921 1201 c 2,43,-1
 855 1157 l 1,0,1
587 173 m 128,-1,45
 715 173 715 173 796 267 c 0,46,47
 876 363 876 363 882 563 c 1,48,49
 832 695 832 695 700 743 c 0,50,51
 653 759 653 759 585.5 759 c 128,-1,52
 518 759 518 759 464 737 c 0,53,54
 300 670 300 670 300 474 c 0,55,56
 300 330 300 330 379.5 251.5 c 128,-1,44
 459 173 459 173 587 173 c 128,-1,45
EndSplineSet
Validated: 1
Substitution2: "sous-table 'smcp' Bas-de-casse vers petites capitales dans Latin lookup 0" eth.smcp
EndChar

StartChar: e
Encoding: 101 101 59
Width: 1119
GlyphClass: 2
Flags: W
AnchorPoint: "Ancre-5" 1019 1122 basechar 0
AnchorPoint: "Ancre-4" 864 550 basechar 0
AnchorPoint: "Ancre-3" 1019 -510 basechar 0
AnchorPoint: "Ancre-2" 1019 1515 basechar 0
AnchorPoint: "Ancre-1" 520 0 basechar 0
AnchorPoint: "Ancre-0" 536 1122 basechar 0
LayerCount: 2
Fore
SplineSet
588 993 m 0,0,1
 909 993 909 993 1012 737 c 0,2,3
 1045 656 1045 656 1045 581 c 128,-1,4
 1045 506 1045 506 1030.5 484.5 c 128,-1,5
 1016 463 1016 463 978 463 c 2,6,-1
 300 463 l 1,7,8
 313 251 313 251 486 193 c 0,9,10
 544 174 544 174 613 174 c 0,11,12
 750 174 750 174 869 250 c 0,13,14
 898 268 898 268 919 268 c 0,15,16
 955 268 955 268 975 241 c 2,17,-1
 1037 161 l 1,18,19
 885 -14 885 -14 598 -14 c 0,20,21
 226 -14 226 -14 111 287 c 0,22,23
 75 383 75 383 75 496 c 0,24,25
 75 716 75 716 207.5 854.5 c 128,-1,26
 340 993 340 993 588 993 c 0,0,1
836 596 m 1,27,28
 825 747 825 747 697 797 c 0,29,30
 650 815 650 815 591 815 c 0,31,32
 465 815 465 815 397.5 753.5 c 128,-1,33
 330 692 330 692 309 596 c 1,34,-1
 836 596 l 1,27,28
EndSplineSet
Validated: 1
Substitution2: "sous-table 'smcp' Bas-de-casse vers petites capitales dans Latin lookup 0" e.smcp
Substitution2: "sous-table 'ordn' Ordinaux dans Latin lookup 39" e.superior
Substitution2: "sous-table 'sups' Exposant lookups25" e.superior
EndChar

StartChar: eogonek
Encoding: 281 281 60
Width: 1119
GlyphClass: 2
Flags: W
AnchorPoint: "Ancre-5" 1019 1122 basechar 0
AnchorPoint: "Ancre-4" 864 550 basechar 0
AnchorPoint: "Ancre-3" 1019 -510 basechar 0
AnchorPoint: "Ancre-2" 1019 1515 basechar 0
AnchorPoint: "Ancre-1" 520 -300 basechar 0
AnchorPoint: "Ancre-0" 536 1122 basechar 0
LayerCount: 2
Fore
SplineSet
799 -164 m 0,0,1
 816 -153 816 -153 828 -153 c 0,2,3
 857 -153 857 -153 868 -180 c 2,4,-1
 895 -245 l 1,5,-1
 902 -263 l 1,6,7
 818 -330 818 -330 703 -330 c 128,-1,8
 588 -330 588 -330 525 -285.5 c 128,-1,9
 462 -241 462 -241 462 -162.5 c 128,-1,10
 462 -84 462 -84 541 -12 c 1,11,12
 215 14 215 14 111 287 c 0,13,14
 75 383 75 383 75 496 c 128,-1,15
 75 609 75 609 108 697 c 0,16,17
 177 882 177 882 362 954 c 0,18,19
 463 993 463 993 577 993 c 0,20,21
 690 993 690 993 776 963 c 0,22,23
 944 904 944 904 1012 737 c 0,24,25
 1045 656 1045 656 1045 581 c 128,-1,26
 1045 506 1045 506 1030.5 484.5 c 128,-1,27
 1016 463 1016 463 978 463 c 2,28,-1
 300 463 l 1,29,30
 313 251 313 251 486 193 c 0,31,32
 544 174 544 174 613 174 c 0,33,34
 750 174 750 174 869 250 c 0,35,36
 898 268 898 268 919 268 c 0,37,38
 955 268 955 268 975 241 c 2,39,-1
 1037 161 l 1,40,41
 973 88 973 88 910.5 55.5 c 128,-1,42
 848 23 848 23 782 7 c 1,43,-1
 736 -21 l 1,44,45
 665 -70 665 -70 665 -122.5 c 128,-1,46
 665 -175 665 -175 724 -175 c 128,-1,47
 783 -175 783 -175 799 -164 c 0,0,1
836 596 m 1,48,49
 825 747 825 747 697 797 c 0,50,51
 650 815 650 815 591 815 c 0,52,53
 465 815 465 815 397.5 753.5 c 128,-1,54
 330 692 330 692 309 596 c 1,55,-1
 836 596 l 1,48,49
EndSplineSet
Validated: 1
Substitution2: "sous-table 'smcp' Bas-de-casse vers petites capitales dans Latin lookup 0" eogonek.smcp
LCarets2: 1 0
Ligature2: "sous-table 'ccmp' Composition et d+AOkA-composition de glyphe (CJK) lookups10" e uni0328
EndChar

StartChar: f
Encoding: 102 102 61
Width: 675
GlyphClass: 2
Flags: W
AnchorPoint: "Ancre-5" 625 1538 basechar 0
AnchorPoint: "Ancre-3" 625 -510 basechar 0
AnchorPoint: "Ancre-2" 625 1515 basechar 0
AnchorPoint: "Ancre-1" 258 10 basechar 0
AnchorPoint: "Ancre-0" 415 1538 basechar 0
LayerCount: 2
Fore
SplineSet
170 1028 m 2,0,1
 170 1298 170 1298 374 1378 c 0,2,3
 438 1404 438 1404 510.5 1404 c 128,-1,4
 583 1404 583 1404 662 1379 c 1,5,-1
 656 1270 l 1,6,7
 652 1226 652 1226 610 1222 c 0,8,9
 586 1219 586 1219 548 1219 c 0,10,11
 471 1219 471 1219 433 1179 c 0,12,13
 390 1132 390 1132 390 1023 c 2,14,-1
 390 960 l 1,15,-1
 653 960 l 1,16,-1
 653 782 l 1,17,-1
 396 782 l 1,18,-1
 396 0 l 1,19,-1
 170 0 l 1,20,-1
 170 793 l 1,21,-1
 93 803 l 1,22,23
 44 808 44 808 30 842 c 0,24,25
 24 854 24 854 24 868 c 2,26,-1
 24 960 l 1,27,-1
 170 960 l 1,28,-1
 170 1028 l 2,0,1
EndSplineSet
Validated: 1
Substitution2: "sous-table 'smcp' Bas-de-casse vers petites capitales dans Latin lookup 0" f.smcp
Substitution2: "sous-table 'ordn' Ordinaux dans Latin lookup 39" f.superior
Substitution2: "sous-table 'sups' Exposant lookups25" f.superior
EndChar

StartChar: f_b.liga
Encoding: 1114118 -1 62
Width: 1790
GlyphClass: 3
Flags: W
LayerCount: 2
Fore
SplineSet
1280 -14 m 1,0,1
 1119 -14 1119 -14 1012 90 c 1,2,-1
 1008 59 l 2,3,4
 1005 32 1005 32 985.5 16 c 128,-1,5
 966 0 966 0 937 0 c 2,6,-1
 793 0 l 1,7,-1
 793 1258 l 1,8,9
 716 1276 716 1276 651 1276 c 0,10,11
 464 1276 464 1276 415 1133 c 0,12,13
 399 1088 399 1088 399 1034 c 2,14,-1
 399 985 l 1,15,-1
 681 985 l 1,16,-1
 681 807 l 1,17,-1
 406 807 l 1,18,-1
 406 0 l 1,19,-1
 174 0 l 1,20,-1
 174 813 l 1,21,-1
 94 823 l 1,22,23
 46 828 46 828 30 864 c 0,24,25
 24 876 24 876 25 890 c 2,26,-1
 25 985 l 1,27,-1
 174 985 l 1,28,-1
 174 1035 l 2,29,30
 174 1327 174 1327 440 1412 c 0,31,32
 533 1442 533 1442 619 1442 c 0,33,34
 726 1442 726 1442 792 1436 c 0,35,36
 915 1424 915 1424 987 1422 c 1,37,-1
 1082 1422 l 1,38,-1
 1028 1383 l 1,39,-1
 1028 901 l 1,40,41
 1253 1019 1253 1019 1320 1019 c 0,42,43
 1326 1019 1326 1019 1330 1018 c 1,44,45
 1516 1018 1516 1018 1625 884 c 0,46,47
 1729 753 1729 753 1729 526 c 0,48,49
 1729 282 1729 282 1612 137 c 0,50,51
 1490 -14 1490 -14 1280 -14 c 1,0,1
1498 520 m 0,52,53
 1498 829 1498 829 1268 829 c 0,54,55
 1128 829 1128 829 1028 704 c 1,56,-1
 1028 266 l 1,57,58
 1105 172 1105 172 1234 172 c 1,59,60
 1498 172 1498 172 1498 520 c 0,52,53
EndSplineSet
Validated: 1
Ligature2: "sous-table 'liga' Ligatures standard dans Latin lookup 37" f b
EndChar

StartChar: f_f_b.liga
Encoding: 1114119 -1 63
Width: 2361
GlyphClass: 3
Flags: W
LayerCount: 2
Fore
SplineSet
1377 1259 m 1,0,1
 1298 1276 1298 1276 1239 1276 c 0,2,3
 1063 1276 1063 1276 1014 1133 c 0,4,5
 999 1088 999 1088 998 1034 c 1,6,-1
 998 985 l 1,7,-1
 1272 985 l 1,8,-1
 1272 807 l 1,9,-1
 1005 807 l 1,10,-1
 1005 0 l 1,11,-1
 772 0 l 1,12,-1
 772 807 l 1,13,-1
 402 807 l 1,14,-1
 402 0 l 1,15,-1
 172 0 l 1,16,-1
 172 813 l 1,17,-1
 93 823 l 1,18,19
 46 828 46 828 30 864 c 0,20,21
 24 876 24 876 25 890 c 2,22,-1
 25 985 l 1,23,-1
 172 985 l 1,24,-1
 172 1038 l 2,25,26
 172 1311 172 1311 383 1389 c 0,27,28
 450 1414 450 1414 525.5 1414 c 128,-1,29
 601 1414 601 1414 679 1388 c 1,30,-1
 673 1280 l 1,31,32
 669 1237 669 1237 626 1232 c 0,33,34
 602 1229 602 1229 562 1229 c 0,35,36
 480 1229 480 1229 440 1189 c 0,37,38
 397 1144 397 1144 395 1033 c 1,39,-1
 395 985 l 1,40,-1
 772 985 l 1,41,-1
 772 1035 l 2,42,43
 772 1327 772 1327 1037 1412 c 0,44,45
 1128 1442 1128 1442 1214 1442 c 0,46,47
 1318 1442 1318 1442 1388 1435 c 0,48,49
 1517 1422 1517 1422 1592 1422 c 2,50,-1
 1660 1422 l 1,51,-1
 1609 1381 l 1,52,-1
 1609 901 l 1,53,54
 1737 1018 1737 1018 1907 1018 c 0,55,56
 2091 1018 2091 1018 2200 884 c 0,57,58
 2304 753 2304 753 2304 526 c 0,59,60
 2304 218 2304 218 2123 73 c 0,61,62
 2014 -14 2014 -14 1858 -14 c 128,-1,63
 1702 -14 1702 -14 1593 90 c 1,64,-1
 1590 59 l 2,65,66
 1587 32 1587 32 1567.5 16 c 128,-1,67
 1548 0 1548 0 1520 0 c 2,68,-1
 1377 0 l 1,69,-1
 1377 1259 l 1,0,1
2073 520 m 0,70,71
 2073 829 2073 829 1846 829 c 0,72,73
 1709 829 1709 829 1609 704 c 1,74,-1
 1609 266 l 1,75,76
 1685 172 1685 172 1812 172 c 0,77,78
 2073 172 2073 172 2073 520 c 0,70,71
EndSplineSet
Validated: 1
Ligature2: "sous-table 'liga' Ligatures standard dans Latin lookup 37" f f b
EndChar

StartChar: uniFB00
Encoding: 64256 64256 64
Width: 1295
GlyphClass: 3
Flags: W
LayerCount: 2
Fore
SplineSet
1133 1415 m 0,0,1
 1203 1415 1203 1415 1283 1387 c 1,2,-1
 1277 1281 l 1,3,4
 1273 1237 1273 1237 1231 1233 c 0,5,6
 1208 1230 1208 1230 1170 1230 c 0,7,8
 1093 1230 1093 1230 1057 1190 c 0,9,10
 1012 1140 1012 1140 1012 1033 c 2,11,-1
 1012 960 l 1,12,-1
 1273 960 l 1,13,-1
 1273 782 l 1,14,-1
 1019 782 l 1,15,-1
 1019 0 l 1,16,-1
 777 0 l 1,17,-1
 777 782 l 1,18,-1
 403 782 l 1,19,-1
 403 0 l 1,20,-1
 168 0 l 1,21,-1
 168 793 l 1,22,-1
 93 803 l 1,23,24
 44 808 44 808 30 842 c 0,25,26
 24 854 24 854 24 868 c 2,27,-1
 24 960 l 1,28,-1
 168 960 l 1,29,-1
 168 1013 l 2,30,31
 168 1288 168 1288 379 1364 c 0,32,33
 447 1389 447 1389 524.5 1389 c 128,-1,34
 602 1389 602 1389 684 1363 c 1,35,-1
 678 1255 l 1,36,37
 674 1212 674 1212 629 1207 c 0,38,39
 604 1204 604 1204 564 1204 c 0,40,41
 441 1204 441 1204 409 1105 c 0,42,43
 396 1066 396 1066 396 1008 c 2,44,-1
 396 960 l 1,45,-1
 777 960 l 1,46,-1
 777 1039 l 2,47,48
 777 1213 777 1213 877 1314 c 128,-1,49
 977 1415 977 1415 1133 1415 c 0,0,1
EndSplineSet
Validated: 1
Ligature2: "sous-table 'liga' Ligatures standard dans Latin lookup 37" f f
EndChar

StartChar: f_h.liga
Encoding: 1114120 -1 65
Width: 1791
GlyphClass: 3
Flags: W
LayerCount: 2
Fore
SplineSet
1259 829 m 0,0,1
 1128 829 1128 829 1016 713 c 1,2,-1
 1016 0 l 1,3,-1
 780 0 l 1,4,-1
 780 1261 l 1,5,6
 712 1276 712 1276 650 1276 c 0,7,8
 463 1276 463 1276 414 1133 c 0,9,10
 399 1091 399 1091 399 1064 c 2,11,-1
 399 985 l 1,12,-1
 681 985 l 1,13,-1
 681 807 l 1,14,-1
 405 807 l 1,15,-1
 405 0 l 1,16,-1
 173 0 l 1,17,-1
 173 813 l 1,18,-1
 94 823 l 2,19,20
 44 830 44 830 30 864 c 0,21,22
 24 876 24 876 25 890 c 2,23,-1
 25 985 l 1,24,-1
 173 985 l 1,25,-1
 173 1035 l 2,26,27
 173 1328 173 1328 440 1412 c 0,28,29
 534 1442 534 1442 620 1442 c 0,30,31
 728 1442 728 1442 792 1436 c 0,32,33
 926 1422 926 1422 987 1422 c 2,34,-1
 1015 1422 l 1,35,-1
 1016 908 l 1,36,37
 1148 1018 1148 1018 1312 1018 c 0,38,39
 1487 1018 1487 1018 1578 910 c 0,40,41
 1666 808 1666 808 1666 633 c 2,42,-1
 1666 0 l 1,43,-1
 1440 0 l 1,44,-1
 1440 629 l 2,45,46
 1440 829 1440 829 1259 829 c 0,0,1
EndSplineSet
Validated: 1
LCarets2: 1 0
Ligature2: "sous-table 'liga' Ligatures standard dans Latin lookup 37" f h
EndChar

StartChar: f_f_h.liga
Encoding: 1114121 -1 66
Width: 2361
GlyphClass: 3
Flags: W
LayerCount: 2
Fore
SplineSet
1378 1259 m 1,0,1
 1299 1276 1299 1276 1240 1276 c 0,2,3
 1063 1276 1063 1276 1014 1133 c 0,4,5
 999 1088 999 1088 999 1034 c 2,6,-1
 999 985 l 1,7,-1
 1273 985 l 1,8,-1
 1273 807 l 1,9,-1
 1005 807 l 1,10,-1
 1005 0 l 1,11,-1
 772 0 l 1,12,-1
 772 807 l 1,13,-1
 402 807 l 1,14,-1
 402 0 l 1,15,-1
 172 0 l 1,16,-1
 172 813 l 1,17,-1
 93 823 l 1,18,19
 46 828 46 828 30 864 c 0,20,21
 24 876 24 876 25 890 c 2,22,-1
 25 985 l 1,23,-1
 172 985 l 1,24,-1
 172 1038 l 2,25,26
 172 1311 172 1311 383 1389 c 0,27,28
 450 1414 450 1414 524 1414 c 128,-1,29
 598 1414 598 1414 680 1388 c 1,30,-1
 674 1280 l 1,31,32
 670 1236 670 1236 626 1232 c 0,33,34
 602 1229 602 1229 562 1229 c 0,35,36
 479 1229 479 1229 441 1189 c 0,37,38
 396 1142 396 1142 396 1033 c 2,39,-1
 396 985 l 1,40,-1
 772 985 l 1,41,-1
 772 1035 l 2,42,43
 772 1326 772 1326 1038 1412 c 0,44,45
 1130 1442 1130 1442 1215 1442 c 0,46,47
 1318 1442 1318 1442 1388 1435 c 0,48,49
 1517 1422 1517 1422 1593 1422 c 2,50,-1
 1662 1422 l 1,51,-1
 1611 1381 l 1,52,-1
 1611 908 l 1,53,54
 1659 948 1659 948 1726.5 983 c 128,-1,55
 1794 1018 1794 1018 1892 1018 c 0,56,57
 2161 1018 2161 1018 2232 787 c 0,58,59
 2254 717 2254 717 2254 633 c 2,60,-1
 2254 0 l 1,61,-1
 2028 0 l 1,62,-1
 2028 629 l 2,63,64
 2028 829 2028 829 1849 829 c 0,65,66
 1720 829 1720 829 1611 713 c 1,67,-1
 1611 0 l 1,68,-1
 1378 0 l 1,69,-1
 1378 1259 l 1,0,1
EndSplineSet
Validated: 1
Ligature2: "sous-table 'liga' Ligatures standard dans Latin lookup 37" f f h
EndChar

StartChar: f_igrave.liga
Encoding: 1114122 -1 68
Width: 1184
GlyphClass: 3
Flags: W
LayerCount: 2
Fore
SplineSet
601 1281 m 2,0,1
 601 1233 601 1233 513 1233 c 0,2,3
 453 1233 453 1233 424 1199 c 128,-1,4
 395 1165 395 1165 395 1079 c 2,5,-1
 395 985 l 1,6,-1
 1026 985 l 1,7,-1
 1026 0 l 1,8,-1
 800 0 l 1,9,-1
 800 807 l 1,10,-1
 401 807 l 1,11,-1
 401 0 l 1,12,-1
 175 0 l 1,13,-1
 175 813 l 1,14,-1
 93 823 l 1,15,16
 24 833 24 833 24 890 c 2,17,-1
 24 985 l 1,18,-1
 175 985 l 1,19,-1
 175 1081 l 2,20,21
 175 1241 175 1241 253.5 1326.5 c 128,-1,22
 332 1412 332 1412 484 1412 c 0,23,24
 531 1412 531 1412 543 1409 c 2,25,-1
 585 1400 l 1,26,-1
 762 1399 l 2,27,28
 806 1399 806 1399 827.5 1385.5 c 128,-1,29
 849 1372 849 1372 865 1344 c 1,30,-1
 1032 1073 l 1,31,-1
 887 1073 l 2,32,33
 842 1073 842 1073 809 1108 c 1,34,-1
 601 1309 l 1,35,-1
 601 1281 l 2,0,1
EndSplineSet
Validated: 1
LCarets2: 1 0
Ligature2: "sous-table 'liga' Ligatures standard dans Latin lookup 37" f igrave
EndChar

StartChar: f_icircumflex.liga
Encoding: 1114123 -1 69
Width: 1184
GlyphClass: 3
Flags: W
LayerCount: 2
Fore
SplineSet
598 1281 m 2,0,1
 598 1233 598 1233 528 1233 c 128,-1,2
 458 1233 458 1233 431 1199 c 128,-1,3
 404 1165 404 1165 404 1079 c 2,4,-1
 404 985 l 1,5,-1
 1026 985 l 1,6,-1
 1026 0 l 1,7,-1
 784 0 l 1,8,-1
 784 807 l 1,9,-1
 410 807 l 1,10,-1
 410 0 l 1,11,-1
 175 0 l 1,12,-1
 175 813 l 1,13,-1
 94 823 l 2,14,15
 46 828 46 828 30 864 c 0,16,17
 24 876 24 876 24 890 c 2,18,-1
 24 985 l 1,19,-1
 175 985 l 1,20,-1
 175 1081 l 2,21,22
 175 1241 175 1241 253 1326 c 0,23,24
 337 1412 337 1412 488 1412 c 0,25,26
 547 1412 547 1412 598 1395 c 1,27,-1
 598 1281 l 2,0,1
1271 1103 m 1,28,-1
 1099 1103 l 2,29,30
 1064 1103 1064 1103 1037 1130 c 2,31,-1
 913 1253 l 1,32,-1
 788 1130 l 2,33,34
 761 1103 761 1103 722 1103 c 2,35,-1
 533 1103 l 1,36,-1
 811 1408 l 1,37,-1
 1009 1408 l 1,38,-1
 1271 1103 l 1,28,-1
EndSplineSet
Validated: 1
Ligature2: "sous-table 'liga' Ligatures standard dans Latin lookup 37" f icircumflex
EndChar

StartChar: f_itilde.liga
Encoding: 1114124 -1 70
Width: 1153
GlyphClass: 3
Flags: W
LayerCount: 2
Fore
SplineSet
906 1319 m 2,0,-1
 919 1319 l 2,1,2
 965 1319 965 1319 979 1356 c 0,3,4
 984 1369 984 1369 989 1390 c 1,5,-1
 1127 1390 l 1,6,7
 1127 1281 1127 1281 1069.5 1213 c 128,-1,8
 1012 1145 1012 1145 923 1145 c 0,9,10
 873 1145 873 1145 824 1171 c 128,-1,11
 775 1197 775 1197 752.5 1209 c 128,-1,12
 730 1221 730 1221 704 1221 c 0,13,14
 654 1221 654 1221 631 1150 c 1,15,-1
 498 1150 l 1,16,17
 498 1195 498 1195 508 1233 c 1,18,19
 506 1233 506 1233 504 1233 c 0,20,21
 445 1233 445 1233 417 1199 c 128,-1,22
 389 1165 389 1165 389 1079 c 2,23,-1
 389 985 l 1,24,-1
 1006 985 l 1,25,-1
 1006 0 l 1,26,-1
 780 0 l 1,27,-1
 780 807 l 1,28,-1
 395 807 l 1,29,-1
 395 0 l 1,30,-1
 155 0 l 1,31,-1
 155 813 l 1,32,-1
 74 823 l 2,33,34
 26 828 26 828 10 864 c 0,35,36
 4 876 4 876 4 890 c 2,37,-1
 4 985 l 1,38,-1
 155 985 l 1,39,-1
 155 1081 l 2,40,41
 155 1241 155 1241 233 1326 c 1,42,43
 319 1412 319 1412 476 1412 c 0,44,45
 538 1412 538 1412 589 1395 c 1,46,-1
 589 1360 l 1,47,48
 638 1397 638 1397 697.5 1397 c 128,-1,49
 757 1397 757 1397 804 1370 c 0,50,51
 893 1319 893 1319 906 1319 c 2,0,-1
EndSplineSet
Validated: 1
LCarets2: 1 0
Ligature2: "sous-table 'liga' Ligatures standard dans Latin lookup 37" f itilde
EndChar

StartChar: f_idieresis.liga
Encoding: 1114125 -1 71
Width: 1153
GlyphClass: 3
Flags: W
LayerCount: 2
Fore
SplineSet
559 1240 m 1,0,1
 545 1233 545 1233 495 1233 c 0,2,3
 389 1233 389 1233 389 1079 c 2,4,-1
 389 985 l 1,5,-1
 1006 985 l 1,6,-1
 1006 0 l 1,7,-1
 780 0 l 1,8,-1
 780 807 l 1,9,-1
 395 807 l 1,10,-1
 395 0 l 1,11,-1
 155 0 l 1,12,-1
 155 813 l 1,13,-1
 74 823 l 2,14,15
 4 832 4 832 4 890 c 2,16,-1
 4 985 l 1,17,-1
 155 985 l 1,18,-1
 155 1081 l 2,19,20
 155 1241 155 1241 233 1326 c 1,21,22
 319 1412 319 1412 476 1412 c 0,23,24
 538 1412 538 1412 589 1395 c 1,25,-1
 589 1317 l 2,26,27
 590 1320 590 1320 600 1328 c 0,28,29
 633 1356 633 1356 667 1356 c 0,30,31
 668 1356 l 0,32,33
 702 1356 702 1356 725 1346 c 128,-1,34
 748 1336 748 1336 764.5 1321.5 c 128,-1,35
 781 1307 781 1307 791 1287 c 128,-1,36
 801 1267 801 1267 801 1244 c 128,-1,37
 801 1221 801 1221 791 1201 c 0,38,39
 771 1161 771 1161 725 1143 c 1,40,41
 723 1139 723 1139 678.5 1139 c 128,-1,42
 634 1139 634 1139 632 1143 c 1,43,44
 590 1158 590 1158 568 1202 c 0,45,46
 559 1220 559 1220 559 1240 c 1,0,1
1094 1287 m 128,-1,48
 1104 1267 1104 1267 1104 1244 c 128,-1,49
 1104 1221 1104 1221 1094 1201 c 0,50,51
 1074 1161 1074 1161 1028 1143 c 1,52,53
 1025 1139 1025 1139 980.5 1139 c 128,-1,54
 936 1139 936 1139 935 1143 c 1,55,56
 892 1158 892 1158 872 1202 c 0,57,58
 862 1222 862 1222 862 1244.5 c 128,-1,59
 862 1267 862 1267 872 1287 c 0,60,61
 891 1327 891 1327 935 1345 c 0,62,63
 957 1355 957 1355 981.5 1355 c 128,-1,64
 1006 1355 1006 1355 1028.5 1345.5 c 128,-1,65
 1051 1336 1051 1336 1067.5 1321.5 c 128,-1,47
 1084 1307 1084 1307 1094 1287 c 128,-1,48
EndSplineSet
Validated: 1
LCarets2: 1 0
Ligature2: "sous-table 'liga' Ligatures standard dans Latin lookup 37" f idieresis
EndChar

StartChar: f_imacron.liga
Encoding: 1114126 -1 72
Width: 1203
GlyphClass: 3
Flags: W
LayerCount: 2
Fore
SplineSet
470 1412 m 0,0,1
 529 1412 529 1412 580 1395 c 1,2,-1
 580 1301 l 1,3,-1
 1191 1301 l 1,4,-1
 1191 1137 l 1,5,-1
 558 1137 l 1,6,-1
 558 1243 l 1,7,8
 538 1233 538 1233 489 1233 c 0,9,10
 385 1233 385 1233 385 1079 c 2,11,-1
 385 985 l 1,12,-1
 1006 985 l 1,13,-1
 1006 0 l 1,14,-1
 767 0 l 1,15,-1
 767 807 l 1,16,-1
 391 807 l 1,17,-1
 391 0 l 1,18,-1
 155 0 l 1,19,-1
 155 813 l 1,20,-1
 74 823 l 2,21,22
 45 826 45 826 24.5 843 c 128,-1,23
 4 860 4 860 4 890 c 2,24,-1
 4 985 l 1,25,-1
 155 985 l 1,26,-1
 155 1081 l 2,27,28
 155 1241 155 1241 233 1326 c 0,29,30
 317 1412 317 1412 470 1412 c 0,0,1
EndSplineSet
Validated: 1
Ligature2: "sous-table 'liga' Ligatures standard dans Latin lookup 37" f imacron
EndChar

StartChar: f_ibreve.liga
Encoding: 1114127 -1 73
Width: 1153
GlyphClass: 3
Flags: W
LayerCount: 2
Fore
SplineSet
578 1252 m 0,0,1
 561 1233 561 1233 503 1233 c 128,-1,2
 445 1233 445 1233 417 1199 c 128,-1,3
 389 1165 389 1165 389 1079 c 2,4,-1
 389 985 l 1,5,-1
 1006 985 l 1,6,-1
 1006 0 l 1,7,-1
 780 0 l 1,8,-1
 780 807 l 1,9,-1
 395 807 l 1,10,-1
 395 0 l 1,11,-1
 155 0 l 1,12,-1
 155 813 l 1,13,-1
 74 823 l 2,14,15
 26 828 26 828 10 864 c 0,16,17
 4 876 4 876 4 890 c 2,18,-1
 4 985 l 1,19,-1
 155 985 l 1,20,-1
 155 1081 l 2,21,22
 155 1241 155 1241 233 1326 c 1,23,24
 319 1412 319 1412 476 1412 c 0,25,26
 538 1412 538 1412 589 1395 c 1,27,-1
 589 1383 l 1,28,-1
 731 1383 l 1,29,-1
 731 1358 l 2,30,31
 731 1323 731 1323 749 1310 c 0,32,33
 781 1287 781 1287 833 1287 c 128,-1,34
 885 1287 885 1287 907 1292 c 0,35,36
 948 1301 948 1301 956.5 1321 c 128,-1,37
 965 1341 965 1341 965 1358 c 2,38,-1
 965 1383 l 1,39,-1
 1139 1383 l 1,40,-1
 1139 1358 l 2,41,42
 1139 1199 1139 1199 984 1146 c 0,43,44
 928 1123 928 1123 848 1123 c 0,45,46
 702 1123 702 1123 622 1197 c 0,47,48
 595 1222 595 1222 579 1253 c 1,49,50
 579 1252 579 1252 578 1252 c 0,0,1
EndSplineSet
Validated: 1
LCarets2: 1 0
Ligature2: "sous-table 'liga' Ligatures standard dans Latin lookup 37" f ibreve
EndChar

StartChar: f_dotlessi.liga
Encoding: 1114129 -1 75
Width: 1184
GlyphClass: 3
Flags: W
LayerCount: 2
Fore
SplineSet
609 1281 m 2,0,1
 609 1233 609 1233 537 1233 c 128,-1,2
 465 1233 465 1233 437 1199 c 128,-1,3
 409 1165 409 1165 409 1079 c 2,4,-1
 409 985 l 1,5,-1
 1026 985 l 1,6,-1
 1026 0 l 1,7,-1
 800 0 l 1,8,-1
 800 807 l 1,9,-1
 415 807 l 1,10,-1
 415 0 l 1,11,-1
 175 0 l 1,12,-1
 175 813 l 1,13,-1
 94 823 l 2,14,15
 46 828 46 828 30 864 c 0,16,17
 24 876 24 876 24 890 c 2,18,-1
 24 985 l 1,19,-1
 175 985 l 1,20,-1
 175 1081 l 2,21,22
 175 1241 175 1241 253 1326 c 1,23,24
 339 1412 339 1412 496 1412 c 0,25,26
 558 1412 558 1412 609 1395 c 1,27,-1
 609 1281 l 2,0,1
EndSplineSet
Validated: 1
Ligature2: "sous-table 'liga' Ligatures standard dans Latin lookup 37" f dotlessi
EndChar

StartChar: f_f_igrave.liga
Encoding: 1114130 -1 77
Width: 1754
GlyphClass: 3
Flags: W
LayerCount: 2
Fore
SplineSet
1195 1269 m 1,0,1
 1185 1233 1185 1233 1124.5 1233 c 128,-1,2
 1064 1233 1064 1233 1038.5 1199.5 c 128,-1,3
 1013 1166 1013 1166 1013 1079 c 2,4,-1
 1013 985 l 1,5,-1
 1600 985 l 1,6,-1
 1600 0 l 1,7,-1
 1374 0 l 1,8,-1
 1374 807 l 1,9,-1
 1019 807 l 1,10,-1
 1019 0 l 1,11,-1
 782 0 l 1,12,-1
 782 807 l 1,13,-1
 403 807 l 1,14,-1
 403 0 l 1,15,-1
 171 0 l 1,16,-1
 171 814 l 1,17,-1
 93 823 l 2,18,19
 46 828 46 828 30 864 c 0,20,21
 24 876 24 876 24 890 c 2,22,-1
 24 985 l 1,23,-1
 171 985 l 1,24,-1
 171 1035 l 2,25,26
 171 1199 171 1199 266 1296 c 1,27,28
 363 1389 363 1389 536 1389 c 0,29,30
 605 1389 605 1389 687 1363 c 1,31,-1
 681 1255 l 1,32,33
 677 1211 677 1211 633 1207 c 0,34,35
 608 1204 608 1204 568 1204 c 0,36,37
 443 1204 443 1204 410 1115 c 0,38,39
 397 1080 397 1080 397 1028 c 2,40,-1
 397 985 l 1,41,-1
 782 985 l 1,42,-1
 782 1081 l 2,43,44
 782 1241 782 1241 864 1326.5 c 128,-1,45
 946 1412 946 1412 1092 1412 c 0,46,47
 1132 1412 1132 1412 1184 1399 c 1,48,-1
 1305 1399 l 2,49,50
 1373 1399 1373 1399 1405 1344 c 1,51,-1
 1572 1073 l 1,52,-1
 1427 1073 l 2,53,54
 1383 1073 1383 1073 1348 1108 c 1,55,-1
 1195 1269 l 1,0,1
EndSplineSet
Validated: 1
Ligature2: "sous-table 'liga' Ligatures standard dans Latin lookup 37" f f igrave
EndChar

StartChar: f_f_icircumflex.liga
Encoding: 1114131 -1 78
Width: 1754
GlyphClass: 3
Flags: W
LayerCount: 2
Fore
SplineSet
1189 1281 m 2,0,1
 1189 1233 1189 1233 1110 1233 c 0,2,3
 1057 1233 1057 1233 1032 1199.5 c 128,-1,4
 1007 1166 1007 1166 1007 1079 c 2,5,-1
 1007 985 l 1,6,-1
 1600 985 l 1,7,-1
 1600 0 l 1,8,-1
 1366 0 l 1,9,-1
 1366 807 l 1,10,-1
 1013 807 l 1,11,-1
 1013 0 l 1,12,-1
 778 0 l 1,13,-1
 778 807 l 1,14,-1
 402 807 l 1,15,-1
 402 0 l 1,16,-1
 171 0 l 1,17,-1
 171 814 l 1,18,-1
 93 823 l 2,19,20
 46 828 46 828 30 864 c 0,21,22
 24 876 24 876 24 890 c 2,23,-1
 24 985 l 1,24,-1
 171 985 l 1,25,-1
 171 1035 l 2,26,27
 171 1199 171 1199 266 1296 c 1,28,29
 363 1389 363 1389 534 1389 c 0,30,31
 602 1389 602 1389 684 1363 c 1,32,-1
 678 1255 l 1,33,34
 674 1211 674 1211 630 1207 c 0,35,36
 606 1204 606 1204 565 1204 c 0,37,38
 484 1204 484 1204 452 1176 c 0,39,40
 396 1126 396 1126 396 1028 c 2,41,-1
 396 985 l 1,42,-1
 778 985 l 1,43,-1
 778 1081 l 2,44,45
 778 1241 778 1241 859 1326.5 c 128,-1,46
 940 1412 940 1412 1085 1412 c 0,47,48
 1141 1412 1141 1412 1189 1394 c 1,49,-1
 1189 1281 l 2,0,1
1811 1103 m 1,50,-1
 1639 1103 l 2,51,52
 1604 1103 1604 1103 1577 1130 c 2,53,-1
 1456 1253 l 1,54,-1
 1335 1130 l 2,55,56
 1309 1103 1309 1103 1271 1103 c 2,57,-1
 1087 1103 l 1,58,-1
 1350 1399 l 1,59,-1
 1357 1408 l 1,60,-1
 1550 1408 l 1,61,-1
 1811 1103 l 1,50,-1
EndSplineSet
Validated: 1
Ligature2: "sous-table 'liga' Ligatures standard dans Latin lookup 37" f f icircumflex
EndChar

StartChar: f_f_itilde.liga
Encoding: 1114132 -1 79
Width: 1723
GlyphClass: 3
Flags: W
LayerCount: 2
Fore
SplineSet
1485 1319 m 2,0,-1
 1498 1319 l 2,1,2
 1544 1319 1544 1319 1558 1356 c 0,3,4
 1563 1369 1563 1369 1568 1390 c 1,5,-1
 1706 1390 l 1,6,7
 1706 1281 1706 1281 1648.5 1213 c 128,-1,8
 1591 1145 1591 1145 1502 1145 c 0,9,10
 1452 1145 1452 1145 1403 1171 c 128,-1,11
 1354 1197 1354 1197 1331.5 1209 c 128,-1,12
 1309 1221 1309 1221 1283 1221 c 0,13,14
 1233 1221 1233 1221 1210 1150 c 1,15,-1
 1077 1150 l 1,16,17
 1077 1195 1077 1195 1087 1233 c 1,18,19
 1044 1230 1044 1230 1019.5 1198 c 128,-1,20
 995 1166 995 1166 995 1079 c 2,21,-1
 995 985 l 1,22,-1
 1582 985 l 1,23,-1
 1582 0 l 1,24,-1
 1356 0 l 1,25,-1
 1356 807 l 1,26,-1
 1001 807 l 1,27,-1
 1001 0 l 1,28,-1
 764 0 l 1,29,-1
 764 807 l 1,30,-1
 385 807 l 1,31,-1
 385 0 l 1,32,-1
 153 0 l 1,33,-1
 153 814 l 1,34,-1
 75 823 l 2,35,36
 28 828 28 828 12 864 c 0,37,38
 6 876 6 876 6 890 c 2,39,-1
 6 985 l 1,40,-1
 153 985 l 1,41,-1
 153 1035 l 2,42,43
 153 1199 153 1199 248 1296 c 1,44,45
 345 1389 345 1389 518 1389 c 0,46,47
 587 1389 587 1389 669 1363 c 1,48,-1
 663 1255 l 1,49,50
 659 1211 659 1211 615 1207 c 0,51,52
 590 1204 590 1204 550 1204 c 0,53,54
 425 1204 425 1204 392 1115 c 0,55,56
 379 1080 379 1080 379 1028 c 2,57,-1
 379 985 l 1,58,-1
 764 985 l 1,59,-1
 764 1081 l 2,60,61
 764 1241 764 1241 846 1326.5 c 128,-1,62
 928 1412 928 1412 1074 1412 c 0,63,64
 1128 1412 1128 1412 1179 1394 c 1,65,-1
 1179 1368 l 1,66,67
 1224 1397 1224 1397 1280 1397 c 128,-1,68
 1336 1397 1336 1397 1383 1370 c 0,69,70
 1472 1319 1472 1319 1485 1319 c 2,0,-1
EndSplineSet
Validated: 1
LCarets2: 2 0 0
Ligature2: "sous-table 'liga' Ligatures standard dans Latin lookup 37" f f itilde
EndChar

StartChar: f_f_idieresis.liga
Encoding: 1114133 -1 80
Width: 1723
GlyphClass: 3
Flags: W
LayerCount: 2
Fore
SplineSet
1179 1332 m 1,0,1
 1211 1355 1211 1355 1242.5 1355 c 128,-1,2
 1274 1355 1274 1355 1296.5 1345.5 c 128,-1,3
 1319 1336 1319 1336 1335.5 1321.5 c 128,-1,4
 1352 1307 1352 1307 1362 1287 c 128,-1,5
 1372 1267 1372 1267 1372 1244 c 128,-1,6
 1372 1221 1372 1221 1362 1201 c 0,7,8
 1342 1161 1342 1161 1296 1143 c 1,9,10
 1294 1140 1294 1140 1249 1140 c 128,-1,11
 1204 1140 1204 1140 1192 1145 c 0,12,13
 1161 1158 1161 1158 1140 1202 c 0,14,15
 1132 1218 1132 1218 1130 1235 c 1,16,17
 1117 1233 1117 1233 1099 1233 c 0,18,19
 1046 1233 1046 1233 1020.5 1199.5 c 128,-1,20
 995 1166 995 1166 995 1079 c 2,21,-1
 995 985 l 1,22,-1
 1582 985 l 1,23,-1
 1582 0 l 1,24,-1
 1356 0 l 1,25,-1
 1356 807 l 1,26,-1
 1001 807 l 1,27,-1
 1001 0 l 1,28,-1
 764 0 l 1,29,-1
 764 807 l 1,30,-1
 385 807 l 1,31,-1
 385 0 l 1,32,-1
 153 0 l 1,33,-1
 153 814 l 1,34,-1
 75 823 l 2,35,36
 28 828 28 828 12 864 c 0,37,38
 6 876 6 876 6 890 c 2,39,-1
 6 985 l 1,40,-1
 153 985 l 1,41,-1
 153 1035 l 2,42,43
 153 1289 153 1289 366 1365 c 0,44,45
 434 1389 434 1389 518 1389 c 0,46,47
 523 1389 523 1389 528 1389 c 2,48,-1
 586 1384 l 1,49,50
 625 1377 625 1377 669 1363 c 1,51,-1
 663 1255 l 2,52,53
 662 1235 662 1235 648 1222 c 0,54,55
 629 1204 629 1204 569 1204 c 0,56,57
 463 1204 463 1204 426 1168 c 0,58,59
 379 1125 379 1125 379 1028 c 2,60,-1
 379 985 l 1,61,-1
 764 985 l 1,62,-1
 764 1081 l 2,63,64
 764 1241 764 1241 846 1326.5 c 128,-1,65
 928 1412 928 1412 1074 1412 c 0,66,67
 1128 1412 1128 1412 1179 1394 c 1,68,-1
 1179 1332 l 1,0,1
1665 1287 m 128,-1,70
 1675 1267 1675 1267 1675 1244 c 128,-1,71
 1675 1221 1675 1221 1665 1201 c 0,72,73
 1645 1161 1645 1161 1599 1143 c 1,74,75
 1597 1139 1597 1139 1552.5 1139 c 128,-1,76
 1508 1139 1508 1139 1506 1143 c 1,77,78
 1462 1158 1462 1158 1442 1202 c 0,79,80
 1432 1222 1432 1222 1432 1244 c 0,81,82
 1432 1266 1432 1266 1442 1287 c 0,83,84
 1461 1327 1461 1327 1506 1345 c 0,85,86
 1528 1355 1528 1355 1552.5 1355 c 128,-1,87
 1577 1355 1577 1355 1599.5 1345.5 c 128,-1,88
 1622 1336 1622 1336 1638.5 1321.5 c 128,-1,69
 1655 1307 1655 1307 1665 1287 c 128,-1,70
EndSplineSet
Validated: 1
LCarets2: 2 0 0
Ligature2: "sous-table 'liga' Ligatures standard dans Latin lookup 37" f f idieresis
EndChar

StartChar: f_f_imacron.liga
Encoding: 1114134 -1 81
Width: 1773
GlyphClass: 3
Flags: W
LayerCount: 2
Fore
SplineSet
1068 1412 m 0,0,1
 1121 1412 1121 1412 1172 1394 c 1,2,-1
 1172 1301 l 1,3,-1
 1778 1301 l 1,4,-1
 1778 1137 l 1,5,-1
 1158 1137 l 1,6,-1
 1158 1249 l 1,7,8
 1142 1233 1142 1233 1091 1233 c 128,-1,9
 1040 1233 1040 1233 1015 1199.5 c 128,-1,10
 990 1166 990 1166 990 1079 c 2,11,-1
 990 985 l 1,12,-1
 1582 985 l 1,13,-1
 1582 0 l 1,14,-1
 1349 0 l 1,15,-1
 1349 807 l 1,16,-1
 995 807 l 1,17,-1
 995 0 l 1,18,-1
 760 0 l 1,19,-1
 760 807 l 1,20,-1
 384 807 l 1,21,-1
 384 0 l 1,22,-1
 153 0 l 1,23,-1
 153 814 l 1,24,-1
 75 823 l 2,25,26
 46 826 46 826 26 843 c 128,-1,27
 6 860 6 860 6 890 c 2,28,-1
 6 985 l 1,29,-1
 153 985 l 1,30,-1
 153 1035 l 2,31,32
 153 1199 153 1199 248 1296 c 1,33,34
 345 1389 345 1389 516 1389 c 0,35,36
 584 1389 584 1389 666 1363 c 1,37,-1
 660 1255 l 1,38,39
 656 1211 656 1211 612 1207 c 0,40,41
 588 1204 588 1204 548 1204 c 0,42,43
 466 1204 466 1204 434 1176 c 0,44,45
 378 1126 378 1126 378 1028 c 2,46,-1
 378 985 l 1,47,-1
 760 985 l 1,48,-1
 760 1081 l 2,49,50
 760 1241 760 1241 841.5 1326.5 c 128,-1,51
 923 1412 923 1412 1068 1412 c 0,0,1
EndSplineSet
Validated: 1
Ligature2: "sous-table 'liga' Ligatures standard dans Latin lookup 37" f f imacron
EndChar

StartChar: f_f_ibreve.liga
Encoding: 1114135 -1 82
Width: 1723
GlyphClass: 3
Flags: W
LayerCount: 2
Fore
SplineSet
1161 1245 m 1,0,1
 1144 1233 1144 1233 1095 1233 c 128,-1,2
 1046 1233 1046 1233 1020.5 1199.5 c 128,-1,3
 995 1166 995 1166 995 1079 c 2,4,-1
 995 985 l 1,5,-1
 1582 985 l 1,6,-1
 1582 0 l 1,7,-1
 1356 0 l 1,8,-1
 1356 807 l 1,9,-1
 1001 807 l 1,10,-1
 1001 0 l 1,11,-1
 764 0 l 1,12,-1
 764 807 l 1,13,-1
 385 807 l 1,14,-1
 385 0 l 1,15,-1
 153 0 l 1,16,-1
 153 814 l 1,17,-1
 75 823 l 2,18,19
 28 828 28 828 12 864 c 0,20,21
 6 876 6 876 6 890 c 2,22,-1
 6 985 l 1,23,-1
 153 985 l 1,24,-1
 153 1035 l 2,25,26
 153 1199 153 1199 248 1296 c 1,27,28
 345 1389 345 1389 518 1389 c 0,29,30
 587 1389 587 1389 669 1363 c 1,31,-1
 663 1255 l 1,32,33
 659 1211 659 1211 615 1207 c 0,34,35
 590 1204 590 1204 550 1204 c 0,36,37
 425 1204 425 1204 392 1115 c 0,38,39
 379 1080 379 1080 379 1028 c 2,40,-1
 379 985 l 1,41,-1
 764 985 l 1,42,-1
 764 1081 l 2,43,44
 764 1241 764 1241 846 1326.5 c 128,-1,45
 928 1412 928 1412 1074 1412 c 0,46,47
 1128 1412 1128 1412 1179 1394 c 1,48,-1
 1179 1383 l 1,49,-1
 1309 1383 l 1,50,-1
 1309 1358 l 2,51,52
 1309 1323 1309 1323 1327 1310 c 0,53,54
 1359 1287 1359 1287 1411 1287 c 128,-1,55
 1463 1287 1463 1287 1485 1292 c 0,56,57
 1526 1301 1526 1301 1534.5 1321 c 128,-1,58
 1543 1341 1543 1341 1543 1358 c 2,59,-1
 1543 1383 l 1,60,-1
 1717 1383 l 1,61,-1
 1717 1358 l 2,62,63
 1717 1199 1717 1199 1562 1146 c 0,64,65
 1506 1123 1506 1123 1426 1123 c 0,66,67
 1230 1123 1230 1123 1161 1245 c 1,0,1
EndSplineSet
Validated: 1
Ligature2: "sous-table 'liga' Ligatures standard dans Latin lookup 37" f f ibreve
EndChar

StartChar: f_f_iogonek.liga
Encoding: 1114136 -1 83
Width: 1754
GlyphClass: 3
Flags: W
LayerCount: 2
Fore
SplineSet
1683 -263 m 1,0,1
 1599 -330 1599 -330 1494 -330 c 128,-1,2
 1389 -330 1389 -330 1330 -286.5 c 128,-1,3
 1271 -243 1271 -243 1271 -160 c 128,-1,4
 1271 -77 1271 -77 1371 4 c 1,5,-1
 1371 807 l 1,6,-1
 1016 807 l 1,7,-1
 1016 -25 l 1,8,-1
 780 -25 l 1,9,-1
 780 807 l 1,10,-1
 403 807 l 1,11,-1
 403 -25 l 1,12,-1
 171 -25 l 1,13,-1
 171 809 l 1,14,-1
 93 819 l 1,15,16
 24 826 24 826 24 888 c 2,17,-1
 24 985 l 1,18,-1
 171 985 l 1,19,-1
 171 1038 l 2,20,21
 171 1313 171 1313 384 1389 c 0,22,23
 452 1414 452 1414 528 1414 c 128,-1,24
 604 1414 604 1414 686 1388 c 1,25,-1
 679 1280 l 1,26,27
 675 1236 675 1236 631 1232 c 0,28,29
 606 1229 606 1229 566 1229 c 0,30,31
 441 1229 441 1229 409 1130 c 0,32,33
 396 1091 396 1091 396 1033 c 2,34,-1
 396 985 l 1,35,-1
 780 985 l 1,36,-1
 780 1081 l 2,37,38
 780 1241 780 1241 862 1326.5 c 128,-1,39
 944 1412 944 1412 1089 1412 c 0,40,41
 1143 1412 1143 1412 1194 1394 c 1,42,-1
 1194 1281 l 2,43,44
 1194 1233 1194 1233 1114 1233 c 0,45,46
 1061 1233 1061 1233 1036 1199.5 c 128,-1,47
 1011 1166 1011 1166 1011 1079 c 2,48,-1
 1011 985 l 1,49,-1
 1600 985 l 1,50,-1
 1600 -4 l 1,51,-1
 1554 -4 l 1,52,53
 1460 -60 1460 -60 1460 -123 c 0,54,55
 1460 -175 1460 -175 1521 -175 c 0,56,57
 1554 -175 1554 -175 1575 -164 c 128,-1,58
 1596 -153 1596 -153 1608 -153 c 0,59,60
 1637 -153 1637 -153 1649 -180 c 2,61,-1
 1676 -245 l 1,62,-1
 1683 -263 l 1,0,1
1638 1266 m 0,63,64
 1638 1172 1638 1172 1546 1130 c 0,65,66
 1519 1118 1519 1118 1488.5 1118 c 128,-1,67
 1458 1118 1458 1118 1430 1130 c 0,68,69
 1376 1154 1376 1154 1349 1208 c 0,70,71
 1336 1235 1336 1235 1337 1266 c 0,72,73
 1337 1359 1337 1359 1430 1404 c 0,74,75
 1458 1416 1458 1416 1488 1416 c 0,76,77
 1550 1416 1550 1416 1594 1372.5 c 128,-1,78
 1638 1329 1638 1329 1638 1266 c 0,63,64
EndSplineSet
Validated: 1
LCarets2: 2 0 0
Ligature2: "sous-table 'liga' Ligatures standard dans Latin lookup 37" f f iogonek
EndChar

StartChar: f_f_dotlessi.liga
Encoding: 1114137 -1 84
Width: 1754
GlyphClass: 3
Flags: W
LayerCount: 2
Fore
SplineSet
1197 1281 m 2,0,1
 1197 1233 1197 1233 1117 1233 c 0,2,3
 1064 1233 1064 1233 1038.5 1199.5 c 128,-1,4
 1013 1166 1013 1166 1013 1079 c 2,5,-1
 1013 985 l 1,6,-1
 1600 985 l 1,7,-1
 1600 0 l 1,8,-1
 1374 0 l 1,9,-1
 1374 807 l 1,10,-1
 1019 807 l 1,11,-1
 1019 0 l 1,12,-1
 782 0 l 1,13,-1
 782 807 l 1,14,-1
 403 807 l 1,15,-1
 403 0 l 1,16,-1
 171 0 l 1,17,-1
 171 814 l 1,18,-1
 93 823 l 2,19,20
 46 828 46 828 30 864 c 0,21,22
 24 876 24 876 24 890 c 2,23,-1
 24 985 l 1,24,-1
 171 985 l 1,25,-1
 171 1035 l 2,26,27
 171 1199 171 1199 266 1296 c 1,28,29
 363 1389 363 1389 536 1389 c 0,30,31
 605 1389 605 1389 687 1363 c 1,32,-1
 681 1255 l 1,33,34
 677 1211 677 1211 633 1207 c 0,35,36
 608 1204 608 1204 568 1204 c 0,37,38
 443 1204 443 1204 410 1115 c 0,39,40
 397 1080 397 1080 397 1028 c 2,41,-1
 397 985 l 1,42,-1
 782 985 l 1,43,-1
 782 1081 l 2,44,45
 782 1241 782 1241 864 1326.5 c 128,-1,46
 946 1412 946 1412 1092 1412 c 0,47,48
 1146 1412 1146 1412 1197 1394 c 1,49,-1
 1197 1281 l 2,0,1
EndSplineSet
Validated: 1
Ligature2: "sous-table 'liga' Ligatures standard dans Latin lookup 37" f f dotlessi
EndChar

StartChar: f_k.liga
Encoding: 1114140 -1 87
Width: 1645
GlyphClass: 3
Flags: W
LayerCount: 2
Fore
SplineSet
780 1253 m 1,0,1
 696 1276 696 1276 628 1276 c 0,2,3
 448 1276 448 1276 403 1134 c 0,4,5
 388 1089 388 1089 388 1034 c 2,6,-1
 388 985 l 1,7,-1
 651 985 l 1,8,-1
 651 807 l 1,9,-1
 394 807 l 1,10,-1
 394 0 l 1,11,-1
 163 0 l 1,12,-1
 163 814 l 1,13,-1
 92 823 l 1,14,15
 38 828 38 828 26 872 c 0,16,17
 24 880 24 880 23 890 c 2,18,-1
 23 985 l 1,19,-1
 163 985 l 1,20,-1
 163 1035 l 2,21,22
 163 1328 163 1328 417 1412 c 0,23,24
 508 1442 508 1442 592 1442 c 0,25,26
 695 1442 695 1442 762 1435 c 0,27,28
 888 1422 888 1422 965 1422 c 2,29,-1
 1017 1422 l 1,30,-1
 1017 611 l 1,31,-1
 1032 611 l 2,32,33
 1056 611 1056 611 1069 628 c 2,34,-1
 1341 959 l 1,35,36
 1385 1003 1385 1003 1431 1003 c 2,37,-1
 1643 1003 l 1,38,-1
 1299 588 l 1,39,40
 1282 571 1282 571 1272.5 563.5 c 128,-1,41
 1263 556 1263 556 1260 553 c 1,42,-1
 1299 511 l 1,43,-1
 1658 -0 l 1,44,-1
 1453 0 l 2,45,46
 1398 0 1398 0 1364 42 c 1,47,-1
 1085 421 l 2,48,49
 1074 435 1074 435 1067 438.5 c 128,-1,50
 1060 442 1060 442 1038 442 c 2,51,-1
 1017 442 l 1,52,-1
 1017 0 l 1,53,-1
 780 0 l 1,54,-1
 780 1253 l 1,0,1
EndSplineSet
Validated: 1
Ligature2: "sous-table 'liga' Ligatures standard dans Latin lookup 37" f k
EndChar

StartChar: f_f_k.liga
Encoding: 1114141 -1 88
Width: 2215
GlyphClass: 3
Flags: W
LayerCount: 2
Fore
SplineSet
1873 587 m 1,0,-1
 1836 553 l 1,1,-1
 1874 511 l 1,2,-1
 1874 510 l 1,3,-1
 2231 -0 l 1,4,-1
 2026 0 l 2,5,6
 1970 0 1970 0 1938 42 c 1,7,-1
 1663 421 l 2,8,9
 1652 435 1652 435 1645 438.5 c 128,-1,10
 1638 442 1638 442 1616 442 c 2,11,-1
 1596 442 l 1,12,-1
 1596 0 l 1,13,-1
 1363 0 l 1,14,-1
 1363 1253 l 1,15,16
 1271 1276 1271 1276 1205 1276 c 0,17,18
 971 1276 971 1276 967 1034 c 1,19,-1
 967 985 l 1,20,-1
 1228 985 l 1,21,-1
 1228 807 l 1,22,-1
 974 807 l 1,23,-1
 974 0 l 1,24,-1
 741 0 l 1,25,-1
 741 807 l 1,26,-1
 393 807 l 1,27,-1
 393 0 l 1,28,-1
 163 0 l 1,29,-1
 163 814 l 1,30,-1
 91 823 l 1,31,32
 44 828 44 828 28 864 c 0,33,34
 22 876 22 876 22 890 c 2,35,-1
 22 985 l 1,36,-1
 163 985 l 1,37,-1
 163 1038 l 2,38,39
 163 1215 163 1215 255 1315 c 0,40,41
 348 1414 348 1414 512 1414 c 0,42,43
 587 1414 587 1414 656 1387 c 1,44,-1
 650 1280 l 2,45,46
 648 1257 648 1257 634.5 1245 c 128,-1,47
 621 1233 621 1233 601 1231 c 128,-1,48
 581 1229 581 1229 543 1229 c 0,49,50
 467 1229 467 1229 438 1198 c 0,51,52
 386 1142 386 1142 386 1033 c 2,53,-1
 386 985 l 1,54,-1
 741 985 l 1,55,-1
 741 1035 l 2,56,57
 741 1326 741 1326 998 1412 c 0,58,59
 1086 1442 1086 1442 1168 1442 c 0,60,61
 1268 1442 1268 1442 1332 1436 c 0,62,63
 1448 1424 1448 1424 1519 1422 c 1,64,-1
 1596 1422 l 1,65,-1
 1596 611 l 1,66,-1
 1611 611 l 2,67,68
 1634 611 1634 611 1647 628 c 2,69,-1
 1915 959 l 1,70,71
 1959 1003 1959 1003 2004 1003 c 2,72,-1
 2216 1003 l 1,73,-1
 1873 588 l 1,74,-1
 1873 587 l 1,0,-1
EndSplineSet
Validated: 1
Ligature2: "sous-table 'liga' Ligatures standard dans Latin lookup 37" f f k
EndChar

StartChar: uniFB02
Encoding: 64258 64258 89
Width: 1184
GlyphClass: 3
Flags: W
LayerCount: 2
Fore
SplineSet
803 1225 m 1,0,1
 667 1232 667 1232 632 1232 c 0,2,3
 520 1232 520 1232 459.5 1168.5 c 128,-1,4
 399 1105 399 1105 399 986 c 2,5,-1
 399 960 l 1,6,-1
 659 960 l 1,7,-1
 659 782 l 1,8,-1
 405 782 l 1,9,-1
 405 0 l 1,10,-1
 166 0 l 1,11,-1
 166 793 l 1,12,-1
 92 803 l 1,13,14
 38 808 38 808 26 850 c 0,15,16
 24 858 24 858 23 868 c 2,17,-1
 23 960 l 1,18,-1
 166 960 l 1,19,-1
 166 986 l 2,20,21
 166 1278 166 1278 407 1376 c 0,22,23
 491 1410 491 1410 587.5 1410 c 128,-1,24
 684 1410 684 1410 754 1404 c 128,-1,25
 824 1398 824 1398 885 1397 c 1,26,-1
 1028 1397 l 1,27,-1
 1028 0 l 1,28,-1
 803 0 l 1,29,-1
 803 1225 l 1,0,1
EndSplineSet
Validated: 1
Ligature2: "sous-table 'liga' Ligatures standard dans Latin lookup 37" f l
EndChar

StartChar: uniFB04
Encoding: 64260 64260 90
Width: 1754
GlyphClass: 3
Flags: W
LayerCount: 2
Fore
SplineSet
260 1290 m 0,0,1
 356 1389 356 1389 518 1389 c 0,2,3
 594 1389 594 1389 671 1363 c 1,4,-1
 666 1255 l 1,5,6
 661 1204 661 1204 589 1204 c 2,7,-1
 555 1204 l 2,8,9
 393 1204 393 1204 393 1008 c 2,10,-1
 393 960 l 1,11,-1
 762 960 l 1,12,-1
 762 986 l 2,13,14
 762 1167 762 1167 866 1283 c 0,15,16
 980 1410 980 1410 1183 1410 c 0,17,18
 1260 1410 1260 1410 1327 1404 c 128,-1,19
 1394 1398 1394 1398 1455 1397 c 1,20,-1
 1599 1397 l 1,21,-1
 1599 0 l 1,22,-1
 1374 0 l 1,23,-1
 1374 1225 l 1,24,25
 1336 1227 1336 1227 1291.5 1229.5 c 128,-1,26
 1247 1232 1247 1232 1211 1232 c 0,27,28
 1106 1232 1106 1232 1049 1168.5 c 128,-1,29
 992 1105 992 1105 992 986 c 2,30,-1
 992 960 l 1,31,-1
 1262 960 l 1,32,-1
 1262 782 l 1,33,-1
 999 782 l 1,34,-1
 999 0 l 1,35,-1
 762 0 l 1,36,-1
 762 782 l 1,37,-1
 399 782 l 1,38,-1
 399 0 l 1,39,-1
 167 0 l 1,40,-1
 167 793 l 1,41,-1
 92 803 l 1,42,43
 44 808 44 808 30 842 c 0,44,45
 24 854 24 854 24 868 c 2,46,-1
 24 960 l 1,47,-1
 167 960 l 1,48,-1
 167 1013 l 2,49,50
 167 1191 167 1191 260 1290 c 0,0,1
EndSplineSet
Validated: 1
Ligature2: "sous-table 'liga' Ligatures standard dans Latin lookup 37" f f l
EndChar

StartChar: f_t.liga
Encoding: 1114142 -1 91
Width: 1361
GlyphClass: 3
Flags: W
LayerCount: 2
Fore
SplineSet
527 1404 m 0,0,1
 603 1404 603 1404 685 1378 c 1,2,-1
 680 1270 l 1,3,4
 676 1226 676 1226 631 1222 c 0,5,6
 606 1219 606 1219 566 1219 c 0,7,8
 483 1219 483 1219 452 1191 c 0,9,10
 397 1140 397 1140 397 1049 c 2,11,-1
 397 985 l 1,12,-1
 805 985 l 1,13,-1
 845 1265 l 2,14,15
 848 1289 848 1289 867.5 1304.5 c 128,-1,16
 887 1320 887 1320 914 1320 c 2,17,-1
 1036 1320 l 1,18,-1
 1036 985 l 1,19,-1
 1303 985 l 1,20,-1
 1303 807 l 1,21,-1
 1036 807 l 1,22,-1
 1036 269 l 2,23,24
 1036 222 1036 222 1058 200 c 0,25,26
 1080 178 1080 178 1106 178 c 0,27,28
 1145 178 1145 178 1164 192 c 128,-1,29
 1183 206 1183 206 1195.5 215 c 128,-1,30
 1208 224 1208 224 1230.5 224 c 128,-1,31
 1253 224 1253 224 1270 195 c 2,32,-1
 1333 94 l 1,33,-1
 1318 80 l 1,34,35
 1219 -15 1219 -15 1079 -15 c 129,-1,36
 939 -15 939 -15 867 55.5 c 128,-1,37
 795 126 795 126 795 253 c 2,38,-1
 795 807 l 1,39,-1
 403 807 l 1,40,-1
 403 0 l 1,41,-1
 169 0 l 1,42,-1
 169 813 l 1,43,-1
 93 823 l 1,44,45
 46 828 46 828 30 864 c 0,46,47
 24 876 24 876 24 890 c 2,48,-1
 24 985 l 1,49,-1
 169 985 l 1,50,-1
 169 1049 l 2,51,52
 169 1217 169 1217 265.5 1310.5 c 128,-1,53
 362 1404 362 1404 527 1404 c 0,0,1
EndSplineSet
Validated: 1
LCarets2: 1 0
Ligature2: "sous-table 'liga' Ligatures standard dans Latin lookup 37" f t
EndChar

StartChar: f_f_t.liga
Encoding: 1114143 -1 92
Width: 1932
GlyphClass: 3
Flags: W
LayerCount: 2
Fore
SplineSet
1425 1267 m 1,0,1
 1437 1320 1437 1320 1492 1320 c 2,2,-1
 1611 1320 l 1,3,-1
 1611 985 l 1,4,-1
 1875 985 l 1,5,-1
 1875 807 l 1,6,-1
 1611 807 l 1,7,-1
 1611 269 l 2,8,9
 1611 220 1611 220 1631.5 199 c 128,-1,10
 1652 178 1652 178 1678 178 c 0,11,12
 1717 178 1717 178 1736 192 c 128,-1,13
 1755 206 1755 206 1767.5 215 c 128,-1,14
 1780 224 1780 224 1802 224 c 128,-1,15
 1824 224 1824 224 1841 195 c 2,16,-1
 1904 94 l 1,17,-1
 1889 80 l 2,18,19
 1788 -15 1788 -15 1651.5 -15 c 128,-1,20
 1515 -15 1515 -15 1446 55.5 c 128,-1,21
 1377 126 1377 126 1377 253 c 2,22,-1
 1377 807 l 1,23,-1
 997 807 l 1,24,-1
 997 0 l 1,25,-1
 763 0 l 1,26,-1
 763 807 l 1,27,-1
 398 807 l 1,28,-1
 398 0 l 1,29,-1
 167 0 l 1,30,-1
 167 813 l 1,31,-1
 92 823 l 1,32,33
 38 828 38 828 26 872 c 0,34,35
 24 880 24 880 23 890 c 2,36,-1
 23 985 l 1,37,-1
 167 985 l 1,38,-1
 167 1035 l 2,39,40
 167 1200 167 1200 262 1295 c 0,41,42
 358 1389 358 1389 525 1389 c 0,43,44
 593 1389 593 1389 671 1363 c 1,45,-1
 666 1255 l 1,46,47
 662 1211 662 1211 618 1207 c 0,48,49
 594 1204 594 1204 555 1204 c 0,50,51
 475 1204 475 1204 445 1176 c 0,52,53
 393 1127 393 1127 392 1028 c 1,54,-1
 392 985 l 1,55,-1
 763 985 l 1,56,-1
 763 1049 l 2,57,58
 763 1217 763 1217 860.5 1310.5 c 128,-1,59
 958 1404 958 1404 1124 1404 c 0,60,61
 1189 1404 1189 1404 1271 1378 c 1,62,-1
 1265 1270 l 1,63,64
 1260 1219 1260 1219 1188 1219 c 2,65,-1
 1154 1219 l 2,66,67
 1076 1219 1076 1219 1045 1191 c 0,68,69
 991 1141 991 1141 991 1042 c 2,70,-1
 991 985 l 1,71,-1
 1386 985 l 1,72,-1
 1425 1265 l 1,73,-1
 1425 1267 l 1,0,1
EndSplineSet
Validated: 1
Ligature2: "sous-table 'liga' Ligatures standard dans Latin lookup 37" f f t
EndChar

StartChar: g
Encoding: 103 103 93
Width: 1176
GlyphClass: 2
Flags: W
AnchorPoint: "Ancre-5" 1076 1122 basechar 0
AnchorPoint: "Ancre-3" 1076 -510 basechar 0
AnchorPoint: "Ancre-2" 1076 1515 basechar 0
AnchorPoint: "Ancre-1" 481 -369 basechar 0
AnchorPoint: "Ancre-0" 541 1122 basechar 0
LayerCount: 2
Fore
SplineSet
543 995 m 0,0,1
 723 995 723 995 830 896 c 1,2,-1
 834 922 l 2,3,4
 839 948 839 948 858.5 963 c 128,-1,5
 878 978 878 978 905 978 c 2,6,-1
 1035 978 l 1,7,-1
 1035 72 l 2,8,9
 1035 -111 1035 -111 908 -228 c 0,10,11
 779 -349 779 -349 528 -349 c 0,12,13
 286 -349 286 -349 139 -221 c 1,14,-1
 124 -207 l 1,15,-1
 176 -122 l 1,16,17
 198 -84 198 -84 234 -84 c 128,-1,18
 270 -84 270 -84 292 -100 c 0,19,20
 395 -171 395 -171 520 -171 c 0,21,22
 522 -171 522 -171 524 -171 c 0,23,24
 663 -171 663 -171 740 -101 c 0,25,26
 809 -38 809 -38 809 72 c 2,27,-1
 809 120 l 1,28,29
 690 11 690 11 499 11 c 0,30,31
 188 11 188 11 101 295 c 0,32,33
 74 386 74 386 74 494 c 0,34,35
 74 713 74 713 192 849 c 0,36,37
 316 995 316 995 543 995 c 0,0,1
809 720 m 1,38,39
 729 810 729 810 590 810 c 1,40,41
 452 810 452 810 378.5 731.5 c 128,-1,42
 305 653 305 653 305 501 c 0,43,44
 305 269 305 269 446 219 c 0,45,46
 492 202 492 202 551 202 c 0,47,48
 702 202 702 202 809 322 c 1,49,-1
 809 720 l 1,38,39
EndSplineSet
Validated: 1
Substitution2: "sous-table 'smcp' Bas-de-casse vers petites capitales dans Latin lookup 0" g.smcp
Substitution2: "sous-table 'sups' Exposant lookups25" g.superior
Substitution2: "sous-table 'salt' Alternatives stylistiques lookups28" g.salt
Substitution2: "sous-table 'ss04' Style 4 lookups34" g.salt
Substitution2: "sous-table 'ordn' Ordinaux dans Latin lookup 39" g.superior
EndChar

StartChar: g.salt
Encoding: 1114144 -1 94
Width: 1064
GlyphClass: 2
Flags: W
LayerCount: 2
Fore
SplineSet
234 413 m 1,0,1
 107 508 107 508 107 666 c 0,2,3
 107 812 107 812 215 905 c 0,4,5
 321 994 321 994 508 994 c 0,6,7
 648 994 648 994 750 941 c 1,8,-1
 1028 941 l 1,9,-1
 1028 855 l 2,10,11
 1028 829 1028 829 1011 812.5 c 128,-1,12
 994 796 994 796 967 792 c 2,13,-1
 895 782 l 1,14,15
 915 727 915 727 915 659 c 0,16,17
 915 515 915 515 806 428 c 0,18,19
 694 339 694 339 508 339 c 1,20,21
 440 339 440 339 381 352 c 1,22,23
 340 325 340 325 340 301.5 c 128,-1,24
 340 278 340 278 357 268 c 0,25,26
 405 242 405 242 501 239 c 0,27,28
 694 233 694 233 774 220 c 0,29,30
 1012 181 1012 181 1012 -11 c 0,31,32
 1012 -150 1012 -150 886 -249 c 0,33,34
 755 -352 755 -352 520 -352 c 0,35,36
 185 -352 185 -352 92 -183 c 0,37,38
 64 -132 64 -132 64 -78 c 0,39,40
 64 49 64 49 196 119 c 1,41,42
 135 164 135 164 135 251 c 0,43,44
 135 298 135 298 164 341.5 c 128,-1,45
 193 385 193 385 234 413 c 1,0,1
268 -46 m 0,46,47
 268 -175 268 -175 524 -175 c 0,48,49
 661 -175 661 -175 736 -130 c 0,50,51
 800 -93 800 -93 800 -28 c 0,52,53
 800 20 800 20 743 40 c 0,54,55
 677 62 677 62 545 67 c 128,-1,56
 413 72 413 72 364 78 c 1,57,58
 268 29 268 29 268 -46 c 0,46,47
319 662 m 0,59,60
 319 553 319 553 425 517 c 0,61,62
 461 505 461 505 508 505 c 0,63,64
 604 505 604 505 651.5 548 c 128,-1,65
 699 591 699 591 699 663 c 128,-1,66
 699 735 699 735 651.5 777 c 128,-1,67
 604 819 604 819 509 819 c 128,-1,68
 414 819 414 819 366.5 777.5 c 128,-1,69
 319 736 319 736 319 662 c 0,59,60
EndSplineSet
Validated: 1
Substitution2: "sous-table 'sups' Exposant lookups25" g.superior.salt
Substitution2: "sous-table 'ordn' Ordinaux dans Latin lookup 39" g.superior.salt
EndChar

StartChar: h
Encoding: 104 104 95
Width: 1176
GlyphClass: 2
Flags: W
AnchorPoint: "Ancre-5" 1076 1492 basechar 0
AnchorPoint: "Ancre-3" 1076 -510 basechar 0
AnchorPoint: "Ancre-2" 1076 1515 basechar 0
AnchorPoint: "Ancre-1" 577 10 basechar 0
AnchorPoint: "Ancre-0" 562 1492 basechar 0
LayerCount: 2
Fore
SplineSet
630 804 m 0,0,1
 485 804 485 804 369 692 c 1,2,-1
 369 0 l 1,3,-1
 143 0 l 1,4,-1
 143 1422 l 1,5,-1
 369 1422 l 1,6,-1
 369 883 l 1,7,8
 507 993 507 993 688 993 c 0,9,10
 958 993 958 993 1029 767 c 0,11,12
 1051 699 1051 699 1051 617 c 2,13,-1
 1051 0 l 1,14,-1
 825 0 l 1,15,-1
 825 610 l 2,16,17
 825 804 825 804 630 804 c 0,0,1
EndSplineSet
Validated: 1
Substitution2: "sous-table 'smcp' Bas-de-casse vers petites capitales dans Latin lookup 0" h.smcp
Substitution2: "sous-table 'ordn' Ordinaux dans Latin lookup 39" h.superior
Substitution2: "sous-table 'sups' Exposant lookups25" h.superior
EndChar

StartChar: hbar
Encoding: 295 295 97
Width: 1191
GlyphClass: 2
Flags: W
AnchorPoint: "Ancre-0" 579 1492 basechar 0
AnchorPoint: "Ancre-1" 594 10 basechar 0
AnchorPoint: "Ancre-2" 1093 1515 basechar 0
AnchorPoint: "Ancre-3" 1093 -510 basechar 0
AnchorPoint: "Ancre-5" 1093 1492 basechar 0
LayerCount: 2
Fore
SplineSet
647 783 m 0,0,1
 509 783 509 783 388 671 c 1,2,-1
 388 0 l 1,3,-1
 150 0 l 1,4,-1
 150 1065 l 1,5,-1
 4 1065 l 1,6,-1
 4 1226 l 1,7,-1
 150 1226 l 1,8,-1
 150 1422 l 1,9,-1
 388 1422 l 1,10,-1
 388 1226 l 1,11,-1
 696 1226 l 1,12,-1
 696 1065 l 1,13,-1
 388 1065 l 1,14,-1
 388 860 l 1,15,16
 531 972 531 972 703 972 c 0,17,18
 881 972 881 972 976 867 c 0,19,20
 1065 768 1065 768 1065 597 c 2,21,-1
 1065 0 l 1,22,-1
 839 0 l 1,23,-1
 839 590 l 2,24,25
 839 783 839 783 647 783 c 0,0,1
EndSplineSet
Validated: 1
Substitution2: "sous-table 'smcp' Bas-de-casse vers petites capitales dans Latin lookup 0" hbar.smcp
EndChar

StartChar: iogonek
Encoding: 303 303 99
Width: 520
GlyphClass: 2
Flags: MW
AnchorPoint: "Ancre-0" 238 1534 basechar 0
AnchorPoint: "Ancre-2" 470 1515 basechar 0
AnchorPoint: "Ancre-3" 470 -510 basechar 0
AnchorPoint: "Ancre-4" 235 550 basechar 0
AnchorPoint: "Ancre-5" 470 1534 basechar 0
LayerCount: 2
Fore
SplineSet
243 -135 m 0,0,1
 243 -176 243 -176 304 -176 c 0,2,3
 347 -176 347 -176 363 -165 c 0,4,5
 380 -154 380 -154 392 -154 c 0,6,7
 421 -154 421 -154 432 -181 c 2,8,-1
 459 -246 l 1,9,-1
 466 -264 l 1,10,11
 382 -331 382 -331 278 -331 c 128,-1,12
 174 -331 174 -331 117.5 -292 c 128,-1,13
 61 -253 61 -253 61 -187 c 0,14,15
 61 -85 61 -85 212 -0 c 1,16,-1
 147 0 l 1,17,-1
 147 978 l 1,18,-1
 373 978 l 1,19,-1
 373 0 l 1,20,-1
 326 0 l 1,21,-1
 406 -11 l 1,22,-1
 343 -39 l 2,23,24
 243 -83 243 -83 243 -135 c 0,0,1
404 1274 m 128,-1,26
 404 1209 404 1209 356 1163 c 0,27,28
 308 1116 308 1116 242 1116 c 0,29,-1
 241 1116 l 0,30,31
 176 1116 176 1116 130 1162 c 128,-1,32
 84 1208 84 1208 84 1274 c 128,-1,33
 84 1340 84 1340 130 1386 c 0,34,35
 178 1432 178 1432 226 1433 c 0,36,37
 310 1433 310 1433 357 1386 c 128,-1,25
 404 1339 404 1339 404 1274 c 128,-1,26
EndSplineSet
Validated: 1
Substitution2: "sous-table 'smcp' Bas-de-casse vers petites capitales dans Latin lookup 0" iogonek.smcp
LCarets2: 1 0
Ligature2: "sous-table 'ccmp' Composition et d+AOkA-composition de glyphe (CJK) lookups10" i uni0328
Substitution2: "sous-table Substitution simple lookups1" glyph499
EndChar

StartChar: dotlessi
Encoding: 305 305 100
Width: 520
GlyphClass: 2
Flags: W
AnchorPoint: "Ancre-5" 470 1122 basechar 0
AnchorPoint: "Ancre-4" 235 550 basechar 0
AnchorPoint: "Ancre-3" 470 -510 basechar 0
AnchorPoint: "Ancre-2" 470 1515 basechar 0
AnchorPoint: "Ancre-1" 238 10 basechar 0
AnchorPoint: "Ancre-0" 235 1122 basechar 0
LayerCount: 2
Fore
SplineSet
373 978 m 1,0,-1
 373 0 l 1,1,-1
 147 0 l 1,2,-1
 147 978 l 1,3,-1
 373 978 l 1,0,-1
EndSplineSet
Validated: 1
EndChar

StartChar: ij.salt
Encoding: 1114145 -1 101
Width: 1154
GlyphClass: 2
Flags: W
LayerCount: 2
Fore
SplineSet
771 43 m 1,0,1
 662 -39 662 -39 505 -39 c 1,2,3
 224 -39 224 -39 153 197 c 0,4,5
 132 268 132 268 132 355 c 2,6,-1
 132 1003 l 1,7,-1
 360 1003 l 1,8,-1
 360 355 l 2,9,10
 360 254 360 254 408.5 201.5 c 128,-1,11
 457 149 457 149 564 149 c 0,12,13
 641 149 641 149 675 166 c 0,14,15
 728 192 728 192 771 246 c 1,16,-1
 771 1003 l 1,17,-1
 1000 1003 l 1,18,-1
 1000 22 l 2,19,20
 1000 -350 1000 -350 579 -350 c 0,21,22
 492 -350 492 -350 428 -330 c 2,23,-1
 406 -323 l 1,24,-1
 425 -209 l 1,25,26
 430 -167 430 -167 490 -167 c 0,27,28
 495 -167 495 -167 500 -167 c 1,29,-1
 540 -167 l 2,30,31
 660 -167 660 -167 716 -129 c 0,32,33
 771 -90 771 -90 771 4 c 2,34,-1
 771 43 l 1,0,1
1040 1273 m 128,-1,36
 1040 1228 1040 1228 1027.5 1201.5 c 128,-1,37
 1015 1175 1015 1175 995 1155 c 0,38,39
 950 1111 950 1111 904 1111 c 0,40,41
 828 1111 828 1111 782 1155 c 0,42,43
 732 1198 732 1198 732 1259 c 0,44,45
 732 1322 732 1322 782 1365 c 0,46,47
 830 1409 830 1409 890 1409 c 128,-1,48
 950 1409 950 1409 995 1363.5 c 128,-1,35
 1040 1318 1040 1318 1040 1273 c 128,-1,36
406 1273 m 0,49,50
 406 1270 406 1270 406 1268 c 0,51,52
 406 1228 406 1228 392 1202 c 0,53,54
 378 1176 378 1176 356 1155.5 c 128,-1,55
 334 1135 334 1135 306 1123 c 128,-1,56
 278 1111 278 1111 248 1111 c 0,57,58
 185 1111 185 1111 144 1156 c 0,59,60
 100 1200 100 1200 100 1245 c 0,61,62
 100 1352 100 1352 190 1397 c 0,63,64
 218 1409 218 1409 248 1409 c 0,65,66
 308 1409 308 1409 356.5 1363.5 c 128,-1,67
 405 1318 405 1318 406 1273 c 0,49,50
EndSplineSet
Validated: 1
Ligature2: "sous-table 'dlig' Ligatures facultatives  dans Latin lookup 36" i j
EndChar

StartChar: uni0237
Encoding: 567 567 103
Width: 540
GlyphClass: 2
Flags: W
AnchorPoint: "Ancre-0" 252 1122 basechar 0
AnchorPoint: "Ancre-1" 182 -356 basechar 0
AnchorPoint: "Ancre-2" 490 1515 basechar 0
AnchorPoint: "Ancre-3" 490 -510 basechar 0
AnchorPoint: "Ancre-5" 490 1534 basechar 0
LayerCount: 2
Fore
SplineSet
392 -46 m 2,0,1
 392 -257 392 -257 222 -327 c 0,2,3
 164 -351 164 -351 95 -351 c 128,-1,4
 26 -351 26 -351 -55 -324 c 1,5,-1
 -43 -210 l 2,6,7
 -38 -169 -38 -169 9 -169 c 0,8,9
 13 -169 13 -169 18 -169 c 1,10,-1
 49 -169 l 2,11,12
 114 -169 114 -169 140 -141.5 c 128,-1,13
 166 -114 166 -114 166 -46 c 2,14,-1
 166 978 l 1,15,-1
 392 978 l 1,16,-1
 392 -46 l 2,0,1
EndSplineSet
Validated: 1
EndChar

StartChar: k
Encoding: 107 107 104
Width: 1031
GlyphClass: 2
Flags: W
AnchorPoint: "Ancre-5" 931 1492 basechar 0
AnchorPoint: "Ancre-3" 931 -510 basechar 0
AnchorPoint: "Ancre-2" 931 1515 basechar 0
AnchorPoint: "Ancre-1" 520 70 basechar 0
AnchorPoint: "Ancre-0" 520 1492 basechar 0
LayerCount: 2
Fore
SplineSet
617 539 m 1,0,1
 622 535 622 535 659 498 c 1,2,-1
 660 498 l 1,3,-1
 1028 0 l 1,4,-1
 823 0 l 2,5,6
 766 0 766 0 730 42 c 1,7,-1
 426 421 l 2,8,9
 414 435 414 435 406 438.5 c 128,-1,10
 398 442 398 442 374 442 c 2,11,-1
 354 442 l 1,12,-1
 354 0 l 1,13,-1
 128 0 l 1,14,-1
 128 1422 l 1,15,-1
 354 1422 l 1,16,-1
 354 611 l 1,17,-1
 369 611 l 2,18,19
 393 611 393 611 408 627 c 2,20,-1
 705 936 l 1,21,-1
 705 937 l 1,22,23
 748 978 748 978 801 978 c 2,24,-1
 1013 978 l 1,25,-1
 981 939 l 1,26,-1
 658 573 l 1,27,-1
 658 572 l 1,28,-1
 657 572 l 1,29,30
 640 557 640 557 630 549.5 c 128,-1,31
 620 542 620 542 617 539 c 1,0,1
EndSplineSet
Validated: 1
Substitution2: "sous-table 'smcp' Bas-de-casse vers petites capitales dans Latin lookup 0" k.smcp
Substitution2: "sous-table 'ordn' Ordinaux dans Latin lookup 39" k.superior
Substitution2: "sous-table 'sups' Exposant lookups25" k.superior
EndChar

StartChar: kgreenlandic
Encoding: 312 312 105
Width: 1031
GlyphClass: 2
Flags: W
LayerCount: 2
Fore
SplineSet
615 539 m 1,0,1
 629 528 629 528 656 499 c 1,2,-1
 657 499 l 1,3,-1
 1001 37 l 1,4,-1
 1027 -0 l 1,5,-1
 823 0 l 2,6,7
 768 0 768 0 730 42 c 1,8,-1
 424 421 l 2,9,10
 412 435 412 435 403.5 438.5 c 128,-1,11
 395 442 395 442 372 442 c 2,12,-1
 351 442 l 1,13,-1
 351 0 l 1,14,-1
 125 0 l 1,15,-1
 125 978 l 1,16,-1
 351 978 l 1,17,-1
 351 611 l 1,18,-1
 366 611 l 2,19,20
 392 611 392 611 407 627 c 2,21,-1
 705 937 l 1,22,-1
 706 937 l 1,23,24
 749 978 749 978 801 978 c 2,25,-1
 1012 978 l 1,26,-1
 980 939 l 1,27,-1
 656 573 l 1,28,-1
 656 572 l 1,29,-1
 655 572 l 1,30,31
 638 557 638 557 628 549.5 c 128,-1,32
 618 542 618 542 615 539 c 1,0,1
EndSplineSet
Validated: 1
EndChar

StartChar: lslash
Encoding: 322 322 106
Width: 557
GlyphClass: 2
Flags: W
AnchorPoint: "Ancre-5" 513 1553 basechar 0
AnchorPoint: "Ancre-3" 513 -510 basechar 0
AnchorPoint: "Ancre-2" 513 1515 basechar 0
AnchorPoint: "Ancre-1" 278 10 basechar 0
AnchorPoint: "Ancre-0" 278 1553 basechar 0
LayerCount: 2
Fore
SplineSet
409 1422 m 1,0,-1
 409 925 l 1,1,-1
 537 990 l 1,2,-1
 537 856 l 2,3,4
 537 811 537 811 499 794 c 1,5,-1
 409 748 l 1,6,-1
 409 0 l 1,7,-1
 183 0 l 1,8,-1
 183 656 l 1,9,-1
 46 587 l 1,10,-1
 46 726 l 2,11,12
 46 766 46 766 81 785 c 2,13,-1
 183 838 l 1,14,-1
 183 1422 l 1,15,-1
 409 1422 l 1,0,-1
EndSplineSet
Validated: 1
Substitution2: "sous-table 'smcp' Bas-de-casse vers petites capitales dans Latin lookup 0" lslash.smcp
EndChar

StartChar: m
Encoding: 109 109 108
Width: 1736
GlyphClass: 2
Flags: W
AnchorPoint: "Ancre-5" 1636 1122 basechar 0
AnchorPoint: "Ancre-3" 1636 -510 basechar 0
AnchorPoint: "Ancre-2" 1636 1515 basechar 0
AnchorPoint: "Ancre-1" 828 10 basechar 0
AnchorPoint: "Ancre-0" 822 1122 basechar 0
LayerCount: 2
Fore
SplineSet
580 804 m 0,0,1
 465 804 465 804 373 701 c 1,2,-1
 373 0 l 1,3,-1
 147 0 l 1,4,-1
 147 978 l 1,5,-1
 276 978 l 2,6,7
 338 978 338 978 346 920 c 2,8,-1
 353 872 l 1,9,10
 474 993 474 993 632 993 c 0,11,12
 822 993 822 993 905 828 c 1,13,14
 1011 993 1011 993 1239 993 c 0,15,16
 1416 993 1416 993 1510.5 894.5 c 128,-1,17
 1605 796 1605 796 1605 617 c 2,18,-1
 1605 0 l 1,19,-1
 1379 0 l 1,20,-1
 1379 610 l 2,21,22
 1379 804 1379 804 1194 804 c 0,23,24
 1060 804 1060 804 1010 696 c 0,25,26
 994 660 994 660 993 610 c 2,27,-1
 993 0 l 1,28,-1
 755 0 l 1,29,-1
 755 610 l 2,30,31
 755 804 755 804 580 804 c 0,0,1
EndSplineSet
Validated: 1
Substitution2: "sous-table 'smcp' Bas-de-casse vers petites capitales dans Latin lookup 0" m.smcp
Substitution2: "sous-table 'ordn' Ordinaux dans Latin lookup 39" m.superior
Substitution2: "sous-table 'sups' Exposant lookups25" m.superior
EndChar

StartChar: n
Encoding: 110 110 109
Width: 1176
GlyphClass: 2
Flags: W
AnchorPoint: "Ancre-5" 1076 1122 basechar 0
AnchorPoint: "Ancre-3" 1076 -510 basechar 0
AnchorPoint: "Ancre-2" 1076 1515 basechar 0
AnchorPoint: "Ancre-1" 578 10 basechar 0
AnchorPoint: "Ancre-0" 538 1122 basechar 0
LayerCount: 2
Fore
SplineSet
629 804 m 0,0,1
 479 804 479 804 366 693 c 1,2,-1
 366 0 l 1,3,-1
 140 0 l 1,4,-1
 140 978 l 1,5,-1
 270 978 l 2,6,7
 332 978 332 978 340 920 c 1,8,-1
 348 867 l 1,9,10
 490 993 490 993 687 993 c 0,11,12
 955 993 955 993 1029 767 c 0,13,14
 1051 699 1051 699 1051 617 c 2,15,-1
 1051 0 l 1,16,-1
 825 0 l 1,17,-1
 825 610 l 2,18,19
 825 804 825 804 629 804 c 0,0,1
EndSplineSet
Validated: 1
Substitution2: "sous-table 'smcp' Bas-de-casse vers petites capitales dans Latin lookup 0" n.smcp
Substitution2: "sous-table 'ordn' Ordinaux dans Latin lookup 39" uni207F
Substitution2: "sous-table 'sups' Exposant lookups25" uni207F
EndChar

StartChar: eng
Encoding: 331 331 110
Width: 1176
GlyphClass: 2
Flags: W
AnchorPoint: "Ancre-5" 1076 1122 basechar 0
AnchorPoint: "Ancre-3" 1076 -510 basechar 0
AnchorPoint: "Ancre-2" 1076 1515 basechar 0
AnchorPoint: "Ancre-1" 578 10 basechar 0
AnchorPoint: "Ancre-0" 538 1122 basechar 0
LayerCount: 2
Fore
SplineSet
629 804 m 0,0,1
 479 804 479 804 366 693 c 1,2,-1
 366 0 l 1,3,-1
 140 0 l 1,4,-1
 140 978 l 1,5,-1
 270 978 l 2,6,7
 332 978 332 978 340 920 c 1,8,-1
 348 867 l 1,9,10
 490 993 490 993 687 993 c 0,11,12
 954 993 954 993 1029 766 c 0,13,14
 1051 697 1051 697 1051 614 c 2,15,-1
 1051 19 l 2,16,17
 1051 -144 1051 -144 967 -246 c 0,18,19
 878 -352 878 -352 689 -352 c 0,20,21
 590 -352 590 -352 493 -315 c 1,22,-1
 471 -307 l 1,23,-1
 498 -210 l 1,24,25
 512 -156 512 -156 571 -156 c 0,26,27
 589 -156 589 -156 612 -163 c 128,-1,28
 635 -170 635 -170 671 -170 c 0,29,30
 748 -170 748 -170 787 -129 c 0,31,32
 825 -86 825 -86 825 7 c 2,33,-1
 825 610 l 2,34,35
 825 804 825 804 629 804 c 0,0,1
EndSplineSet
Validated: 1
Substitution2: "sous-table 'smcp' Bas-de-casse vers petites capitales dans Latin lookup 0" eng.smcp
EndChar

StartChar: o
Encoding: 111 111 111
Width: 1180
GlyphClass: 2
Flags: W
AnchorPoint: "Ancre-5" 1080 1122 basechar 0
AnchorPoint: "Ancre-4" 918 550 basechar 0
AnchorPoint: "Ancre-3" 1080 -510 basechar 0
AnchorPoint: "Ancre-2" 1080 1515 basechar 0
AnchorPoint: "Ancre-1" 540 0 basechar 0
AnchorPoint: "Ancre-0" 540 1122 basechar 0
LayerCount: 2
Fore
SplineSet
109 695 m 0,0,1
 179 886 179 886 369 956 c 0,2,3
 467 992 467 992 591 993 c 0,4,5
 959 993 959 993 1071 695 c 0,6,7
 1105 604 1105 604 1105 490 c 0,8,9
 1104 200 1104 200 902 66 c 0,10,11
 780 -14 780 -14 591 -14 c 0,12,13
 342 -14 342 -14 207 125 c 0,14,15
 75 261 75 261 75 490 c 0,16,17
 75 603 75 603 109 695 c 0,0,1
591 806 m 0,18,19
 306 806 306 806 306 489.5 c 128,-1,20
 306 173 306 173 591 173 c 0,21,22
 874 173 874 173 874 489 c 0,23,24
 874 721 874 721 716 785 c 0,25,26
 663 806 663 806 591 806 c 0,18,19
EndSplineSet
Validated: 1
Substitution2: "sous-table 'smcp' Bas-de-casse vers petites capitales dans Latin lookup 0" o.smcp
Substitution2: "sous-table 'ordn' Ordinaux dans Latin lookup 39" o.superior
Substitution2: "sous-table 'sups' Exposant lookups25" o.superior
EndChar

StartChar: oslash
Encoding: 248 248 112
Width: 1184
GlyphClass: 2
Flags: W
AnchorPoint: "Ancre-5" 1080 1122 basechar 0
AnchorPoint: "Ancre-4" 918 550 basechar 0
AnchorPoint: "Ancre-3" 1080 -510 basechar 0
AnchorPoint: "Ancre-2" 1080 1515 basechar 0
AnchorPoint: "Ancre-1" 540 0 basechar 0
AnchorPoint: "Ancre-0" 540 1122 basechar 0
LayerCount: 2
Fore
SplineSet
134 695 m 0,0,1
 246 993 246 993 633 993 c 0,2,3
 772 993 772 993 890 932 c 1,4,-1
 945 1002 l 1,5,6
 967 1032 967 1032 988.5 1046 c 128,-1,7
 1010 1060 1010 1060 1049 1060 c 2,8,-1
 1186 1060 l 1,9,-1
 1016 839 l 1,10,11
 1133 705 1133 705 1133 492 c 0,12,13
 1133 263 1133 263 1001 125 c 0,14,15
 864 -14 864 -14 617 -14 c 0,16,17
 471 -14 471 -14 352 41 c 1,18,-1
 311 -11 l 1,19,20
 266 -74 266 -74 181 -74 c 2,21,-1
 66 -74 l 1,22,-1
 223 132 l 1,23,24
 101 267 101 267 99 489 c 0,25,26
 99 603 99 603 134 695 c 0,0,1
617 812 m 0,27,28
 402 812 402 812 340 613 c 0,29,30
 320 547 320 547 320 446.5 c 128,-1,31
 320 346 320 346 357 266 c 1,32,-1
 767 779 l 1,33,34
 704 812 704 812 617 812 c 0,27,28
475 196 m 1,35,36
 534 168 534 168 612 168 c 0,37,38
 832 168 832 168 890 365 c 0,39,40
 910 430 910 430 910 526 c 128,-1,41
 910 622 910 622 878 699 c 1,42,-1
 475 196 l 1,35,36
EndSplineSet
Validated: 1
Substitution2: "sous-table 'smcp' Bas-de-casse vers petites capitales dans Latin lookup 0" oslash.smcp
EndChar

StartChar: oe
Encoding: 339 339 113
Width: 1840
GlyphClass: 2
Flags: W
LayerCount: 2
Fore
SplineSet
565 993 m 0,0,1
 830 993 830 993 957 795 c 1,2,3
 1085 993 1085 993 1345 993 c 1,4,5
 1530 993 1530 993 1645 868 c 0,6,7
 1762 742 1762 742 1762 533 c 0,8,9
 1762 488 1762 488 1749 465.5 c 128,-1,10
 1736 443 1736 443 1696 443 c 2,11,-1
 1075 443 l 1,12,13
 1087 317 1087 317 1160 244 c 0,14,15
 1232 174 1232 174 1359 174 c 0,16,17
 1456 174 1456 174 1536 218 c 0,18,19
 1568 236 1568 236 1593.5 252 c 128,-1,20
 1619 268 1619 268 1646 268 c 128,-1,21
 1673 268 1673 268 1696 243 c 1,22,-1
 1696 242 l 1,23,-1
 1758 161 l 1,24,25
 1706 101 1706 101 1662 72 c 0,26,27
 1528 -14 1528 -14 1343 -14 c 0,28,29
 1211 -14 1211 -14 1113.5 41 c 128,-1,30
 1016 96 1016 96 959 187 c 1,31,32
 830 -14 830 -14 560 -14 c 0,33,34
 341 -14 341 -14 208 125 c 0,35,36
 79 262 79 262 79 490 c 0,37,38
 79 717 79 717 208 854 c 0,39,40
 341 993 341 993 565 993 c 0,0,1
576 806 m 0,41,42
 310 806 310 806 310 489.5 c 128,-1,43
 310 173 310 173 576 173 c 0,44,45
 841 173 841 173 841 493 c 0,46,47
 841 724 841 724 692 785 c 0,48,49
 643 806 643 806 576 806 c 0,41,42
1555 602 m 1,50,51
 1544 767 1544 767 1431 821 c 0,52,53
 1391 840 1391 840 1335.5 840 c 128,-1,54
 1280 840 1280 840 1234 822 c 0,55,56
 1107 772 1107 772 1079 602 c 1,57,-1
 1555 602 l 1,50,51
EndSplineSet
Validated: 1
Substitution2: "sous-table 'smcp' Bas-de-casse vers petites capitales dans Latin lookup 0" oe.smcp
EndChar

StartChar: p
Encoding: 112 112 114
Width: 1176
GlyphClass: 2
Flags: W
AnchorPoint: "Ancre-5" 1076 1122 basechar 0
AnchorPoint: "Ancre-3" 1076 -510 basechar 0
AnchorPoint: "Ancre-2" 1076 1515 basechar 0
AnchorPoint: "Ancre-1" 230 -320 basechar 0
AnchorPoint: "Ancre-0" 630 1122 basechar 0
LayerCount: 2
Fore
SplineSet
367 67 m 1,0,-1
 367 -330 l 1,1,-1
 141 -330 l 1,2,-1
 141 978 l 1,3,-1
 271 978 l 2,4,5
 333 978 333 978 341 920 c 2,6,-1
 350 859 l 1,7,8
 489 995 489 995 691 995 c 0,9,10
 990 995 990 995 1075 706 c 0,11,12
 1102 614 1102 614 1102 502 c 0,13,14
 1102 213 1102 213 920 72 c 0,15,16
 809 -14 809 -14 638 -14 c 1,17,18
 467 -14 467 -14 367 67 c 1,0,-1
367 262 m 1,19,20
 446 172 446 172 585 172 c 128,-1,21
 724 172 724 172 797.5 254.5 c 128,-1,22
 871 337 871 337 871 495 c 0,23,24
 871 736 871 736 731 787 c 0,25,26
 685 804 685 804 627 804 c 0,27,28
 472 804 472 804 367 684 c 1,29,-1
 367 262 l 1,19,20
EndSplineSet
Validated: 1
Substitution2: "sous-table 'smcp' Bas-de-casse vers petites capitales dans Latin lookup 0" p.smcp
Substitution2: "sous-table 'ordn' Ordinaux dans Latin lookup 39" p.superior
Substitution2: "sous-table 'sups' Exposant lookups25" p.superior
EndChar

StartChar: thorn
Encoding: 254 254 115
Width: 1176
GlyphClass: 2
Flags: W
LayerCount: 2
Fore
SplineSet
370 876 m 1,0,1
 506 993 506 993 694 993 c 0,2,3
 992 993 992 993 1075 706 c 0,4,5
 1102 614 1102 614 1102 501.5 c 128,-1,6
 1102 389 1102 389 1072 296 c 0,7,8
 1010 102 1010 102 843 26 c 0,9,10
 750 -14 750 -14 638 -14 c 128,-1,11
 526 -14 526 -14 451 23 c 1,12,13
 407 24 407 24 370 25 c 1,14,-1
 370 -330 l 1,15,-1
 144 -330 l 1,16,-1
 144 1422 l 1,17,-1
 370 1422 l 1,18,-1
 370 876 l 1,0,1
370 262 m 1,19,20
 449 172 449 172 587.5 172 c 128,-1,21
 726 172 726 172 798.5 254.5 c 128,-1,22
 871 337 871 337 871 495 c 0,23,24
 871 736 871 736 732 787 c 0,25,26
 686 804 686 804 629 804 c 0,27,28
 475 804 475 804 370 684 c 1,29,-1
 370 262 l 1,19,20
EndSplineSet
Validated: 1
Substitution2: "sous-table 'smcp' Bas-de-casse vers petites capitales dans Latin lookup 0" thorn.smcp
EndChar

StartChar: q
Encoding: 113 113 116
Width: 1176
GlyphClass: 2
Flags: W
AnchorPoint: "Ancre-5" 1076 1122 basechar 0
AnchorPoint: "Ancre-3" 1076 -510 basechar 0
AnchorPoint: "Ancre-2" 1076 1515 basechar 0
AnchorPoint: "Ancre-1" 847 -320 basechar 0
AnchorPoint: "Ancre-0" 490 1122 basechar 0
LayerCount: 2
Fore
SplineSet
543 995 m 0,0,1
 723 995 723 995 830 896 c 1,2,-1
 834 922 l 2,3,4
 839 948 839 948 858.5 963 c 128,-1,5
 878 978 878 978 905 978 c 2,6,-1
 1035 978 l 1,7,-1
 1035 -330 l 1,8,-1
 809 -330 l 1,9,-1
 809 105 l 1,10,11
 671 -14 671 -14 485 -14 c 0,12,13
 285 -14 285 -14 179 119 c 0,14,15
 74 249 74 249 74 486 c 0,16,17
 74 705 74 705 191 845 c 0,18,19
 315 995 315 995 543 995 c 0,0,1
809 720 m 1,20,21
 729 810 729 810 590 810 c 1,22,23
 452 810 452 810 378.5 727.5 c 128,-1,24
 305 645 305 645 305 487 c 0,25,26
 305 245 305 245 445 194 c 0,27,28
 490 177 490 177 548 177 c 0,29,30
 698 177 698 177 809 297 c 1,31,-1
 809 720 l 1,20,21
EndSplineSet
Validated: 1
Substitution2: "sous-table 'smcp' Bas-de-casse vers petites capitales dans Latin lookup 0" q.smcp
Substitution2: "sous-table 'ordn' Ordinaux dans Latin lookup 39" q.superior
Substitution2: "sous-table 'sups' Exposant lookups25" q.superior
EndChar

StartChar: r
Encoding: 114 114 117
Width: 764
GlyphClass: 2
Flags: W
AnchorPoint: "Ancre-5" 714 1122 basechar 0
AnchorPoint: "Ancre-3" 714 -510 basechar 0
AnchorPoint: "Ancre-2" 714 1515 basechar 0
AnchorPoint: "Ancre-1" 219 10 basechar 0
AnchorPoint: "Ancre-0" 418 1122 basechar 0
LayerCount: 2
Fore
SplineSet
657 762 m 1,0,-1
 561 773 l 1,1,2
 450 773 450 773 393 674 c 0,3,4
 374 642 374 642 357 600 c 1,5,-1
 357 0 l 1,6,-1
 131 0 l 1,7,-1
 131 978 l 1,8,-1
 257 978 l 2,9,10
 329 978 329 978 335 907 c 2,11,-1
 340 845 l 1,12,13
 441 995 441 995 592 995 c 0,14,15
 670 995 670 995 725 954 c 1,16,-1
 710 809 l 1,17,18
 704 762 704 762 657 762 c 1,0,-1
EndSplineSet
Validated: 1
Substitution2: "sous-table 'smcp' Bas-de-casse vers petites capitales dans Latin lookup 0" r.smcp
Substitution2: "sous-table 'ordn' Ordinaux dans Latin lookup 39" r.superior
Substitution2: "sous-table 'sups' Exposant lookups25" r.superior
EndChar

StartChar: s
Encoding: 115 115 118
Width: 901
GlyphClass: 2
Flags: W
AnchorPoint: "Ancre-5" 801 1122 basechar 0
AnchorPoint: "Ancre-3" 801 -510 basechar 0
AnchorPoint: "Ancre-2" 801 1515 basechar 0
AnchorPoint: "Ancre-1" 382 -10 basechar 0
AnchorPoint: "Ancre-0" 418 1122 basechar 0
LayerCount: 2
Fore
SplineSet
444 160 m 1,0,1
 625 160 625 160 625 286 c 0,2,3
 625 340 625 340 557 371 c 0,4,5
 518 388 518 388 468 400 c 0,6,7
 327 435 327 435 274 458 c 0,8,9
 102 532 102 532 102 701 c 0,10,11
 102 823 102 823 196 905 c 0,12,13
 297 993 297 993 490 993 c 0,14,15
 705 993 705 993 831 857 c 1,16,-1
 783 778 l 2,17,18
 763 744 763 744 733 744 c 0,19,20
 702 744 702 744 682 756 c 0,21,22
 589 812 589 812 495 813 c 0,23,24
 416 813 416 813 379 789 c 0,25,26
 320 750 320 750 320 708 c 0,27,28
 320 656 320 656 393 626 c 0,29,30
 436 608 436 608 586 569 c 1,31,32
 702 532 702 532 748 493 c 0,33,34
 837 418 837 418 839 307 c 0,35,36
 839 166 839 166 741 78 c 0,37,38
 637 -15 637 -15 434 -15 c 1,39,40
 216 -15 216 -15 85 111 c 1,41,-1
 70 125 l 1,42,-1
 122 208 l 2,43,44
 146 247 146 247 180 247 c 0,45,-1
 181 246 l 0,46,47
 216 246 216 246 237 230 c 0,48,49
 258 216 258 216 282 200 c 0,50,51
 343 160 343 160 444 160 c 1,0,1
EndSplineSet
Validated: 1
Substitution2: "sous-table 'sups' Exposant lookups25" s.superior
Substitution2: "sous-table 'ordn' Ordinaux dans Latin lookup 39" s.superior
Substitution2: "sous-table 'smcp' Bas-de-casse vers petites capitales dans Latin lookup 0" s.smcp
EndChar

StartChar: scedilla
Encoding: 351 351 119
Width: 901
GlyphClass: 2
Flags: W
AnchorPoint: "Ancre-5" 801 1122 basechar 0
AnchorPoint: "Ancre-3" 801 -510 basechar 0
AnchorPoint: "Ancre-2" 801 1515 basechar 0
AnchorPoint: "Ancre-1" 382 -310 basechar 0
AnchorPoint: "Ancre-0" 418 1492 basechar 0
LayerCount: 2
Fore
SplineSet
475 -183 m 0,0,1
 475 -163 475 -163 437 -152 c 128,-1,2
 399 -141 399 -141 313 -132 c 1,3,-1
 283 -128 l 1,4,-1
 324 -7 l 1,5,6
 184 16 184 16 85 105 c 1,7,-1
 70 119 l 1,8,-1
 122 198 l 2,9,10
 145 233 145 233 180.5 234 c 128,-1,11
 216 235 216 235 237 220 c 0,12,13
 295 178 295 178 339.5 165 c 128,-1,14
 384 152 384 152 439 152 c 0,15,16
 625 152 625 152 625 279 c 0,17,18
 625 334 625 334 557 365 c 0,19,20
 519 381 519 381 469 394 c 0,21,22
 320 433 320 433 270 454 c 0,23,24
 102 527 102 527 102 698 c 0,25,26
 102 821 102 821 196 905 c 0,27,28
 297 993 297 993 490 993 c 0,29,30
 705 993 705 993 831 857 c 1,31,-1
 783 778 l 2,32,33
 763 744 763 744 733 744 c 0,34,35
 702 744 702 744 682 756 c 0,36,37
 589 812 589 812 495 813 c 0,38,39
 416 813 416 813 379 789 c 0,40,41
 320 750 320 750 320 708 c 0,42,43
 320 656 320 656 393 626 c 0,44,45
 436 608 436 608 586 569 c 1,46,47
 702 532 702 532 748 493 c 0,48,49
 837 418 837 418 839 307 c 0,50,51
 839 176 839 176 753 90 c 0,52,53
 665 2 665 2 512 -11 c 1,54,-1
 506 -28 l 1,55,56
 598 -47 598 -47 641 -84 c 128,-1,57
 684 -121 684 -121 684 -172 c 0,58,59
 684 -260 684 -260 614 -304 c 0,60,61
 545 -344 545 -344 417 -344 c 0,62,63
 322 -344 322 -344 247 -312 c 1,64,-1
 228 -302 l 1,65,-1
 251 -227 l 1,66,67
 265 -193 265 -193 297 -193 c 0,68,69
 310 -194 310 -194 320 -198 c 0,70,71
 360 -216 360 -216 414 -216 c 0,72,73
 416 -216 416 -216 417 -216 c 0,74,75
 473 -216 473 -216 475 -183 c 0,0,1
EndSplineSet
Validated: 1
Substitution2: "sous-table 'smcp' Bas-de-casse vers petites capitales dans Latin lookup 0" scedilla.smcp
LCarets2: 1 0
Ligature2: "sous-table 'ccmp' Composition et d+AOkA-composition de glyphe (CJK) lookups10" s uni0327
Substitution2: "sous-table 'salt' Alternatives stylistiques dans Latin lookup 8" uni0219
EndChar

StartChar: s_t.dlig
Encoding: 1114146 -1 120
Width: 1554
GlyphClass: 3
Flags: W
LayerCount: 2
Fore
SplineSet
1279 269 m 2,0,1
 1279 178 1279 178 1349 178 c 0,2,3
 1378 178 1378 178 1397 191.5 c 128,-1,4
 1416 205 1416 205 1427.5 214.5 c 128,-1,5
 1439 224 1439 224 1461.5 224 c 128,-1,6
 1484 224 1484 224 1501 195 c 1,7,-1
 1565 94 l 1,8,-1
 1550 80 l 1,9,10
 1455 -15 1455 -15 1318 -15 c 128,-1,11
 1181 -15 1181 -15 1111 55.5 c 128,-1,12
 1041 126 1041 126 1041 253 c 2,13,-1
 1041 807 l 1,14,-1
 959 807 l 2,15,16
 933 807 933 807 913.5 823.5 c 128,-1,17
 894 840 894 840 894 868 c 2,18,-1
 894 956 l 1,19,-1
 1060 977 l 1,20,21
 1065 997 1065 997 1072 1022.5 c 128,-1,22
 1079 1048 1079 1048 1085 1078 c 0,23,24
 1099 1149 1099 1149 1099 1194 c 0,25,26
 1099 1383 1099 1383 908 1383 c 0,27,28
 789 1383 789 1383 727 1315 c 0,29,30
 667 1254 667 1254 667 1168 c 0,31,32
 667 1008 667 1008 808 895 c 1,33,-1
 831 877 l 1,34,-1
 794 849 l 1,35,-1
 764 803 l 2,36,37
 744 769 744 769 712 769 c 0,38,39
 680 770 680 770 659 782 c 0,40,41
 564 838 564 838 480 838 c 0,42,43
 372 838 372 838 338 769 c 0,44,45
 328 750 328 750 328 724 c 0,46,47
 328 677 328 677 391 645 c 0,48,49
 424 629 424 629 468 615 c 0,50,51
 605 571 605 571 652 551 c 0,52,53
 823 476 823 476 823 315 c 0,54,55
 823 167 823 167 719 79 c 0,56,57
 610 -15 610 -15 427 -15 c 1,58,59
 225 -15 225 -15 94 111 c 1,60,-1
 79 125 l 1,61,-1
 131 208 l 2,62,63
 155 247 155 247 189 247 c 0,64,-1
 190 246 l 0,65,66
 225 246 225 246 246 230 c 0,67,68
 304 187 304 187 343.5 173.5 c 128,-1,69
 383 160 383 160 431 160 c 128,-1,70
 479 160 479 160 509.5 171 c 128,-1,71
 540 182 540 182 559 199 c 0,72,73
 598 234 598 234 598 278 c 0,74,75
 598 322 598 322 581 342 c 0,76,77
 550 379 550 379 482 400 c 0,78,79
 322 450 322 450 275 471 c 0,80,81
 111 547 111 547 111 718 c 0,82,83
 111 845 111 845 205 929 c 0,84,85
 305 1018 305 1018 475 1018 c 0,86,87
 514 1018 514 1018 552 1013 c 1,88,89
 525 1084 525 1084 525 1156 c 0,90,91
 525 1308 525 1308 619 1403 c 0,92,93
 722 1508 722 1508 908 1508 c 0,94,95
 1087 1508 1087 1508 1189 1406 c 0,96,97
 1279 1314 1279 1314 1279 1181 c 2,98,-1
 1279 985 l 1,99,-1
 1535 985 l 1,100,-1
 1535 807 l 1,101,-1
 1279 807 l 1,102,-1
 1279 269 l 2,0,1
EndSplineSet
Validated: 1
Ligature2: "sous-table 'dlig' Ligatures facultatives  dans Latin lookup 36" s t
EndChar

StartChar: glyph121
Encoding: 1114147 -1 121
Width: 1554
GlyphClass: 3
Flags: W
LayerCount: 2
Fore
SplineSet
486 -35 m 1,0,1
 658 -75 658 -75 658 -188 c 0,2,3
 658 -261 658 -261 583 -305 c 0,4,5
 515 -344 515 -344 410 -344 c 0,6,7
 327 -344 327 -344 254 -312 c 1,8,-1
 234 -302 l 1,9,-1
 258 -227 l 2,10,11
 269 -193 269 -193 304 -193 c 0,12,13
 316 -194 316 -194 326 -198 c 0,14,15
 362 -216 362 -216 408 -216 c 0,16,17
 408 -216 408 -216 410 -216 c 0,18,19
 458 -216 458 -216 460 -184 c 0,20,21
 460 -165 460 -165 427 -154 c 128,-1,22
 394 -143 394 -143 319 -133 c 2,23,-1
 290 -129 l 1,24,-1
 330 -11 l 1,25,26
 189 13 189 13 93 105 c 1,27,-1
 79 118 l 1,28,-1
 131 200 l 2,29,30
 154 238 154 238 189.5 238 c 128,-1,31
 225 238 225 238 246 222 c 0,32,33
 304 179 304 179 342 166 c 128,-1,34
 380 153 380 153 406 153 c 2,35,-1
 435 153 l 2,36,37
 555 153 555 153 588 233 c 0,38,39
 598 257 598 257 598 286 c 0,40,41
 598 359 598 359 458 402 c 0,42,43
 329 442 329 442 279 465 c 0,44,45
 111 540 111 540 111 715 c 0,46,47
 111 842 111 842 205 928 c 0,48,49
 304 1018 304 1018 475 1018 c 0,50,51
 514 1018 514 1018 552 1013 c 1,52,53
 525 1084 525 1084 525 1156 c 0,54,55
 525 1308 525 1308 619 1403 c 0,56,57
 722 1508 722 1508 908 1508 c 0,58,59
 1087 1508 1087 1508 1189 1406 c 0,60,61
 1279 1314 1279 1314 1279 1181 c 2,62,-1
 1279 985 l 1,63,-1
 1535 985 l 1,64,-1
 1535 807 l 1,65,-1
 1279 807 l 1,66,-1
 1279 248 l 2,67,68
 1279 153 1279 153 1349 153 c 0,69,70
 1385 153 1385 153 1411.5 176 c 128,-1,71
 1438 199 1438 199 1461 199 c 128,-1,72
 1484 199 1484 199 1501 170 c 1,73,-1
 1565 69 l 1,74,-1
 1550 55 l 1,75,76
 1455 -40 1455 -40 1318 -40 c 128,-1,77
 1181 -40 1181 -40 1111 32 c 128,-1,78
 1041 104 1041 104 1041 232 c 2,79,-1
 1041 807 l 1,80,-1
 959 807 l 2,81,82
 933 807 933 807 913.5 823.5 c 128,-1,83
 894 840 894 840 893 868 c 1,84,-1
 893 956 l 1,85,-1
 1060 977 l 1,86,87
 1065 997 1065 997 1072 1022.5 c 128,-1,88
 1079 1048 1079 1048 1085 1078 c 0,89,90
 1099 1149 1099 1149 1099 1194 c 0,91,92
 1099 1383 1099 1383 908 1383 c 0,93,94
 790 1383 790 1383 726 1315 c 0,95,96
 667 1254 667 1254 667 1168 c 0,97,98
 667 1007 667 1007 808 895 c 1,99,-1
 831 877 l 1,100,-1
 793 849 l 1,101,-1
 764 803 l 2,102,103
 744 769 744 769 712 769 c 0,104,105
 680 770 680 770 659 782 c 0,106,107
 564 838 564 838 480 838 c 0,108,109
 371 838 371 838 338 768 c 0,110,111
 328 748 328 748 328 722 c 0,112,113
 328 655 328 655 467 613 c 0,114,115
 600 572 600 572 650 550 c 0,116,117
 823 474 823 474 823 311 c 0,118,119
 823 174 823 174 732 84 c 0,120,121
 643 -4 643 -4 492 -18 c 1,122,-1
 486 -35 l 1,0,1
EndSplineSet
Validated: 1
EndChar

StartChar: germandbls
Encoding: 223 223 122
Width: 1180
GlyphClass: 2
Flags: W
LayerCount: 2
Fore
SplineSet
165 1123 m 0,0,1
 274 1404 274 1404 631 1404 c 0,2,3
 844 1404 844 1404 954 1294 c 0,4,5
 1049 1199 1049 1199 1049 1078 c 0,6,7
 1049 930 1049 930 910 833 c 0,8,9
 878 810 878 810 848 790 c 0,10,11
 785 746 785 746 784 714.5 c 128,-1,12
 783 683 783 683 804.5 664 c 128,-1,13
 826 645 826 645 862 626 c 0,14,15
 900 606 900 606 942 584 c 0,16,17
 1113 494 1113 494 1113 315 c 0,18,19
 1113 162 1113 162 1006 72 c 0,20,21
 904 -15 904 -15 737 -15 c 0,22,23
 735 -15 735 -15 733 -15 c 1,24,25
 539 -15 539 -15 394 110 c 1,26,-1
 378 124 l 1,27,-1
 436 208 l 2,28,29
 462 247 462 247 500 247 c 0,30,-1
 501 246 l 0,31,32
 540 246 540 246 563 230 c 0,33,34
 624 188 624 188 664 174 c 0,35,36
 702 160 702 160 744 160 c 0,37,38
 819 160 819 160 849 188 c 0,39,40
 898 233 898 233 898 284.5 c 128,-1,41
 898 336 898 336 876 363 c 0,42,43
 841 406 841 406 759 439.5 c 128,-1,44
 677 473 677 473 631 501 c 0,45,46
 523 567 523 567 523 682 c 0,47,48
 523 775 523 775 609 847 c 0,49,50
 644 877 644 877 684 902 c 0,51,52
 773 958 773 958 798 997 c 0,53,54
 825 1036 825 1036 825 1077 c 0,55,56
 825 1103 825 1103 814 1129 c 0,57,58
 794 1182 794 1182 718 1210 c 0,59,60
 680 1224 680 1224 620 1225 c 0,61,62
 432 1225 432 1225 375 1060 c 0,63,64
 357 1006 357 1006 357 932 c 2,65,-1
 357 0 l 1,66,-1
 131 0 l 1,67,-1
 131 939 l 2,68,69
 131 1039 131 1039 165 1123 c 0,0,1
EndSplineSet
Validated: 1
Substitution2: "sous-table 'smcp' Bas-de-casse vers petites capitales dans Latin lookup 0" germandbls.smcp
EndChar

StartChar: longs
Encoding: 383 383 123
Width: 547
GlyphClass: 2
Flags: W
LayerCount: 2
Fore
SplineSet
165 1028 m 2,0,1
 165 1296 165 1296 369 1378 c 0,2,3
 433 1404 433 1404 508.5 1404 c 128,-1,4
 584 1404 584 1404 653 1377 c 1,5,-1
 652 1358 l 1,6,-1
 645 1267 l 2,7,8
 641 1225 641 1225 583 1225 c 0,9,10
 577 1225 577 1225 571 1225 c 1,11,-1
 540 1225 l 2,12,13
 466 1225 466 1225 432 1183 c 0,14,15
 391 1133 391 1133 391 1023 c 2,16,-1
 391 0 l 1,17,-1
 165 0 l 1,18,-1
 165 793 l 1,19,-1
 91 803 l 1,20,21
 38 808 38 808 26 850 c 0,22,23
 24 858 24 858 23 868 c 2,24,-1
 23 960 l 1,25,-1
 165 960 l 1,26,-1
 165 1028 l 2,0,1
EndSplineSet
Validated: 1
EndChar

StartChar: t
Encoding: 116 116 124
Width: 786
GlyphClass: 2
Flags: W
AnchorPoint: "Ancre-5" 686 1434 basechar 0
AnchorPoint: "Ancre-3" 686 -510 basechar 0
AnchorPoint: "Ancre-2" 686 1515 basechar 0
AnchorPoint: "Ancre-1" 418 0 basechar 0
AnchorPoint: "Ancre-0" 291 1434 basechar 0
LayerCount: 2
Fore
SplineSet
680 72 m 1,0,1
 575 -15 575 -15 435 -15 c 128,-1,2
 295 -15 295 -15 226 59.5 c 128,-1,3
 157 134 157 134 157 264 c 2,4,-1
 157 806 l 1,5,-1
 67 806 l 2,6,7
 47 806 47 806 33 819.5 c 128,-1,8
 19 833 19 833 19 859 c 2,9,-1
 19 960 l 1,10,-1
 170 989 l 1,11,-1
 223 1251 l 2,12,13
 232 1292 232 1292 279 1292 c 2,14,-1
 411 1292 l 1,15,-1
 411 986 l 1,16,-1
 656 986 l 1,17,-1
 656 806 l 1,18,-1
 411 806 l 1,19,-1
 411 281 l 2,20,21
 411 188 411 188 484 188 c 0,22,23
 514 188 514 188 530 198 c 0,24,25
 559 218 559 218 570 218 c 0,26,27
 587 218 587 218 603 195 c 2,28,-1
 680 72 l 1,0,1
EndSplineSet
Validated: 1
Substitution2: "sous-table 'smcp' Bas-de-casse vers petites capitales dans Latin lookup 0" t.smcp
Substitution2: "sous-table 'ordn' Ordinaux dans Latin lookup 39" t.superior
Substitution2: "sous-table 'sups' Exposant lookups25" t.superior
EndChar

StartChar: tbar
Encoding: 359 359 126
Width: 800
GlyphClass: 2
Flags: W
AnchorPoint: "Ancre-0" 305 1434 basechar 0
AnchorPoint: "Ancre-1" 432 0 basechar 0
AnchorPoint: "Ancre-2" 700 1515 basechar 0
AnchorPoint: "Ancre-3" 700 -510 basechar 0
AnchorPoint: "Ancre-5" 700 1434 basechar 0
LayerCount: 2
Fore
SplineSet
42 693 m 1,0,-1
 182 693 l 1,1,-1
 182 782 l 1,2,-1
 95 782 l 2,3,4
 70 782 70 782 52 799 c 128,-1,5
 34 816 34 816 34 846 c 2,6,-1
 34 938 l 1,7,-1
 191 958 l 1,8,-1
 229 1240 l 2,9,10
 232 1264 232 1264 250 1279.5 c 128,-1,11
 268 1295 268 1295 297 1295 c 2,12,-1
 443 1295 l 1,13,-1
 443 960 l 1,14,-1
 727 960 l 1,15,-1
 727 782 l 1,16,-1
 443 782 l 1,17,-1
 443 693 l 1,18,-1
 732 693 l 1,19,-1
 732 532 l 1,20,-1
 443 532 l 1,21,-1
 443 267 l 2,22,23
 443 220 443 220 469.5 199 c 128,-1,24
 496 178 496 178 524 178 c 0,25,26
 570 178 570 178 588.5 192 c 128,-1,27
 607 206 607 206 619.5 215 c 128,-1,28
 632 224 632 224 648 224 c 0,29,30
 674 224 674 224 695 195 c 1,31,-1
 746 111 l 1,32,-1
 757 94 l 1,33,-1
 742 80 l 1,34,35
 639 -15 639 -15 484 -15 c 1,36,37
 329 -15 329 -15 250 55 c 1,38,39
 182 124 182 124 182 249 c 2,40,-1
 182 532 l 1,41,-1
 42 532 l 1,42,-1
 42 693 l 1,0,-1
EndSplineSet
Validated: 1
Substitution2: "sous-table 'smcp' Bas-de-casse vers petites capitales dans Latin lookup 0" tbar.smcp
EndChar

StartChar: t_f.liga
Encoding: 1114148 -1 127
Width: 1354
GlyphClass: 3
Flags: W
LayerCount: 2
Fore
SplineSet
859 1198 m 0,0,1
 910 1330 910 1330 1052 1380 c 0,2,3
 1120 1404 1120 1404 1192 1404 c 128,-1,4
 1264 1404 1264 1404 1342 1378 c 1,5,-1
 1336 1270 l 1,6,7
 1332 1226 1332 1226 1289 1222 c 0,8,9
 1266 1219 1266 1219 1228 1219 c 0,10,11
 1151 1219 1151 1219 1122 1191 c 0,12,13
 1068 1139 1068 1139 1068 1042 c 2,14,-1
 1068 985 l 1,15,-1
 1332 985 l 1,16,-1
 1332 807 l 1,17,-1
 1074 807 l 1,18,-1
 1074 0 l 1,19,-1
 833 0 l 1,20,-1
 833 807 l 1,21,-1
 411 807 l 1,22,-1
 411 269 l 2,23,24
 411 178 411 178 488 178 c 0,25,26
 529 178 529 178 559.5 201 c 128,-1,27
 590 224 590 224 608 224 c 0,28,29
 637 224 637 224 657 195 c 2,30,-1
 723 94 l 1,31,-1
 708 80 l 1,32,33
 600 -15 600 -15 457 -15 c 128,-1,34
 314 -15 314 -15 245.5 55.5 c 128,-1,35
 177 126 177 126 177 253 c 2,36,-1
 177 807 l 1,37,-1
 94 807 l 2,38,39
 68 807 68 807 50 824 c 128,-1,40
 32 841 32 841 32 871 c 2,41,-1
 32 963 l 1,42,-1
 186 983 l 1,43,-1
 224 1265 l 2,44,45
 227 1289 227 1289 245 1304.5 c 128,-1,46
 263 1320 263 1320 290 1320 c 2,47,-1
 411 1320 l 1,48,-1
 411 985 l 1,49,-1
 833 985 l 1,50,-1
 833 1049 l 2,51,52
 833 1132 833 1132 859 1198 c 0,0,1
EndSplineSet
Validated: 1
Ligature2: "sous-table 'liga' Ligatures standard dans Latin lookup 37" t f
EndChar

StartChar: t_iogonek.liga
Encoding: 1114149 -1 128
Width: 1241
GlyphClass: 3
Flags: W
LayerCount: 2
Fore
SplineSet
1061 -4 m 1,0,1
 974 -60 974 -60 974 -117.5 c 128,-1,2
 974 -175 974 -175 1029 -175 c 0,3,4
 1064 -175 1064 -175 1080 -164 c 128,-1,5
 1096 -153 1096 -153 1108 -153 c 0,6,7
 1137 -153 1137 -153 1149 -180 c 2,8,-1
 1176 -245 l 1,9,-1
 1183 -263 l 1,10,11
 1099 -330 1099 -330 998.5 -330 c 128,-1,12
 898 -330 898 -330 839 -286 c 128,-1,13
 780 -242 780 -242 780 -162.5 c 128,-1,14
 780 -83 780 -83 866 -7 c 1,15,-1
 862 -7 l 1,16,-1
 862 807 l 1,17,-1
 413 807 l 1,18,-1
 413 248 l 2,19,20
 413 153 413 153 490 153 c 0,21,22
 531 153 531 153 561.5 176 c 128,-1,23
 592 199 592 199 610 199 c 0,24,25
 640 199 640 199 661 170 c 2,26,-1
 728 69 l 1,27,-1
 712 55 l 2,28,29
 523 -41 523 -41 467 -41 c 0,30,31
 462 -41 462 -41 458 -40 c 1,32,33
 314 -40 314 -40 245.5 32.5 c 128,-1,34
 177 105 177 105 177 236 c 2,35,-1
 177 807 l 1,36,-1
 94 807 l 2,37,38
 68 807 68 807 50 824 c 128,-1,39
 32 841 32 841 32 871 c 2,40,-1
 32 963 l 1,41,-1
 186 983 l 1,42,-1
 223 1265 l 1,43,-1
 223 1267 l 1,44,45
 235 1320 235 1320 289 1320 c 2,46,-1
 413 1320 l 1,47,-1
 413 985 l 1,48,-1
 1094 985 l 1,49,-1
 1094 -4 l 1,50,-1
 1061 -4 l 1,0,1
1083.5 1155.5 m 128,-1,52
 1039 1111 1039 1111 995 1111 c 128,-1,53
 951 1111 951 1111 923 1123 c 0,54,55
 864 1148 864 1148 839 1202 c 0,56,57
 827 1229 827 1229 827 1259.5 c 128,-1,58
 827 1290 827 1290 839 1317 c 0,59,60
 864 1372 864 1372 923 1397 c 0,61,62
 950 1409 950 1409 980 1409 c 0,63,64
 1038 1409 1038 1409 1083 1365.5 c 128,-1,65
 1128 1322 1128 1322 1128 1261 c 128,-1,51
 1128 1200 1128 1200 1083.5 1155.5 c 128,-1,52
EndSplineSet
Validated: 1
Ligature2: "sous-table 'liga' Ligatures standard dans Latin lookup 37" t iogonek
EndChar

StartChar: t_dotlessi.liga
Encoding: 1114150 -1 129
Width: 1241
GlyphClass: 3
Flags: W
LayerCount: 2
Fore
SplineSet
223 1244 m 1,0,1
 235 1295 235 1295 289 1295 c 2,2,-1
 415 1295 l 1,3,-1
 415 985 l 1,4,-1
 1094 985 l 1,5,-1
 1094 0 l 1,6,-1
 868 0 l 1,7,-1
 868 807 l 1,8,-1
 415 807 l 1,9,-1
 415 269 l 2,10,11
 415 178 415 178 493 178 c 0,12,13
 528 178 528 178 548.5 191.5 c 128,-1,14
 569 205 569 205 582.5 214.5 c 128,-1,15
 596 224 596 224 615 224 c 0,16,17
 646 224 646 224 666 195 c 2,18,-1
 734 94 l 1,19,-1
 718 80 l 2,20,21
 609 -15 609 -15 461 -15 c 1,22,23
 314 -15 314 -15 245.5 55.5 c 128,-1,24
 177 126 177 126 177 253 c 2,25,-1
 177 807 l 1,26,-1
 94 807 l 2,27,28
 68 807 68 807 50 823.5 c 128,-1,29
 32 840 32 840 32 868 c 2,30,-1
 32 955 l 1,31,-1
 186 974 l 1,32,-1
 223 1242 l 1,33,-1
 223 1244 l 1,0,1
EndSplineSet
Validated: 1
Ligature2: "sous-table 'liga' Ligatures standard dans Latin lookup 37" t dotlessi
EndChar

StartChar: t_t.liga
Encoding: 1114151 -1 130
Width: 1399
GlyphClass: 3
Flags: W
LayerCount: 2
Fore
SplineSet
1066 269 m 2,0,1
 1066 178 1066 178 1144 178 c 0,2,3
 1190 178 1190 178 1229 212 c 0,4,5
 1245 224 1245 224 1267 224 c 128,-1,6
 1289 224 1289 224 1306 195 c 1,7,-1
 1370 94 l 1,8,-1
 1355 80 l 1,9,10
 1252 -15 1252 -15 1111.5 -15 c 128,-1,11
 971 -15 971 -15 898 55.5 c 128,-1,12
 825 126 825 126 825 253 c 2,13,-1
 825 807 l 1,14,-1
 417 807 l 1,15,-1
 417 269 l 2,16,17
 417 221 417 221 439.5 199.5 c 128,-1,18
 462 178 462 178 491 178 c 0,19,20
 537 178 537 178 557 192 c 128,-1,21
 577 206 577 206 590.5 215 c 128,-1,22
 604 224 604 224 622 224 c 0,23,24
 651 224 651 224 671 195 c 2,25,-1
 737 94 l 1,26,-1
 721 80 l 2,27,28
 531 -16 531 -16 475 -16 c 0,29,30
 470 -16 470 -16 467 -15 c 1,31,32
 322 -15 322 -15 252.5 55.5 c 128,-1,33
 183 126 183 126 183 253 c 2,34,-1
 183 807 l 1,35,-1
 96 807 l 2,36,37
 70 807 70 807 52 823.5 c 128,-1,38
 34 840 34 840 34 868 c 2,39,-1
 34 955 l 1,40,-1
 192 974 l 1,41,-1
 230 1242 l 2,42,43
 233 1265 233 1265 251 1280 c 128,-1,44
 269 1295 269 1295 296 1295 c 2,45,-1
 417 1295 l 1,46,-1
 417 985 l 1,47,-1
 835 985 l 1,48,-1
 875 1243 l 2,49,50
 878 1266 878 1266 897.5 1280.5 c 128,-1,51
 917 1295 917 1295 943 1295 c 2,52,-1
 1066 1295 l 1,53,-1
 1066 985 l 1,54,-1
 1340 985 l 1,55,-1
 1340 807 l 1,56,-1
 1066 807 l 1,57,-1
 1066 269 l 2,0,1
EndSplineSet
Validated: 1
Ligature2: "sous-table 'liga' Ligatures standard dans Latin lookup 37" t t
EndChar

StartChar: t_t_f.liga
Encoding: 1114152 -1 131
Width: 1967
GlyphClass: 3
Flags: W
LayerCount: 2
Fore
SplineSet
1549 1310 m 0,0,1
 1648 1404 1648 1404 1804 1404 c 0,2,3
 1876 1404 1876 1404 1954 1378 c 1,4,-1
 1948 1271 l 2,5,6
 1946 1226 1946 1226 1902 1222 c 0,7,8
 1878 1219 1878 1219 1840 1219 c 0,9,10
 1762 1219 1762 1219 1732 1191 c 0,11,12
 1679 1140 1679 1140 1679 1042 c 2,13,-1
 1679 985 l 1,14,-1
 1945 985 l 1,15,-1
 1945 807 l 1,16,-1
 1685 807 l 1,17,-1
 1685 0 l 1,18,-1
 1451 0 l 1,19,-1
 1451 807 l 1,20,-1
 1033 807 l 1,21,-1
 1033 269 l 2,22,23
 1033 221 1033 221 1054.5 199.5 c 128,-1,24
 1076 178 1076 178 1103 178 c 0,25,26
 1145 178 1145 178 1165.5 191.5 c 128,-1,27
 1186 205 1186 205 1198.5 214.5 c 128,-1,28
 1211 224 1211 224 1228 224 c 0,29,30
 1257 224 1257 224 1275 195 c 2,31,-1
 1340 94 l 1,32,-1
 1325 80 l 1,33,34
 1142 -16 1142 -16 1089 -16 c 0,35,36
 1084 -16 1084 -16 1080 -15 c 1,37,38
 941 -15 941 -15 870 55.5 c 128,-1,39
 799 126 799 126 799 253 c 2,40,-1
 799 807 l 1,41,-1
 411 807 l 1,42,-1
 411 269 l 2,43,44
 411 178 411 178 486 178 c 0,45,46
 523 178 523 178 542.5 192 c 128,-1,47
 562 206 562 206 574 215 c 0,48,49
 586 224 586 224 604 224 c 0,50,51
 634 224 634 224 652 195 c 2,52,-1
 706 111 l 1,53,-1
 718 94 l 1,54,-1
 702 80 l 1,55,56
 599 -15 599 -15 458 -15 c 128,-1,57
 317 -15 317 -15 248.5 55.5 c 128,-1,58
 180 126 180 126 180 253 c 2,59,-1
 180 807 l 1,60,-1
 95 807 l 2,61,62
 69 807 69 807 51 824 c 128,-1,63
 33 841 33 841 33 871 c 2,64,-1
 33 963 l 1,65,-1
 189 983 l 1,66,-1
 226 1265 l 1,67,-1
 226 1267 l 1,68,69
 238 1320 238 1320 291 1320 c 2,70,-1
 411 1320 l 1,71,-1
 411 985 l 1,72,-1
 809 985 l 1,73,-1
 848 1265 l 2,74,75
 851 1289 851 1289 869.5 1304.5 c 128,-1,76
 888 1320 888 1320 915 1320 c 2,77,-1
 1033 1320 l 1,78,-1
 1033 985 l 1,79,-1
 1451 985 l 1,80,-1
 1451 1049 l 2,81,82
 1451 1216 1451 1216 1549 1310 c 0,0,1
EndSplineSet
Validated: 1
Ligature2: "sous-table 'liga' Ligatures standard dans Latin lookup 37" t t f
EndChar

StartChar: t_t_dotlessi.liga
Encoding: 1114154 -1 133
Width: 1853
GlyphClass: 3
Flags: W
LayerCount: 2
Fore
SplineSet
414 269 m 2,0,1
 414 178 414 178 491 178 c 0,2,3
 530 178 530 178 549.5 191.5 c 128,-1,4
 569 205 569 205 581.5 214.5 c 128,-1,5
 594 224 594 224 612 224 c 0,6,7
 643 224 643 224 661 195 c 2,8,-1
 726 94 l 1,9,-1
 710 80 l 2,10,11
 602 -15 602 -15 461.5 -15 c 128,-1,12
 321 -15 321 -15 251.5 55.5 c 128,-1,13
 182 126 182 126 182 253 c 2,14,-1
 182 807 l 1,15,-1
 95 807 l 2,16,17
 70 807 70 807 52 823.5 c 128,-1,18
 34 840 34 840 34 868 c 2,19,-1
 34 955 l 1,20,-1
 191 974 l 1,21,-1
 229 1242 l 2,22,23
 232 1265 232 1265 250 1280 c 128,-1,24
 268 1295 268 1295 295 1295 c 2,25,-1
 414 1295 l 1,26,-1
 414 985 l 1,27,-1
 821 985 l 1,28,-1
 861 1243 l 2,29,30
 864 1266 864 1266 882.5 1280.5 c 128,-1,31
 901 1295 901 1295 928 1295 c 2,32,-1
 1048 1295 l 1,33,-1
 1048 985 l 1,34,-1
 1701 985 l 1,35,-1
 1701 0 l 1,36,-1
 1475 0 l 1,37,-1
 1475 807 l 1,38,-1
 1048 807 l 1,39,-1
 1048 269 l 2,40,41
 1048 178 1048 178 1125 178 c 0,42,43
 1164 178 1164 178 1183.5 191.5 c 128,-1,44
 1203 205 1203 205 1215.5 214.5 c 128,-1,45
 1228 224 1228 224 1246 224 c 0,46,47
 1277 224 1277 224 1295 195 c 2,48,-1
 1360 94 l 1,49,-1
 1344 80 l 2,50,51
 1158 -16 1158 -16 1104 -16 c 0,52,53
 1099 -16 1099 -16 1095 -15 c 1,54,55
 954 -15 954 -15 883 55 c 128,-1,56
 812 125 812 125 812 249 c 2,57,-1
 812 807 l 1,58,-1
 414 807 l 1,59,-1
 414 269 l 2,0,1
EndSplineSet
Validated: 1
LCarets2: 2 0 0
Ligature2: "sous-table 'liga' Ligatures standard dans Latin lookup 37" t t dotlessi
EndChar

StartChar: u
Encoding: 117 117 134
Width: 1176
GlyphClass: 2
Flags: W
AnchorPoint: "Ancre-5" 1076 1122 basechar 0
AnchorPoint: "Ancre-4" 853 550 basechar 0
AnchorPoint: "Ancre-3" 1076 -510 basechar 0
AnchorPoint: "Ancre-2" 1076 1515 basechar 0
AnchorPoint: "Ancre-1" 538 0 basechar 0
AnchorPoint: "Ancre-0" 541 1122 basechar 0
LayerCount: 2
Fore
SplineSet
828 112 m 1,0,1
 688 -15 688 -15 489 -15 c 0,2,3
 221 -15 221 -15 147 211 c 0,4,5
 125 279 125 279 125 361 c 2,6,-1
 125 978 l 1,7,-1
 351 978 l 1,8,-1
 351 368 l 2,9,10
 351 273 351 273 398 222 c 0,11,12
 446 174 446 174 547 174 c 0,13,14
 695 174 695 174 810 285 c 1,15,-1
 810 978 l 1,16,-1
 1036 978 l 1,17,-1
 1036 0 l 1,18,-1
 905 0 l 2,19,20
 844 0 844 0 836 58 c 2,21,-1
 828 112 l 1,0,1
EndSplineSet
Validated: 1
Substitution2: "sous-table 'smcp' Bas-de-casse vers petites capitales dans Latin lookup 0" u.smcp
Substitution2: "sous-table 'ordn' Ordinaux dans Latin lookup 39" u.superior
Substitution2: "sous-table 'sups' Exposant lookups25" u.superior
EndChar

StartChar: uogonek
Encoding: 371 371 135
Width: 1176
GlyphClass: 2
Flags: W
AnchorPoint: "Ancre-5" 1076 1122 basechar 0
AnchorPoint: "Ancre-4" 853 550 basechar 0
AnchorPoint: "Ancre-3" 1076 -510 basechar 0
AnchorPoint: "Ancre-2" 1076 1515 basechar 0
AnchorPoint: "Ancre-1" 538 0 basechar 0
AnchorPoint: "Ancre-0" 541 1492 basechar 0
LayerCount: 2
Fore
SplineSet
819 112 m 1,0,1
 668 -15 668 -15 486 -15 c 0,2,3
 221 -15 221 -15 147 211 c 0,4,5
 125 279 125 279 125 361 c 2,6,-1
 125 978 l 1,7,-1
 351 978 l 1,8,-1
 351 368 l 2,9,10
 351 174 351 174 542 174 c 0,11,12
 684 174 684 174 799 285 c 1,13,-1
 799 978 l 1,14,-1
 1036 978 l 1,15,-1
 1036 47 l 1,16,-1
 1104 41 l 1,17,-1
 1036 3 l 2,18,19
 936 -53 936 -53 936 -122 c 0,20,21
 936 -175 936 -175 997 -175 c 0,22,23
 1030 -175 1030 -175 1051 -164 c 128,-1,24
 1072 -153 1072 -153 1084 -153 c 0,25,26
 1113 -153 1113 -153 1125 -180 c 2,27,-1
 1152 -245 l 1,28,-1
 1159 -263 l 1,29,30
 1075 -330 1075 -330 969 -330 c 128,-1,31
 863 -330 863 -330 800.5 -285.5 c 128,-1,32
 738 -241 738 -241 738 -154 c 128,-1,33
 738 -67 738 -67 851 16 c 1,34,35
 832 31 832 31 828 58 c 2,36,-1
 819 112 l 1,0,1
EndSplineSet
Validated: 1
Substitution2: "sous-table 'smcp' Bas-de-casse vers petites capitales dans Latin lookup 0" uogonek.smcp
Ligature2: "sous-table 'ccmp' Composition et d+AOkA-composition de glyphe (CJK) lookups10" u uni0328
EndChar

StartChar: v
Encoding: 118 118 136
Width: 1025
GlyphClass: 2
Flags: W
AnchorPoint: "Ancre-5" 925 1122 basechar 0
AnchorPoint: "Ancre-3" 925 -510 basechar 0
AnchorPoint: "Ancre-2" 925 1515 basechar 0
AnchorPoint: "Ancre-1" 463 10 basechar 0
AnchorPoint: "Ancre-0" 463 1122 basechar 0
LayerCount: 2
Fore
SplineSet
631 0 m 1,0,-1
 416 0 l 1,1,-1
 19 978 l 1,2,-1
 200 978 l 2,3,4
 256 978 256 978 278 925 c 1,5,-1
 509 299 l 2,6,7
 518 276 518 276 526 254 c 1,8,9
 534 277 534 277 545 300 c 1,10,-1
 779 925 l 1,11,-1
 779 926 l 1,12,13
 800 978 800 978 853 978 c 2,14,-1
 1028 978 l 1,15,-1
 637 16 l 1,16,-1
 631 0 l 1,0,-1
EndSplineSet
Validated: 1
Substitution2: "sous-table 'smcp' Bas-de-casse vers petites capitales dans Latin lookup 0" v.smcp
Substitution2: "sous-table 'ordn' Ordinaux dans Latin lookup 39" v.superior
Substitution2: "sous-table 'sups' Exposant lookups25" v.superior
EndChar

StartChar: w
Encoding: 119 119 137
Width: 1564
GlyphClass: 2
Flags: W
AnchorPoint: "Ancre-5" 1464 1122 basechar 0
AnchorPoint: "Ancre-3" 1464 -510 basechar 0
AnchorPoint: "Ancre-2" 1464 1515 basechar 0
AnchorPoint: "Ancre-1" 732 10 basechar 0
AnchorPoint: "Ancre-0" 732 1122 basechar 0
LayerCount: 2
Fore
SplineSet
21 978 m 1,0,-1
 194 978 l 2,1,2
 223 978 223 978 244 962 c 128,-1,3
 265 946 265 946 270 923 c 1,4,-1
 454 299 l 2,5,6
 459 282 459 282 464 266 c 1,7,8
 470 283 470 283 475 300 c 2,9,-1
 679 929 l 1,10,11
 697 980 697 980 755 980 c 2,12,-1
 835 980 l 2,13,14
 894 980 894 980 913 929 c 1,15,-1
 1112 300 l 2,16,17
 1118 283 1118 283 1123 266 c 1,18,19
 1133 300 1133 300 1321 924 c 0,20,21
 1328 948 1328 948 1348 963 c 128,-1,22
 1368 978 1368 978 1395 978 c 2,23,-1
 1561 978 l 1,24,-1
 1240 18 l 1,25,-1
 1235 -0 l 1,26,-1
 1068 0 l 2,27,28
 1022 0 1022 0 1006 51 c 2,29,-1
 792 708 l 1,30,-1
 573 50 l 2,31,32
 556 0 556 0 508 0 c 2,33,-1
 349 0 l 1,34,-1
 21 978 l 1,0,-1
EndSplineSet
Validated: 1
Substitution2: "sous-table 'smcp' Bas-de-casse vers petites capitales dans Latin lookup 0" w.smcp
Substitution2: "sous-table 'ordn' Ordinaux dans Latin lookup 39" w.superior
Substitution2: "sous-table 'sups' Exposant lookups25" w.superior
EndChar

StartChar: x
Encoding: 120 120 138
Width: 987
GlyphClass: 2
Flags: W
AnchorPoint: "Ancre-5" 887 1122 basechar 0
AnchorPoint: "Ancre-3" 887 -510 basechar 0
AnchorPoint: "Ancre-2" 887 1515 basechar 0
AnchorPoint: "Ancre-1" 434 10 basechar 0
AnchorPoint: "Ancre-0" 454 1122 basechar 0
LayerCount: 2
Fore
SplineSet
716 937 m 1,0,1
 745 978 745 978 784 978 c 2,2,-1
 990 978 l 1,3,-1
 674 510 l 1,4,-1
 1002 -0 l 1,5,-1
 789 0 l 2,6,7
 743 0 743 0 710 48 c 1,8,-1
 506 376 l 1,9,-1
 299 49 l 2,10,11
 267 0 267 0 224 0 c 2,12,-1
 23 0 l 1,13,-1
 350 501 l 1,14,-1
 36 978 l 1,15,-1
 248 978 l 2,16,17
 292 978 292 978 322 941 c 1,18,-1
 322 940 l 1,19,-1
 323 939 l 1,20,-1
 523 626 l 1,21,22
 524 627 524 627 526 628 c 1,23,-1
 715 935 l 1,24,-1
 716 936 l 1,25,-1
 716 937 l 1,0,1
EndSplineSet
Validated: 1
Substitution2: "sous-table 'sups' Exposant lookups25" x.superior
Substitution2: "sous-table 'ordn' Ordinaux dans Latin lookup 39" x.superior
Substitution2: "sous-table 'smcp' Bas-de-casse vers petites capitales dans Latin lookup 0" x.smcp
EndChar

StartChar: y
Encoding: 121 121 139
Width: 1027
GlyphClass: 2
Flags: W
AnchorPoint: "Ancre-5" 927 1122 basechar 0
AnchorPoint: "Ancre-4" 673 550 basechar 0
AnchorPoint: "Ancre-3" 927 -510 basechar 0
AnchorPoint: "Ancre-2" 927 1515 basechar 0
AnchorPoint: "Ancre-1" 682 -58 basechar 0
AnchorPoint: "Ancre-0" 472 1122 basechar 0
LayerCount: 2
Fore
SplineSet
200 978 m 2,0,1
 252 978 252 978 278 927 c 1,2,-1
 278 926 l 1,3,-1
 530 314 l 2,4,5
 533 308 533 308 535 301 c 1,6,7
 538 309 538 309 541 316 c 2,8,-1
 785 926 l 2,9,10
 794 948 794 948 814.5 963 c 128,-1,11
 835 978 835 978 860 978 c 2,12,-1
 1037 978 l 1,13,-1
 491 -272 l 2,14,15
 466 -330 466 -330 398 -330 c 2,16,-1
 216 -330 l 1,17,-1
 409 69 l 1,18,-1
 11 978 l 1,19,-1
 200 978 l 2,0,1
EndSplineSet
Validated: 1
Substitution2: "sous-table 'smcp' Bas-de-casse vers petites capitales dans Latin lookup 0" y.smcp
Substitution2: "sous-table 'salt' Alternatives stylistiques lookups28" y.salt
Substitution2: "sous-table 'ordn' Ordinaux dans Latin lookup 39" y.superior
Substitution2: "sous-table 'sups' Exposant lookups25" y.superior
Substitution2: "sous-table 'ss04' Style 4 lookups34" y.salt
EndChar

StartChar: z
Encoding: 122 122 140
Width: 909
GlyphClass: 2
Flags: W
AnchorPoint: "Ancre-5" 809 1122 basechar 0
AnchorPoint: "Ancre-3" 809 -510 basechar 0
AnchorPoint: "Ancre-2" 809 1515 basechar 0
AnchorPoint: "Ancre-1" 435 10 basechar 0
AnchorPoint: "Ancre-0" 422 1122 basechar 0
LayerCount: 2
Fore
SplineSet
849 978 m 1,0,-1
 849 884 l 2,1,2
 849 842 849 842 822 806 c 2,3,-1
 340 187 l 1,4,-1
 834 187 l 1,5,-1
 834 0 l 1,6,-1
 60 0 l 1,7,-1
 60 94 l 2,8,9
 60 126 60 126 88 166 c 1,10,-1
 571 791 l 1,11,-1
 87 791 l 1,12,-1
 87 978 l 1,13,-1
 849 978 l 1,0,-1
EndSplineSet
Validated: 1
Substitution2: "sous-table 'smcp' Bas-de-casse vers petites capitales dans Latin lookup 0" z.smcp
Substitution2: "sous-table 'ordn' Ordinaux dans Latin lookup 39" z.superior
Substitution2: "sous-table 'sups' Exposant lookups25" z.superior
EndChar

StartChar: ordfeminine
Encoding: 170 170 141
Width: 874
GlyphClass: 2
Flags: W
LayerCount: 2
Fore
SplineSet
554 866 m 1,0,1
 469 802 469 802 366 802 c 0,2,3
 234 802 234 802 184 895 c 0,4,5
 169 924 169 924 169 962 c 0,6,7
 169 1089 169 1089 379 1136 c 0,8,9
 443 1150 443 1150 533 1153 c 1,10,-1
 533 1163 l 2,11,12
 533 1209 533 1209 513 1227.5 c 128,-1,13
 493 1246 493 1246 455 1246 c 0,14,15
 401 1246 401 1246 371 1229.5 c 128,-1,16
 341 1213 341 1213 324 1203 c 0,17,18
 306 1193 306 1193 284 1193 c 0,19,20
 247 1193 247 1193 225 1230 c 1,21,-1
 192 1287 l 1,22,23
 269 1354 269 1354 328.5 1377 c 128,-1,24
 388 1400 388 1400 454.5 1400 c 128,-1,25
 521 1400 521 1400 566 1382 c 0,26,27
 658 1346 658 1346 691 1262 c 0,28,29
 708 1221 708 1221 708 1171 c 2,30,-1
 708 811 l 1,31,-1
 624 811 l 2,32,33
 571 811 571 811 556 856 c 1,34,-1
 556 858 l 1,35,-1
 554 866 l 1,0,1
533 1061 m 1,36,37
 342 1053 342 1053 342 990 c 0,38,39
 342 942 342 942 408 942 c 128,-1,40
 474 942 474 942 533 997 c 1,41,-1
 533 1061 l 1,36,37
EndSplineSet
Validated: 1
Substitution2: "sous-table 'case' Formes sensibles +AOAA la casse lookups14" ordfeminine.case
EndChar

StartChar: ordmasculine
Encoding: 186 186 142
Width: 915
GlyphClass: 2
Flags: W
LayerCount: 2
Fore
SplineSet
222.5 1316 m 128,-1,1
 266 1355 266 1355 326 1377 c 128,-1,2
 386 1399 386 1399 458 1399 c 0,3,4
 530 1399 530 1399 590 1377 c 0,5,6
 711 1332 711 1332 759 1222 c 0,7,8
 782 1167 782 1167 782 1099.5 c 128,-1,9
 782 1032 782 1032 759 976 c 0,10,11
 713 864 713 864 590 822 c 0,12,13
 531 799 531 799 458 799 c 128,-1,14
 385 799 385 799 325 821 c 0,15,16
 204 865 204 865 156 977 c 0,17,18
 133 1032 133 1032 133 1099.5 c 128,-1,19
 133 1167 133 1167 156 1222 c 128,-1,0
 179 1277 179 1277 222.5 1316 c 128,-1,1
594 1099 m 128,-1,21
 594 1245 594 1245 458 1245 c 0,22,23
 387 1245 387 1245 354 1209 c 128,-1,24
 321 1173 321 1173 321 1099 c 128,-1,25
 321 1025 321 1025 354 989 c 128,-1,26
 387 953 387 953 458 953 c 0,27,20
 594 953 594 953 594 1099 c 128,-1,21
EndSplineSet
Validated: 1
EndChar

StartChar: ordfeminine.case
Encoding: 1114155 -1 143
Width: 908
GlyphClass: 2
Flags: W
LayerCount: 2
Fore
SplineSet
725 811 m 1,0,-1
 611 811 l 2,1,2
 575 811 575 811 564 843 c 2,3,-1
 528 939 l 1,4,-1
 321 939 l 1,5,-1
 285 843 l 1,6,7
 272 811 272 811 240 811 c 2,8,-1
 125 811 l 1,9,-1
 358 1377 l 1,10,-1
 361 1383 l 1,11,-1
 489 1383 l 1,12,-1
 719 824 l 1,13,-1
 725 811 l 1,0,-1
421 1195 m 2,14,-1
 363 1041 l 1,15,-1
 486 1041 l 1,16,-1
 430 1195 l 1,17,18
 427 1200 427 1200 425 1206 c 1,19,20
 423 1200 423 1200 421 1195 c 2,14,-1
EndSplineSet
Validated: 1
EndChar

StartChar: a.superior
Encoding: 1114156 -1 144
Width: 704
GlyphClass: 2
Flags: W
LayerCount: 2
Fore
SplineSet
422 1192 m 2,0,1
 422 1273 422 1273 351 1273 c 0,2,3
 307 1272 307 1272 284 1258 c 0,4,5
 237 1230 237 1230 219 1230 c 0,6,7
 187 1230 187 1230 170 1258 c 2,8,-1
 143 1305 l 1,9,-1
 149 1310 l 1,10,11
 238 1392 238 1392 367 1392 c 0,12,13
 458 1392 458 1392 512 1337 c 0,14,15
 564 1284 564 1284 564 1196 c 2,16,-1
 564 883 l 1,17,-1
 497 883 l 2,18,19
 456 883 456 883 445 917 c 2,20,-1
 439 936 l 1,21,22
 406 909 406 909 370.5 892 c 128,-1,23
 335 875 335 875 272.5 875 c 128,-1,24
 210 875 210 875 166.5 910 c 128,-1,25
 123 945 123 945 123 1014 c 0,26,27
 123 1118 123 1118 286 1159 c 0,28,29
 341 1173 341 1173 422 1176 c 1,30,-1
 422 1192 l 2,0,1
262 1027 m 0,31,32
 262 981 262 981 317.5 981 c 128,-1,33
 373 981 373 981 422 1026 c 1,34,-1
 422 1094 l 1,35,36
 262 1087 262 1087 262 1027 c 0,31,32
EndSplineSet
Validated: 1
EndChar

StartChar: b.superior
Encoding: 1114157 -1 145
Width: 761
GlyphClass: 2
Flags: W
LayerCount: 2
Fore
SplineSet
397 1283 m 0,0,1
 343 1283 343 1283 300 1234 c 1,2,-1
 300 1025 l 1,3,4
 332 991 332 991 382 991 c 0,5,6
 489 991 489 991 489 1137 c 128,-1,7
 489 1283 489 1283 397 1283 c 0,0,1
288 927 m 1,8,9
 284 883 284 883 247 883 c 2,10,-1
 155 883 l 1,11,-1
 155 1607 l 1,12,-1
 300 1607 l 1,13,-1
 300 1347 l 1,14,15
 365 1401 365 1401 443 1401 c 0,16,17
 533 1401 533 1401 584 1332 c 0,18,19
 638 1263 638 1263 638 1141 c 0,20,21
 638 1028 638 1028 577 952 c 0,22,23
 515 875 515 875 427.5 875 c 129,-1,24
 340 875 340 875 288 927 c 1,8,9
EndSplineSet
Validated: 1
EndChar

StartChar: c.superior
Encoding: 1114158 -1 146
Width: 610
GlyphClass: 2
Flags: W
LayerCount: 2
Fore
SplineSet
538 968 m 1,0,1
 460 875 460 875 328 875 c 0,2,3
 225 876 225 876 160 944 c 0,4,5
 91 1016 91 1016 91 1136 c 0,6,7
 91 1247 91 1247 156 1318 c 0,8,9
 222 1391 222 1391 343 1391 c 0,10,11
 345 1391 345 1391 346 1391 c 0,12,13
 454 1391 454 1391 534 1311 c 1,14,-1
 496 1259 l 2,15,16
 482 1239 482 1239 466 1239 c 128,-1,17
 450 1239 450 1239 440 1245 c 0,18,19
 390 1275 390 1275 354 1275 c 0,20,21
 238 1275 238 1275 238 1133 c 0,22,23
 238 1063 238 1063 268.5 1027 c 128,-1,24
 299 991 299 991 338 991 c 0,25,26
 389 991 389 991 410 1005 c 128,-1,27
 431 1019 431 1019 441.5 1027 c 128,-1,28
 452 1035 452 1035 469.5 1035 c 128,-1,29
 487 1035 487 1035 498 1020 c 2,30,-1
 533 974 l 1,31,-1
 538 968 l 1,0,1
EndSplineSet
Validated: 1
EndChar

StartChar: d.superior
Encoding: 1114159 -1 147
Width: 761
GlyphClass: 2
Flags: W
LayerCount: 2
Fore
SplineSet
355 1402 m 0,0,1
 413 1402 413 1402 461 1367 c 1,2,-1
 461 1607 l 1,3,-1
 606 1607 l 1,4,-1
 606 883 l 1,5,-1
 520 883 l 2,6,7
 483 883 483 883 479 913 c 1,8,-1
 474 943 l 1,9,10
 403 875 403 875 317 875 c 0,11,12
 228 875 228 875 176 945 c 0,13,14
 123 1014 123 1014 123 1136 c 0,15,16
 123 1253 123 1253 184 1326 c 0,17,18
 248 1402 248 1402 355 1402 c 0,0,1
377 1286 m 0,19,20
 271 1286 271 1286 271 1136 c 0,21,22
 271 1056 271 1056 295.5 1025.5 c 128,-1,23
 320 995 320 995 371 995 c 128,-1,24
 422 995 422 995 461 1042 c 1,25,-1
 461 1251 l 1,26,27
 426 1286 426 1286 377 1286 c 0,19,20
EndSplineSet
Validated: 1
EndChar

StartChar: e.superior
Encoding: 1114160 -1 148
Width: 716
GlyphClass: 2
Flags: W
LayerCount: 2
Fore
SplineSet
596 968 m 1,0,1
 518 875 518 875 376 875 c 0,2,3
 266 875 266 875 193 944 c 0,4,5
 119 1014 119 1014 119 1144 c 0,6,7
 119 1249 119 1249 186 1318 c 0,8,9
 257 1391 257 1391 370 1391 c 0,10,11
 474 1391 474 1391 534 1331 c 0,12,13
 598 1269 598 1269 598 1161 c 0,14,15
 598 1105 598 1105 559 1105 c 2,16,-1
 264 1105 l 1,17,18
 278 993 278 993 387 993 c 0,19,20
 431 993 431 993 458 1007 c 0,21,22
 510 1035 510 1035 527 1035 c 128,-1,23
 544 1035 544 1035 556 1020 c 2,24,-1
 591 974 l 1,25,-1
 596 968 l 1,0,1
466 1191 m 1,26,27
 462 1251 462 1251 414 1273 c 0,28,29
 396 1281 396 1281 361 1281 c 128,-1,30
 326 1281 326 1281 301 1256.5 c 128,-1,31
 276 1232 276 1232 267 1191 c 1,32,-1
 466 1191 l 1,26,27
EndSplineSet
Validated: 1
EndChar

StartChar: f.superior
Encoding: 1114161 -1 149
Width: 469
GlyphClass: 2
Flags: W
LayerCount: 2
Fore
SplineSet
336 1600 m 0,0,1
 383 1600 383 1600 411 1588 c 1,2,-1
 411 1581 l 1,3,-1
 408 1516 l 2,4,5
 407 1496 407 1496 392.5 1490.5 c 128,-1,6
 378 1485 378 1485 348 1485 c 0,7,8
 278 1485 278 1485 278 1408 c 2,9,-1
 278 1389 l 1,10,-1
 406 1389 l 1,11,-1
 406 1280 l 1,12,-1
 282 1280 l 1,13,-1
 282 883 l 1,14,-1
 138 883 l 1,15,-1
 138 1284 l 1,16,-1
 104 1289 l 1,17,18
 64 1294 64 1294 64 1329 c 2,19,-1
 64 1389 l 1,20,-1
 138 1389 l 1,21,-1
 138 1414 l 2,22,23
 138 1500 138 1500 191 1550 c 128,-1,24
 244 1600 244 1600 336 1600 c 0,0,1
EndSplineSet
Validated: 1
EndChar

StartChar: g.superior
Encoding: 1114162 -1 150
Width: 720
GlyphClass: 2
Flags: W
LayerCount: 2
Fore
SplineSet
347 1392 m 2,0,-1
 353 1392 l 1,1,2
 438 1388 438 1388 477 1345 c 1,3,-1
 479 1353 l 2,4,5
 487 1383 487 1383 520 1383 c 2,6,-1
 571 1384 l 1,7,-1
 581 1384 l 1,8,-1
 581 924 l 2,9,10
 581 837 581 837 517 775 c 0,11,12
 486 745 486 745 433 728 c 128,-1,13
 380 711 380 711 334 711 c 128,-1,14
 288 711 288 711 236 732.5 c 128,-1,15
 184 754 184 754 151 787 c 1,16,-1
 145 792 l 1,17,-1
 174 840 l 2,18,19
 188 863 188 863 215 863 c 2,20,-1
 216 863 l 2,21,22
 238 862 238 862 262 844 c 0,23,24
 292 821 292 821 340 821 c 0,25,26
 342 821 342 821 344 821 c 0,27,28
 453 825 453 825 453 916 c 2,29,-1
 453 921 l 1,30,31
 393 876 393 876 341 876 c 128,-1,32
 289 876 289 876 243 898 c 0,33,34
 123 953 123 953 123 1131 c 0,35,36
 123 1239 123 1239 183 1315.5 c 128,-1,37
 243 1392 243 1392 347 1392 c 2,0,-1
378 1283 m 2,38,-1
 377 1283 l 2,39,40
 277 1283 277 1283 277 1137.5 c 128,-1,41
 277 992 277 992 364 992 c 0,42,43
 417 992 417 992 456 1046 c 1,44,-1
 456 1244 l 1,45,46
 434 1283 434 1283 378 1283 c 2,38,-1
EndSplineSet
Validated: 1
Substitution2: "sous-table 'ss04' Style 4 lookups34" g.superior.salt
Substitution2: "sous-table 'salt' Alternatives stylistiques lookups28" g.superior.salt
EndChar

StartChar: h.superior
Encoding: 1114163 -1 151
Width: 765
GlyphClass: 2
Flags: W
LayerCount: 2
Fore
SplineSet
403 1283 m 0,0,1
 350 1283 350 1283 305 1240 c 1,2,-1
 305 883 l 1,3,-1
 160 883 l 1,4,-1
 160 1607 l 1,5,-1
 305 1607 l 1,6,-1
 305 1353 l 1,7,8
 366 1401 366 1401 425 1401 c 0,9,10
 569 1401 569 1401 608 1283 c 0,11,12
 619 1248 619 1248 619 1205 c 2,13,-1
 619 883 l 1,14,-1
 475 883 l 1,15,-1
 475 1203 l 2,16,17
 475 1283 475 1283 403 1283 c 0,0,1
EndSplineSet
Validated: 1
EndChar

StartChar: i.superior
Encoding: 1114164 -1 152
Width: 375
GlyphClass: 2
Flags: W
LayerCount: 2
Fore
SplineSet
260 1382 m 1,0,-1
 260 883 l 1,1,-1
 115 883 l 1,2,-1
 115 1382 l 1,3,-1
 260 1382 l 1,0,-1
252 1580 m 128,-1,5
 279 1554 279 1554 279 1526 c 0,6,7
 280 1498 280 1498 272 1482 c 0,8,9
 247 1428 247 1428 187 1428 c 0,10,11
 130 1428 130 1428 107 1482 c 0,12,13
 100 1498 100 1498 100 1526 c 128,-1,14
 100 1554 100 1554 125.5 1580 c 128,-1,15
 151 1606 151 1606 188 1606 c 128,-1,4
 225 1606 225 1606 252 1580 c 128,-1,5
EndSplineSet
Validated: 1
EndChar

StartChar: j.superior
Encoding: 1114165 -1 153
Width: 385
GlyphClass: 2
Flags: W
LayerCount: 2
Fore
SplineSet
272 1382 m 1,0,-1
 272 879 l 2,1,2
 272 759 272 759 179 721 c 0,3,4
 146 708 146 708 114 708 c 0,5,6
 59 708 59 708 27 720 c 1,7,-1
 28 728 l 1,8,-1
 33 795 l 1,9,10
 36 821 36 821 71.5 821 c 128,-1,11
 107 821 107 821 116.5 832.5 c 128,-1,12
 126 844 126 844 127 879 c 1,13,-1
 127 1382 l 1,14,-1
 272 1382 l 1,0,-1
263.5 1580 m 128,-1,16
 290 1554 290 1554 290 1517.5 c 128,-1,17
 290 1481 290 1481 263.5 1454.5 c 128,-1,18
 237 1428 237 1428 209.5 1428 c 128,-1,19
 182 1428 182 1428 166 1435 c 0,20,21
 150 1442 150 1442 138 1454 c 0,22,23
 112 1481 112 1481 112 1517.5 c 128,-1,24
 112 1554 112 1554 137.5 1580 c 128,-1,25
 163 1606 163 1606 200 1606 c 128,-1,15
 237 1606 237 1606 263.5 1580 c 128,-1,16
EndSplineSet
Validated: 1
EndChar

StartChar: k.superior
Encoding: 1114166 -1 154
Width: 683
GlyphClass: 2
Flags: W
LayerCount: 2
Fore
SplineSet
490 883 m 2,0,1
 454 883 454 883 438 906 c 1,2,-1
 438 907 l 1,3,-1
 317 1087 l 2,4,5
 309 1100 309 1100 288 1100 c 2,6,-1
 271 1100 l 1,7,-1
 271 883 l 1,8,-1
 126 883 l 1,9,-1
 126 1607 l 1,10,-1
 271 1607 l 1,11,-1
 271 1204 l 1,12,-1
 283 1204 l 2,13,14
 301 1204 301 1204 309 1215 c 2,15,-1
 428 1369 l 2,16,17
 446 1393 446 1393 481 1393 c 2,18,-1
 615 1393 l 1,19,-1
 453 1191 l 2,20,21
 439 1174 439 1174 422 1162 c 1,22,23
 437 1151 437 1151 449 1134 c 2,24,-1
 610 898 l 1,25,-1
 621 883 l 1,26,-1
 490 883 l 2,0,1
EndSplineSet
Validated: 1
EndChar

StartChar: l.superior
Encoding: 1114167 -1 155
Width: 370
GlyphClass: 2
Flags: W
LayerCount: 2
Fore
SplineSet
123 883 m 1,0,-1
 123 1607 l 1,1,-1
 267 1607 l 1,2,-1
 267 883 l 1,3,-1
 123 883 l 1,0,-1
EndSplineSet
Validated: 1
EndChar

StartChar: m.superior
Encoding: 1114168 -1 156
Width: 1150
GlyphClass: 2
Flags: W
LayerCount: 2
Fore
SplineSet
430 1273 m 0,0,1
 389 1273 389 1273 352 1236 c 1,2,-1
 352 883 l 1,3,-1
 207 883 l 1,4,-1
 207 1383 l 1,5,-1
 293 1383 l 2,6,7
 329 1383 329 1383 331 1350 c 1,8,-1
 333 1330 l 1,9,10
 394 1391 394 1391 476 1391 c 128,-1,11
 558 1391 558 1391 602 1311 c 1,12,13
 659 1391 659 1391 758 1391 c 128,-1,14
 857 1391 857 1391 904.5 1340.5 c 128,-1,15
 952 1290 952 1290 952 1199 c 2,16,-1
 952 883 l 1,17,-1
 808 883 l 1,18,-1
 808 1195 l 2,19,20
 808 1273 808 1273 737 1273 c 0,21,22
 706 1273 706 1273 682 1253 c 128,-1,23
 658 1233 658 1233 658 1195 c 2,24,-1
 658 883 l 1,25,-1
 502 883 l 1,26,-1
 502 1195 l 2,27,28
 502 1273 502 1273 430 1273 c 0,0,1
EndSplineSet
Validated: 1
EndChar

StartChar: uni207F
Encoding: 8319 8319 157
Width: 792
GlyphClass: 2
Flags: W
LayerCount: 2
Fore
SplineSet
473 1188 m 2,0,1
 473 1218 473 1218 459.5 1232 c 128,-1,2
 446 1246 446 1246 412 1246 c 128,-1,3
 378 1246 378 1246 334 1214 c 1,4,-1
 334 886 l 1,5,-1
 160 886 l 1,6,-1
 160 1386 l 1,7,-1
 250 1386 l 2,8,9
 297 1386 297 1386 306 1339 c 1,10,11
 371 1394 371 1394 454 1394 c 0,12,13
 546 1394 546 1394 598 1336 c 0,14,15
 647 1283 647 1283 647 1198 c 2,16,-1
 647 886 l 1,17,-1
 473 886 l 1,18,-1
 473 1188 l 2,0,1
EndSplineSet
Validated: 1
EndChar

StartChar: o.superior
Encoding: 1114169 -1 158
Width: 762
GlyphClass: 2
Flags: W
LayerCount: 2
Fore
SplineSet
141 1240 m 0,0,1
 201 1391 201 1391 382 1391 c 0,2,3
 499 1391 499 1391 569 1321 c 0,4,5
 640 1250 640 1250 640 1133 c 0,6,7
 640 1018 640 1018 568 945 c 0,8,9
 499 875 499 875 382 875 c 0,10,11
 263 875 263 875 193 945 c 0,12,13
 122 1016 122 1016 122 1133 c 0,14,15
 122 1193 122 1193 141 1240 c 0,0,1
491 1133 m 128,-1,17
 491 1274 491 1274 380.5 1274 c 128,-1,18
 270 1274 270 1274 270 1133 c 128,-1,19
 270 992 270 992 380.5 992 c 128,-1,16
 491 992 491 992 491 1133 c 128,-1,17
EndSplineSet
Validated: 1
EndChar

StartChar: p.superior
Encoding: 1114170 -1 159
Width: 761
GlyphClass: 2
Flags: W
LayerCount: 2
Fore
SplineSet
405 865 m 1,0,1
 347 865 347 865 299 900 c 1,2,-1
 299 720 l 1,3,-1
 154 720 l 1,4,-1
 154 1383 l 1,5,-1
 240 1383 l 2,6,7
 277 1383 277 1383 281 1351 c 2,8,-1
 285 1324 l 1,9,10
 353 1392 353 1392 443 1392 c 0,11,12
 533 1392 533 1392 584 1323 c 0,13,14
 638 1254 638 1254 638 1131 c 0,15,16
 638 1018 638 1018 577 942 c 0,17,18
 515 865 515 865 405 865 c 1,0,1
384 981 m 0,19,20
 489 981 489 981 489 1127 c 128,-1,21
 489 1273 489 1273 400 1273 c 0,22,23
 344 1273 344 1273 299 1224 c 1,24,-1
 299 1015 l 1,25,26
 331 981 331 981 384 981 c 0,19,20
EndSplineSet
Validated: 1
EndChar

StartChar: q.superior
Encoding: 1114171 -1 160
Width: 761
GlyphClass: 2
Flags: W
LayerCount: 2
Fore
SplineSet
359 1392 m 0,0,1
 420 1392 420 1392 477 1343 c 1,2,-1
 479 1352 l 2,3,4
 486 1383 486 1383 520 1383 c 2,5,-1
 606 1383 l 1,6,-1
 606 720 l 1,7,-1
 461 720 l 1,8,-1
 461 919 l 1,9,10
 399 865 399 865 318 865 c 0,11,12
 229 865 229 865 177 935 c 0,13,14
 124 1004 124 1004 124 1126 c 0,15,16
 124 1242 124 1242 184 1316 c 0,17,18
 245 1392 245 1392 359 1392 c 0,0,1
378 1276 m 0,19,20
 272 1276 272 1276 272 1130.5 c 128,-1,21
 272 985 272 985 364 985 c 0,22,23
 419 985 419 985 461 1033 c 1,24,-1
 461 1241 l 1,25,26
 426 1276 426 1276 378 1276 c 0,19,20
EndSplineSet
Validated: 1
EndChar

StartChar: r.superior
Encoding: 1114172 -1 161
Width: 522
GlyphClass: 2
Flags: W
LayerCount: 2
Fore
SplineSet
362 1251 m 1,0,1
 302 1251 302 1251 271 1182 c 1,2,-1
 271 883 l 1,3,-1
 126 883 l 1,4,-1
 126 1383 l 1,5,-1
 209 1383 l 2,6,7
 233 1383 233 1383 242.5 1373.5 c 128,-1,8
 252 1364 252 1364 254 1342 c 2,9,-1
 257 1313 l 1,10,11
 310 1392 310 1392 384 1392 c 0,12,13
 423 1392 423 1392 450 1372 c 1,14,-1
 450 1366 l 1,15,-1
 441 1271 l 1,16,-1
 441 1270 l 1,17,18
 436 1246 436 1246 412 1246 c 1,19,-1
 362 1251 l 1,0,1
EndSplineSet
Validated: 1
EndChar

StartChar: s.superior
Encoding: 1114173 -1 162
Width: 580
GlyphClass: 2
Flags: W
LayerCount: 2
Fore
SplineSet
286 982 m 0,0,1
 352 982 352 982 355 1028 c 0,2,3
 355 1053 355 1053 313.5 1067.5 c 128,-1,4
 272 1082 272 1082 240 1091 c 0,5,6
 112 1127 112 1127 111 1235 c 0,7,8
 111 1340 111 1340 225 1379 c 0,9,10
 262 1391 262 1391 314 1391 c 0,11,12
 418 1391 418 1391 489 1320 c 1,13,-1
 457 1267 l 2,14,15
 446 1248 446 1248 430 1248 c 0,16,17
 414 1248 414 1248 402 1254 c 0,18,19
 351 1279 351 1279 316 1279 c 0,20,21
 315 1279 315 1279 313 1279 c 0,22,23
 249 1279 249 1279 249 1239 c 0,24,25
 249 1212 249 1212 305 1197 c 0,26,27
 332 1188 332 1188 364 1179 c 0,28,29
 492 1143 492 1143 492 1044 c 0,30,31
 492 927 492 927 369 887 c 0,32,33
 330 875 330 875 278 875 c 0,34,35
 169 875 169 875 98 939 c 1,36,-1
 92 944 l 1,37,-1
 125 999 l 2,38,39
 139 1022 139 1022 160 1022 c 0,40,41
 182 1022 182 1022 204 1008 c 0,42,43
 244 982 244 982 286 982 c 0,0,1
EndSplineSet
Validated: 1
EndChar

StartChar: t.superior
Encoding: 1114174 -1 163
Width: 503
GlyphClass: 2
Flags: W
LayerCount: 2
Fore
SplineSet
286 1033 m 2,0,1
 286 996 286 996 318 996 c 0,2,3
 336 996 336 996 345 1003.5 c 128,-1,4
 354 1011 354 1011 368 1011 c 128,-1,5
 382 1011 382 1011 392 995 c 2,6,-1
 430 935 l 1,7,-1
 434 928 l 1,8,9
 370 875 370 875 294.5 875 c 128,-1,10
 219 875 219 875 180.5 914 c 128,-1,11
 142 953 142 953 142 1021 c 2,12,-1
 142 1280 l 1,13,-1
 102 1280 l 2,14,15
 88 1280 88 1280 78 1289 c 128,-1,16
 68 1298 68 1298 68 1315 c 2,17,-1
 68 1371 l 1,18,-1
 150 1385 l 1,19,-1
 174 1506 l 1,20,21
 181 1534 181 1534 212 1534 c 2,22,-1
 286 1534 l 1,23,-1
 286 1389 l 1,24,-1
 419 1389 l 1,25,-1
 419 1280 l 1,26,-1
 286 1280 l 1,27,-1
 286 1033 l 2,0,1
EndSplineSet
Validated: 1
EndChar

StartChar: u.superior
Encoding: 1114175 -1 164
Width: 765
GlyphClass: 2
Flags: W
LayerCount: 2
Fore
SplineSet
477 936 m 1,0,1
 408 875 408 875 328 875 c 0,2,3
 200 875 200 875 160 991 c 0,4,5
 149 1026 149 1026 149 1067 c 2,6,-1
 149 1383 l 1,7,-1
 293 1383 l 1,8,-1
 293 1071 l 2,9,10
 293 993 293 993 366 993 c 0,11,12
 413 993 413 993 462 1035 c 1,13,-1
 462 1383 l 1,14,-1
 607 1383 l 1,15,-1
 607 883 l 1,16,-1
 521 883 l 2,17,18
 487 883 487 883 481 913 c 2,19,-1
 477 936 l 1,0,1
EndSplineSet
Validated: 1
EndChar

StartChar: v.superior
Encoding: 1114176 -1 165
Width: 665
GlyphClass: 2
Flags: W
LayerCount: 2
Fore
SplineSet
404 889 m 1,0,-1
 395 863 l 1,1,-1
 275 863 l 1,2,-1
 272 889 l 1,3,-1
 73 1370 l 1,4,-1
 68 1383 l 1,5,-1
 186 1383 l 2,6,7
 222 1383 222 1383 231 1353 c 1,8,-1
 322 1092 l 2,9,10
 330 1068 330 1068 334 1055 c 128,-1,11
 338 1042 338 1042 339 1039 c 1,12,13
 340 1042 340 1042 344 1055.5 c 128,-1,14
 348 1069 348 1069 356 1093 c 2,15,-1
 449 1354 l 2,16,17
 460 1383 460 1383 494 1383 c 2,18,-1
 607 1383 l 1,19,-1
 404 889 l 1,0,-1
EndSplineSet
Validated: 1
EndChar

StartChar: w.superior
Encoding: 1114177 -1 166
Width: 1047
GlyphClass: 2
Flags: W
LayerCount: 2
Fore
SplineSet
120 1383 m 1,0,-1
 236 1383 l 2,1,2
 274 1383 274 1383 282 1347 c 1,3,-1
 347 1095 l 2,4,5
 353 1072 353 1072 358 1050 c 1,6,7
 370 1089 370 1089 373 1095 c 2,8,-1
 457 1350 l 2,9,10
 468 1384 468 1384 503 1384 c 2,11,-1
 555 1384 l 2,12,13
 595 1384 595 1384 606 1349 c 2,14,-1
 688 1095 l 2,15,16
 694 1075 694 1075 699 1055 c 1,17,18
 703 1074 703 1074 709 1094 c 2,19,-1
 779 1348 l 2,20,21
 789 1383 789 1383 825 1383 c 2,22,-1
 935 1383 l 1,23,-1
 770 890 l 1,24,-1
 768 883 l 1,25,-1
 761 863 l 1,26,-1
 662 863 l 2,27,28
 637 863 637 863 627 892 c 2,29,-1
 533 1173 l 2,30,31
 530 1180 530 1180 528 1188 c 1,32,33
 525 1179 525 1179 523 1171 c 2,34,-1
 428 892 l 2,35,36
 418 863 418 863 389 863 c 2,37,-1
 284 863 l 1,38,-1
 282 890 l 1,39,-1
 124 1370 l 1,40,-1
 120 1383 l 1,0,-1
EndSplineSet
Validated: 1
EndChar

StartChar: x.superior
Encoding: 1114178 -1 167
Width: 658
GlyphClass: 2
Flags: W
LayerCount: 2
Fore
SplineSet
65 863 m 1,0,-1
 242 1131 l 1,1,-1
 82 1367 l 1,2,-1
 72 1383 l 1,3,-1
 210 1383 l 2,4,5
 237 1383 237 1383 250 1362 c 2,6,-1
 344 1212 l 1,7,8
 349 1222 349 1222 355 1231 c 2,9,-1
 433 1360 l 2,10,11
 446 1383 446 1383 471 1383 c 2,12,-1
 604 1383 l 1,13,-1
 434 1146 l 1,14,-1
 610 883 l 1,15,-1
 592 863 l 1,16,-1
 472 863 l 2,17,18
 454 863 454 863 443 892 c 1,19,20
 434 900 434 900 428 911 c 2,21,-1
 334 1066 l 1,22,23
 331 1059 331 1059 326 1051 c 2,24,-1
 238 911 l 1,25,26
 225 895 225 895 222 892 c 0,27,28
 211 863 211 863 195 863 c 2,29,-1
 65 863 l 1,0,-1
EndSplineSet
Validated: 1
EndChar

StartChar: y.superior
Encoding: 1114179 -1 168
Width: 666
GlyphClass: 2
Flags: W
LayerCount: 2
Fore
SplineSet
610 1383 m 1,0,-1
 334 759 l 2,1,2
 325 738 325 738 314 730 c 1,3,4
 302 700 302 700 281 700 c 2,5,-1
 173 700 l 1,6,-1
 270 910 l 1,7,-1
 65 1383 l 1,8,-1
 189 1383 l 2,9,10
 222 1383 222 1383 234 1353 c 2,11,-1
 335 1103 l 1,12,-1
 344 1077 l 1,13,14
 349 1091 349 1091 355 1106 c 2,15,-1
 455 1354 l 2,16,17
 466 1383 466 1383 498 1383 c 2,18,-1
 610 1383 l 1,0,-1
EndSplineSet
Validated: 1
EndChar

StartChar: z.superior
Encoding: 1114180 -1 169
Width: 587
GlyphClass: 2
Flags: W
LayerCount: 2
Fore
SplineSet
502 1383 m 1,0,-1
 502 1324 l 2,1,2
 502 1293 502 1293 482 1269 c 2,3,-1
 260 999 l 1,4,-1
 496 999 l 1,5,-1
 496 883 l 1,6,-1
 87 883 l 1,7,-1
 87 942 l 2,8,9
 87 966 87 966 109 994 c 2,10,-1
 330 1267 l 1,11,-1
 101 1267 l 1,12,-1
 101 1383 l 1,13,-1
 502 1383 l 1,0,-1
EndSplineSet
Validated: 1
EndChar

StartChar: grave
Encoding: 96 96 170
Width: 615
GlyphClass: 2
Flags: W
LayerCount: 2
Fore
SplineSet
315 1414 m 2,0,1
 356 1414 356 1414 376 1400.5 c 128,-1,2
 396 1387 396 1387 411 1361 c 2,3,-1
 545 1126 l 1,4,-1
 401 1126 l 2,5,6
 351 1126 351 1126 318 1161 c 2,7,-1
 77 1414 l 1,8,-1
 315 1414 l 2,0,1
EndSplineSet
Validated: 1
Substitution2: "sous-table 'locl' Formes localis+AOkA-es g+AOkA-ographiquement dans Grec lookup 38" uni1FEF
EndChar

StartChar: glyph171
Encoding: 1114181 -1 171
Width: 672
GlyphClass: 2
Flags: MW
LayerCount: 2
Fore
SplineSet
298 1798 m 2,0,1
 356 1798 356 1798 373 1784.5 c 128,-1,2
 390 1771 390 1771 401 1757 c 2,3,-1
 609 1495 l 1,4,-1
 425 1495 l 2,5,6
 395 1495 395 1495 378.5 1498.5 c 128,-1,7
 362 1502 362 1502 341 1520 c 2,8,-1
 32 1798 l 1,9,-1
 298 1798 l 2,0,1
EndSplineSet
Validated: 1
EndChar

StartChar: acute
Encoding: 180 180 172
Width: 616
GlyphClass: 2
Flags: W
LayerCount: 2
Fore
SplineSet
554 1414 m 1,0,-1
 313 1161 l 1,1,2
 278 1126 278 1126 229 1126 c 2,3,-1
 77 1126 l 1,4,-1
 213 1361 l 2,5,6
 228 1387 228 1387 248 1400.5 c 128,-1,7
 268 1414 268 1414 308 1414 c 2,8,-1
 554 1414 l 1,0,-1
EndSplineSet
Validated: 1
Substitution2: "sous-table 'locl' Formes localis+AOkA-es g+AOkA-ographiquement dans Grec lookup 38" uni1FFD
EndChar

StartChar: glyph173
Encoding: 1114182 -1 173
Width: 672
GlyphClass: 2
Flags: MW
LayerCount: 2
Fore
SplineSet
767 1798 m 1,0,-1
 454 1521 l 1,1,2
 423 1495 423 1495 369 1495 c 2,3,-1
 185 1495 l 1,4,-1
 382 1757 l 1,5,6
 408 1794 408 1794 450 1797 c 0,7,8
 464 1798 464 1798 485 1798 c 2,9,-1
 767 1798 l 1,0,-1
EndSplineSet
Validated: 1
EndChar

StartChar: circumflex
Encoding: 710 710 174
Width: 822
GlyphClass: 2
Flags: W
LayerCount: 2
Fore
SplineSet
753 1127 m 1,0,-1
 584 1127 l 2,1,2
 550 1127 550 1127 525 1152 c 2,3,-1
 436 1246 l 2,4,5
 419 1263 419 1263 414 1271 c 1,6,-1
 394 1247 l 1,7,-1
 303 1152 l 2,8,9
 278 1127 278 1127 245 1127 c 2,10,-1
 69 1127 l 1,11,-1
 292 1398 l 1,12,-1
 530 1398 l 1,13,-1
 753 1127 l 1,0,-1
EndSplineSet
Validated: 1
EndChar

StartChar: glyph175
Encoding: 1114183 -1 175
Width: 923
GlyphClass: 2
Flags: MW
LayerCount: 2
Fore
SplineSet
814 1495 m 1,0,-1
 630 1495 l 2,1,2
 580 1495 580 1495 548 1534 c 1,3,-1
 461 1650 l 1,4,5
 458 1645 458 1645 454.5 1639 c 128,-1,6
 451 1633 451 1633 446 1628 c 2,7,-1
 375 1534 l 1,8,9
 343 1495 343 1495 293 1495 c 2,10,-1
 117 1495 l 1,11,-1
 351 1762 l 1,12,-1
 581 1762 l 1,13,-1
 814 1495 l 1,0,-1
EndSplineSet
Validated: 1
EndChar

StartChar: caron
Encoding: 711 711 176
Width: 822
GlyphClass: 2
Flags: W
LayerCount: 2
Fore
SplineSet
69 1398 m 1,0,-1
 245 1398 l 2,1,2
 276 1398 276 1398 295 1381 c 1,3,-1
 392 1279 l 2,4,5
 403 1267 403 1267 414 1254 c 1,6,7
 420 1261 420 1261 425.5 1267.5 c 128,-1,8
 431 1274 431 1274 437 1280 c 2,9,-1
 533 1380 l 2,10,11
 551 1398 551 1398 584 1398 c 2,12,-1
 753 1398 l 1,13,-1
 530 1127 l 1,14,-1
 292 1127 l 1,15,-1
 69 1398 l 1,0,-1
EndSplineSet
Validated: 1
EndChar

StartChar: glyph177
Encoding: 1114184 -1 177
Width: 923
GlyphClass: 2
Flags: MW
LayerCount: 2
Fore
SplineSet
581 1495 m 1,0,-1
 343 1495 l 1,1,-1
 109 1762 l 1,2,-1
 293 1762 l 2,3,4
 345 1762 345 1762 368 1732 c 2,5,-1
 446 1626 l 2,6,7
 450 1620 450 1620 454 1614.5 c 128,-1,8
 458 1609 458 1609 461 1604 c 1,9,-1
 555 1731 l 2,10,11
 578 1762 578 1762 630 1762 c 2,12,-1
 814 1762 l 1,13,-1
 581 1495 l 1,0,-1
EndSplineSet
Validated: 1
EndChar

StartChar: uni0315
Encoding: 789 789 178
Width: 0
GlyphClass: 4
Flags: MW
AnchorPoint: "Ancre-5" -34 1122 mark 0
LayerCount: 2
Fore
SplineSet
86 1449 m 2,0,1
 143 1449 143 1449 143 1392 c 0,2,3
 143 1353 143 1353 61 1134 c 0,4,5
 43 1082 43 1082 -24 1082 c 2,6,-1
 -115 1082 l 1,7,-1
 -56 1428 l 1,8,-1
 -52 1449 l 1,9,-1
 86 1449 l 2,0,1
EndSplineSet
Validated: 1
EndChar

StartChar: tilde
Encoding: 732 732 179
Width: 910
GlyphClass: 2
Flags: W
LayerCount: 2
Fore
SplineSet
550 1319 m 2,0,-1
 563 1319 l 2,1,2
 609 1319 609 1319 623 1356 c 0,3,4
 628 1369 628 1369 633 1390 c 1,5,-1
 771 1390 l 1,6,7
 771 1281 771 1281 713.5 1213 c 128,-1,8
 656 1145 656 1145 567 1145 c 0,9,10
 517 1145 517 1145 468 1171 c 128,-1,11
 419 1197 419 1197 396.5 1209 c 128,-1,12
 374 1221 374 1221 348 1221 c 0,13,14
 298 1221 298 1221 275 1150 c 1,15,-1
 142 1150 l 1,16,17
 142 1261 142 1261 200.5 1329 c 128,-1,18
 259 1397 259 1397 346 1397 c 0,19,20
 401 1397 401 1397 448 1370 c 0,21,22
 537 1319 537 1319 550 1319 c 2,0,-1
EndSplineSet
Validated: 1
EndChar

StartChar: glyph180
Encoding: 1114185 -1 180
Width: 918
GlyphClass: 2
Flags: MW
LayerCount: 2
Fore
SplineSet
528 1663 m 0,0,1
 552 1648 552 1648 576 1648 c 0,2,3
 617 1648 617 1648 639 1676 c 128,-1,4
 661 1704 661 1704 661 1737 c 1,5,-1
 815 1737 l 1,6,7
 815 1634 815 1634 760 1559 c 128,-1,8
 705 1484 705 1484 619.5 1484 c 128,-1,9
 534 1484 534 1484 456 1532 c 0,10,11
 426 1550 426 1550 401.5 1565.5 c 128,-1,12
 377 1581 377 1581 354 1581 c 0,13,14
 312 1581 312 1581 292 1552 c 0,15,16
 272 1522 272 1522 271 1506 c 2,17,-1
 271 1489 l 1,18,-1
 115 1489 l 1,19,20
 115 1491 115 1491 115 1493 c 0,21,22
 115 1596 115 1596 171 1670 c 128,-1,23
 227 1744 227 1744 311.5 1744 c 128,-1,24
 396 1744 396 1744 474 1696 c 0,25,26
 504 1678 504 1678 528 1663 c 0,0,1
EndSplineSet
Validated: 1
EndChar

StartChar: dieresis
Encoding: 168 168 181
Width: 849
GlyphClass: 2
Flags: W
LayerCount: 2
Fore
SplineSet
323 1346 m 0,0,1
 366 1307 366 1307 366 1264 c 0,2,3
 366 1193 366 1193 323.5 1152.5 c 128,-1,4
 281 1112 281 1112 238 1112 c 0,5,6
 236 1111 236 1111 216 1111 c 0,7,8
 171 1111 171 1111 128.5 1151.5 c 128,-1,9
 86 1192 86 1192 86 1234 c 0,10,11
 86 1307 86 1307 127.5 1346.5 c 128,-1,12
 169 1386 169 1386 211 1386 c 0,13,14
 213 1387 213 1387 234 1387 c 0,15,16
 282 1387 282 1387 323 1346 c 0,0,1
718 1346 m 0,17,18
 761 1307 761 1307 761 1264 c 0,19,20
 761 1193 761 1193 718.5 1152.5 c 128,-1,21
 676 1112 676 1112 633 1112 c 0,22,23
 630 1111 630 1111 610 1111 c 0,24,25
 565 1111 565 1111 523 1151.5 c 128,-1,26
 481 1192 481 1192 481 1234 c 0,27,28
 481 1307 481 1307 522.5 1346.5 c 128,-1,29
 564 1386 564 1386 606 1386 c 0,30,31
 608 1387 608 1387 629 1387 c 0,32,33
 677 1387 677 1387 718 1346 c 0,17,18
EndSplineSet
Validated: 1
EndChar

StartChar: glyph182
Encoding: 1114186 -1 182
Width: 904
GlyphClass: 2
Flags: MW
LayerCount: 2
Fore
SplineSet
372 1609.5 m 128,-1,1
 372 1555 372 1555 331 1516 c 128,-1,2
 290 1477 290 1477 249 1477 c 0,3,4
 181 1477 181 1477 141.5 1516.5 c 128,-1,5
 102 1556 102 1556 102 1609 c 128,-1,6
 102 1662 102 1662 142 1703 c 0,7,8
 182 1744 182 1744 222 1744 c 0,9,10
 289 1744 289 1744 330.5 1704 c 128,-1,0
 372 1664 372 1664 372 1609.5 c 128,-1,1
802 1609 m 128,-1,12
 802 1554 802 1554 762 1515.5 c 128,-1,13
 722 1477 722 1477 667 1477 c 128,-1,14
 612 1477 612 1477 572 1515.5 c 128,-1,15
 532 1554 532 1554 532 1609 c 128,-1,16
 532 1664 532 1664 572 1704 c 128,-1,17
 612 1744 612 1744 667 1744 c 128,-1,18
 722 1744 722 1744 762 1704 c 128,-1,11
 802 1664 802 1664 802 1609 c 128,-1,12
EndSplineSet
Validated: 1
EndChar

StartChar: macron
Encoding: 175 175 183
Width: 857
GlyphClass: 2
Flags: W
LayerCount: 2
Fore
SplineSet
126 1301 m 1,0,-1
 731 1301 l 1,1,-1
 731 1137 l 1,2,-1
 126 1137 l 1,3,-1
 126 1301 l 1,0,-1
EndSplineSet
Validated: 1
EndChar

StartChar: glyph184
Encoding: 1114187 -1 184
Width: 878
GlyphClass: 2
Flags: MW
LayerCount: 2
Fore
SplineSet
144 1656 m 1,0,-1
 734 1656 l 1,1,-1
 734 1511 l 1,2,-1
 144 1511 l 1,3,-1
 144 1656 l 1,0,-1
EndSplineSet
Validated: 1
EndChar

StartChar: breve
Encoding: 728 728 185
Width: 830
GlyphClass: 2
Flags: W
LayerCount: 2
Fore
SplineSet
706 1358 m 2,0,1
 706 1199 706 1199 551 1146 c 0,2,3
 495 1123 495 1123 415.5 1123 c 128,-1,4
 336 1123 336 1123 280 1144 c 0,5,6
 124 1202 124 1202 124 1358 c 2,7,-1
 124 1383 l 1,8,-1
 298 1383 l 1,9,-1
 298 1358 l 2,10,11
 298 1323 298 1323 316 1310 c 0,12,13
 348 1287 348 1287 400 1287 c 128,-1,14
 452 1287 452 1287 474 1292 c 0,15,16
 515 1301 515 1301 523.5 1321 c 128,-1,17
 532 1341 532 1341 532 1358 c 2,18,-1
 532 1383 l 1,19,-1
 706 1383 l 1,20,-1
 706 1358 l 2,0,1
EndSplineSet
Validated: 1
Substitution2: "sous-table 'locl' Formes localis+AOkA-es g+AOkA-ographiquement dans Cyrillique lookup 35" breve.locl
EndChar

StartChar: glyph186
Encoding: 1114188 -1 186
Width: 804
GlyphClass: 2
Flags: MW
LayerCount: 2
Fore
SplineSet
162.5 1559 m 128,-1,1
 76 1626 76 1626 76 1758 c 1,2,-1
 270 1758 l 1,3,4
 270 1701 270 1701 292 1679 c 0,5,6
 330 1643 330 1643 403 1643 c 128,-1,7
 476 1643 476 1643 505 1673 c 128,-1,8
 534 1703 534 1703 534 1758 c 1,9,-1
 728 1758 l 1,10,11
 728 1636 728 1636 639 1564 c 128,-1,12
 550 1492 550 1492 399.5 1492 c 128,-1,0
 249 1492 249 1492 162.5 1559 c 128,-1,1
EndSplineSet
Validated: 1
EndChar

StartChar: ring
Encoding: 730 730 187
Width: 671
GlyphClass: 2
Flags: W
LayerCount: 2
Fore
SplineSet
180.5 1427.5 m 128,-1,1
 245 1484 245 1484 335.5 1484 c 128,-1,2
 426 1484 426 1484 491 1427 c 128,-1,3
 556 1370 556 1370 556 1282 c 128,-1,4
 556 1194 556 1194 491.5 1138.5 c 128,-1,5
 427 1083 427 1083 335.5 1083 c 128,-1,6
 244 1083 244 1083 180 1139 c 128,-1,7
 116 1195 116 1195 116 1283 c 128,-1,0
 116 1371 116 1371 180.5 1427.5 c 128,-1,1
338 1366 m 0,8,9
 253 1366 253 1366 253 1281 c 0,10,11
 253 1244 253 1244 274.5 1221 c 128,-1,12
 296 1198 296 1198 335.5 1198 c 128,-1,13
 375 1198 375 1198 397.5 1221 c 128,-1,14
 420 1244 420 1244 420 1282.5 c 128,-1,15
 420 1321 420 1321 397.5 1343.5 c 128,-1,16
 375 1366 375 1366 338 1366 c 0,8,9
EndSplineSet
Validated: 1
EndChar

StartChar: glyph188
Encoding: 1114189 -1 188
Width: 680
GlyphClass: 2
Flags: MW
LayerCount: 2
Fore
SplineSet
545 1651 m 2,0,-1
 545 1645 l 2,1,2
 545 1567 545 1567 484 1516 c 128,-1,3
 423 1465 423 1465 339.5 1465 c 128,-1,4
 256 1465 256 1465 195.5 1516.5 c 128,-1,5
 135 1568 135 1568 135 1648 c 0,6,7
 135 1731 135 1731 194.5 1784 c 128,-1,8
 254 1837 254 1837 339 1837 c 128,-1,9
 424 1837 424 1837 484.5 1784.5 c 128,-1,10
 545 1732 545 1732 545 1651 c 2,0,-1
341 1734 m 0,11,12
 256 1734 256 1734 256 1648 c 0,13,14
 256 1612 256 1612 277.5 1588.5 c 128,-1,15
 299 1565 299 1565 339 1565 c 128,-1,16
 379 1565 379 1565 401.5 1588.5 c 128,-1,17
 424 1612 424 1612 424 1650 c 128,-1,18
 424 1688 424 1688 401.5 1711 c 128,-1,19
 379 1734 379 1734 341 1734 c 0,11,12
EndSplineSet
Validated: 1
EndChar

StartChar: glyph189
Encoding: 1114190 -1 189
Width: 719
GlyphClass: 2
Flags: MW
LayerCount: 2
Fore
SplineSet
204.5 1437.5 m 128,-1,1
 269 1494 269 1494 359.5 1494 c 128,-1,2
 450 1494 450 1494 515 1437 c 128,-1,3
 580 1380 580 1380 580 1292 c 128,-1,4
 580 1204 580 1204 515.5 1148.5 c 128,-1,5
 451 1093 451 1093 359.5 1093 c 128,-1,6
 268 1093 268 1093 204 1149 c 128,-1,7
 140 1205 140 1205 140 1293 c 128,-1,0
 140 1381 140 1381 204.5 1437.5 c 128,-1,1
362 1376 m 0,8,9
 277 1376 277 1376 277 1291 c 0,10,11
 277 1254 277 1254 298.5 1231 c 128,-1,12
 320 1208 320 1208 359.5 1208 c 128,-1,13
 399 1208 399 1208 421.5 1231 c 128,-1,14
 444 1254 444 1254 444 1292.5 c 128,-1,15
 444 1331 444 1331 421.5 1353.5 c 128,-1,16
 399 1376 399 1376 362 1376 c 0,8,9
744 1831 m 1,17,-1
 503 1578 l 1,18,19
 468 1543 468 1543 419 1543 c 2,20,-1
 267 1543 l 1,21,-1
 403 1778 l 2,22,23
 418 1804 418 1804 438 1817.5 c 128,-1,24
 458 1831 458 1831 498 1831 c 2,25,-1
 744 1831 l 1,17,-1
EndSplineSet
Validated: 1
EndChar

